%TF.GenerationSoftware,KiCad,Pcbnew,8.0.9*%
%TF.CreationDate,2025-03-17T12:30:23+01:00*%
%TF.ProjectId,PROJECTE_MISE,50524f4a-4543-4544-955f-4d4953452e6b,12/03/25*%
%TF.SameCoordinates,Original*%
%TF.FileFunction,Soldermask,Bot*%
%TF.FilePolarity,Negative*%
%FSLAX46Y46*%
G04 Gerber Fmt 4.6, Leading zero omitted, Abs format (unit mm)*
G04 Created by KiCad (PCBNEW 8.0.9) date 2025-03-17 12:30:23*
%MOMM*%
%LPD*%
G01*
G04 APERTURE LIST*
G04 Aperture macros list*
%AMRoundRect*
0 Rectangle with rounded corners*
0 $1 Rounding radius*
0 $2 $3 $4 $5 $6 $7 $8 $9 X,Y pos of 4 corners*
0 Add a 4 corners polygon primitive as box body*
4,1,4,$2,$3,$4,$5,$6,$7,$8,$9,$2,$3,0*
0 Add four circle primitives for the rounded corners*
1,1,$1+$1,$2,$3*
1,1,$1+$1,$4,$5*
1,1,$1+$1,$6,$7*
1,1,$1+$1,$8,$9*
0 Add four rect primitives between the rounded corners*
20,1,$1+$1,$2,$3,$4,$5,0*
20,1,$1+$1,$4,$5,$6,$7,0*
20,1,$1+$1,$6,$7,$8,$9,0*
20,1,$1+$1,$8,$9,$2,$3,0*%
G04 Aperture macros list end*
%ADD10R,1.700000X1.700000*%
%ADD11O,1.700000X1.700000*%
%ADD12R,1.800000X1.700000*%
%ADD13RoundRect,0.425000X-0.475000X-0.425000X0.475000X-0.425000X0.475000X0.425000X-0.475000X0.425000X0*%
%ADD14C,4.000000*%
%ADD15RoundRect,0.250000X0.650000X0.650000X-0.650000X0.650000X-0.650000X-0.650000X0.650000X-0.650000X0*%
%ADD16C,1.800000*%
%ADD17C,3.500000*%
%ADD18C,1.200000*%
%ADD19R,1.350000X1.350000*%
%ADD20C,2.000000*%
%ADD21O,1.350000X1.350000*%
%ADD22C,1.650000*%
%ADD23C,1.950000*%
%ADD24C,2.400000*%
%ADD25R,1.560000X1.560000*%
%ADD26C,1.560000*%
G04 APERTURE END LIST*
D10*
%TO.C,R2*%
X74425000Y-136300000D03*
D11*
X76965000Y-136300000D03*
%TD*%
D12*
%TO.C,LCD1*%
X135200000Y-70600000D03*
D13*
X137740000Y-70600000D03*
X135200000Y-73140000D03*
X137740000Y-73140000D03*
X135200000Y-75680000D03*
X137740000Y-75680000D03*
X135200000Y-78220000D03*
X137740000Y-78220000D03*
D14*
X137225000Y-85810000D03*
X76225000Y-85810000D03*
X76225000Y-62810000D03*
X137225000Y-62810000D03*
%TD*%
D15*
%TO.C,J1*%
X114180000Y-72160000D03*
D16*
X114180000Y-74700000D03*
X111640000Y-72160000D03*
X111640000Y-74700000D03*
X109100000Y-72160000D03*
X109100000Y-74700000D03*
X106560000Y-72160000D03*
X106560000Y-74700000D03*
X104020000Y-72160000D03*
X104020000Y-74700000D03*
X101480000Y-72160000D03*
X101480000Y-74700000D03*
X98940000Y-72160000D03*
X98940000Y-74700000D03*
D17*
X106560000Y-134700000D03*
X79560000Y-104700000D03*
X133560000Y-104700000D03*
X71560000Y-62700000D03*
X141560000Y-62700000D03*
%TD*%
D18*
%TO.C,Y2*%
X115150000Y-98300000D03*
X115150000Y-96900000D03*
%TD*%
D19*
%TO.C,J3*%
X71900000Y-106700000D03*
%TD*%
%TO.C,J9*%
X127000000Y-90900000D03*
%TD*%
D20*
%TO.C,SW1*%
X132900000Y-95700000D03*
X139400000Y-95700000D03*
X132900000Y-100200000D03*
X139400000Y-100200000D03*
%TD*%
D19*
%TO.C,JP1*%
X141300000Y-79200000D03*
D21*
X141300000Y-77200000D03*
%TD*%
D19*
%TO.C,J8*%
X127000000Y-94500000D03*
%TD*%
%TO.C,J6*%
X71800000Y-102800000D03*
%TD*%
D22*
%TO.C,S1*%
X93075000Y-120162500D03*
X93075000Y-117662500D03*
X93075000Y-115162500D03*
X81845000Y-126392500D03*
X84345000Y-126392500D03*
X86845000Y-126392500D03*
D23*
X78595000Y-114412500D03*
X78595000Y-120912500D03*
X74095000Y-114412500D03*
X74095000Y-120912500D03*
D24*
X89345000Y-123987500D03*
X89345000Y-111337500D03*
X79345000Y-111337500D03*
X79345000Y-123987500D03*
%TD*%
D10*
%TO.C,R1*%
X139275000Y-136300000D03*
D11*
X136735000Y-136300000D03*
%TD*%
D19*
%TO.C,J5*%
X116400000Y-109400000D03*
%TD*%
D10*
%TO.C,J7*%
X119920000Y-107100000D03*
D11*
X122460000Y-107100000D03*
X125000000Y-107100000D03*
%TD*%
D10*
%TO.C,J2*%
X76360000Y-99720000D03*
D11*
X78900000Y-99720000D03*
X76360000Y-97180000D03*
X78900000Y-97180000D03*
X76360000Y-94640000D03*
X78900000Y-94640000D03*
X76360000Y-92100000D03*
X78900000Y-92100000D03*
%TD*%
D25*
%TO.C,RV1*%
X121000000Y-134440000D03*
D26*
X118500000Y-129440000D03*
X116000000Y-134440000D03*
%TD*%
D19*
%TO.C,J10*%
X127000000Y-98500000D03*
%TD*%
D25*
%TO.C,RV2*%
X99700000Y-134940000D03*
D26*
X97200000Y-129940000D03*
X94700000Y-134940000D03*
%TD*%
D19*
%TO.C,J4*%
X116500000Y-112400000D03*
%TD*%
M02*
