%TF.GenerationSoftware,KiCad,Pcbnew,8.0.9*%
%TF.CreationDate,2025-03-17T12:30:23+01:00*%
%TF.ProjectId,PROJECTE_MISE,50524f4a-4543-4544-955f-4d4953452e6b,12/03/25*%
%TF.SameCoordinates,Original*%
%TF.FileFunction,Soldermask,Top*%
%TF.FilePolarity,Negative*%
%FSLAX46Y46*%
G04 Gerber Fmt 4.6, Leading zero omitted, Abs format (unit mm)*
G04 Created by KiCad (PCBNEW 8.0.9) date 2025-03-17 12:30:23*
%MOMM*%
%LPD*%
G01*
G04 APERTURE LIST*
G04 Aperture macros list*
%AMRoundRect*
0 Rectangle with rounded corners*
0 $1 Rounding radius*
0 $2 $3 $4 $5 $6 $7 $8 $9 X,Y pos of 4 corners*
0 Add a 4 corners polygon primitive as box body*
4,1,4,$2,$3,$4,$5,$6,$7,$8,$9,$2,$3,0*
0 Add four circle primitives for the rounded corners*
1,1,$1+$1,$2,$3*
1,1,$1+$1,$4,$5*
1,1,$1+$1,$6,$7*
1,1,$1+$1,$8,$9*
0 Add four rect primitives between the rounded corners*
20,1,$1+$1,$2,$3,$4,$5,0*
20,1,$1+$1,$4,$5,$6,$7,0*
20,1,$1+$1,$6,$7,$8,$9,0*
20,1,$1+$1,$8,$9,$2,$3,0*%
G04 Aperture macros list end*
%ADD10R,1.700000X1.700000*%
%ADD11O,1.700000X1.700000*%
%ADD12R,1.800000X1.700000*%
%ADD13RoundRect,0.425000X-0.475000X-0.425000X0.475000X-0.425000X0.475000X0.425000X-0.475000X0.425000X0*%
%ADD14C,4.000000*%
%ADD15RoundRect,0.250000X0.262500X0.450000X-0.262500X0.450000X-0.262500X-0.450000X0.262500X-0.450000X0*%
%ADD16RoundRect,0.250000X-0.450000X0.262500X-0.450000X-0.262500X0.450000X-0.262500X0.450000X0.262500X0*%
%ADD17RoundRect,0.250000X-0.250000X-0.475000X0.250000X-0.475000X0.250000X0.475000X-0.250000X0.475000X0*%
%ADD18RoundRect,0.250000X0.650000X0.650000X-0.650000X0.650000X-0.650000X-0.650000X0.650000X-0.650000X0*%
%ADD19C,1.800000*%
%ADD20C,3.500000*%
%ADD21RoundRect,0.250000X0.250000X0.475000X-0.250000X0.475000X-0.250000X-0.475000X0.250000X-0.475000X0*%
%ADD22C,1.200000*%
%ADD23RoundRect,0.250000X-0.262500X-0.450000X0.262500X-0.450000X0.262500X0.450000X-0.262500X0.450000X0*%
%ADD24RoundRect,0.250000X0.475000X-0.250000X0.475000X0.250000X-0.475000X0.250000X-0.475000X-0.250000X0*%
%ADD25R,1.350000X1.350000*%
%ADD26RoundRect,0.250000X-0.475000X0.250000X-0.475000X-0.250000X0.475000X-0.250000X0.475000X0.250000X0*%
%ADD27C,2.000000*%
%ADD28R,1.475000X0.300000*%
%ADD29R,0.300000X1.475000*%
%ADD30O,1.350000X1.350000*%
%ADD31RoundRect,0.150000X0.825000X0.150000X-0.825000X0.150000X-0.825000X-0.150000X0.825000X-0.150000X0*%
%ADD32RoundRect,0.243750X0.456250X-0.243750X0.456250X0.243750X-0.456250X0.243750X-0.456250X-0.243750X0*%
%ADD33C,1.650000*%
%ADD34C,1.950000*%
%ADD35C,2.400000*%
%ADD36R,1.560000X1.560000*%
%ADD37C,1.560000*%
G04 APERTURE END LIST*
D10*
%TO.C,R2*%
X74425000Y-136300000D03*
D11*
X76965000Y-136300000D03*
%TD*%
D12*
%TO.C,LCD1*%
X135200000Y-70600000D03*
D13*
X137740000Y-70600000D03*
X135200000Y-73140000D03*
X137740000Y-73140000D03*
X135200000Y-75680000D03*
X137740000Y-75680000D03*
X135200000Y-78220000D03*
X137740000Y-78220000D03*
D14*
X137225000Y-85810000D03*
X76225000Y-85810000D03*
X76225000Y-62810000D03*
X137225000Y-62810000D03*
%TD*%
D15*
%TO.C,R3*%
X124300000Y-104300000D03*
X122475000Y-104300000D03*
%TD*%
D16*
%TO.C,R7*%
X71600000Y-74587500D03*
X71600000Y-76412500D03*
%TD*%
D17*
%TO.C,Cosc2*%
X118100000Y-96000000D03*
X120000000Y-96000000D03*
%TD*%
D16*
%TO.C,R12*%
X99000000Y-117875000D03*
X99000000Y-119700000D03*
%TD*%
D18*
%TO.C,J1*%
X114180000Y-72160000D03*
D19*
X114180000Y-74700000D03*
X111640000Y-72160000D03*
X111640000Y-74700000D03*
X109100000Y-72160000D03*
X109100000Y-74700000D03*
X106560000Y-72160000D03*
X106560000Y-74700000D03*
X104020000Y-72160000D03*
X104020000Y-74700000D03*
X101480000Y-72160000D03*
X101480000Y-74700000D03*
X98940000Y-72160000D03*
X98940000Y-74700000D03*
D20*
X106560000Y-134700000D03*
X79560000Y-104700000D03*
X133560000Y-104700000D03*
X71560000Y-62700000D03*
X141560000Y-62700000D03*
%TD*%
D16*
%TO.C,R11*%
X99000000Y-114475000D03*
X99000000Y-116300000D03*
%TD*%
D21*
%TO.C,C8*%
X114150000Y-77500000D03*
X112250000Y-77500000D03*
%TD*%
D22*
%TO.C,Y2*%
X115150000Y-98300000D03*
X115150000Y-96900000D03*
%TD*%
D23*
%TO.C,R10*%
X111387500Y-116100000D03*
X113212500Y-116100000D03*
%TD*%
D24*
%TO.C,C2*%
X117600000Y-102650000D03*
X117600000Y-100750000D03*
%TD*%
D25*
%TO.C,J3*%
X71900000Y-106700000D03*
%TD*%
D16*
%TO.C,R4*%
X131900000Y-70600000D03*
X131900000Y-72425000D03*
%TD*%
D26*
%TO.C,C4*%
X84100000Y-92050000D03*
X84100000Y-93950000D03*
%TD*%
D25*
%TO.C,J9*%
X127000000Y-90900000D03*
%TD*%
D15*
%TO.C,R9*%
X119112500Y-115400000D03*
X117287500Y-115400000D03*
%TD*%
D16*
%TO.C,R5*%
X141400000Y-71587500D03*
X141400000Y-73412500D03*
%TD*%
D15*
%TO.C,R8*%
X120912500Y-118900000D03*
X119087500Y-118900000D03*
%TD*%
D17*
%TO.C,Cosc1*%
X118100000Y-98200000D03*
X120000000Y-98200000D03*
%TD*%
D27*
%TO.C,SW1*%
X132900000Y-95700000D03*
X139400000Y-95700000D03*
X132900000Y-100200000D03*
X139400000Y-100200000D03*
%TD*%
D28*
%TO.C,IC1*%
X111300000Y-104600000D03*
X111300000Y-104100000D03*
X111300000Y-103600000D03*
X111300000Y-103100000D03*
X111300000Y-102600000D03*
X111300000Y-102100000D03*
X111300000Y-101600000D03*
X111300000Y-101100000D03*
X111300000Y-100600000D03*
X111300000Y-100100000D03*
X111300000Y-99600000D03*
X111300000Y-99100000D03*
D29*
X109812000Y-97612000D03*
X109312000Y-97612000D03*
X108812000Y-97612000D03*
X108312000Y-97612000D03*
X107812000Y-97612000D03*
X107312000Y-97612000D03*
X106812000Y-97612000D03*
X106312000Y-97612000D03*
X105812000Y-97612000D03*
X105312000Y-97612000D03*
X104812000Y-97612000D03*
X104312000Y-97612000D03*
D28*
X102824000Y-99100000D03*
X102824000Y-99600000D03*
X102824000Y-100100000D03*
X102824000Y-100600000D03*
X102824000Y-101100000D03*
X102824000Y-101600000D03*
X102824000Y-102100000D03*
X102824000Y-102600000D03*
X102824000Y-103100000D03*
X102824000Y-103600000D03*
X102824000Y-104100000D03*
X102824000Y-104600000D03*
D29*
X104312000Y-106088000D03*
X104812000Y-106088000D03*
X105312000Y-106088000D03*
X105812000Y-106088000D03*
X106312000Y-106088000D03*
X106812000Y-106088000D03*
X107312000Y-106088000D03*
X107812000Y-106088000D03*
X108312000Y-106088000D03*
X108812000Y-106088000D03*
X109312000Y-106088000D03*
X109812000Y-106088000D03*
%TD*%
D25*
%TO.C,JP1*%
X141300000Y-79200000D03*
D30*
X141300000Y-77200000D03*
%TD*%
D31*
%TO.C,U1*%
X109275000Y-123210000D03*
X109275000Y-121940000D03*
X109275000Y-120670000D03*
X109275000Y-119400000D03*
X109275000Y-118130000D03*
X109275000Y-116860000D03*
X109275000Y-115590000D03*
X104325000Y-115590000D03*
X104325000Y-116860000D03*
X104325000Y-118130000D03*
X104325000Y-119400000D03*
X104325000Y-120670000D03*
X104325000Y-121940000D03*
X104325000Y-123210000D03*
%TD*%
D24*
%TO.C,C3*%
X131900000Y-69050000D03*
X131900000Y-67150000D03*
%TD*%
%TO.C,C5*%
X77400000Y-128550000D03*
X77400000Y-126650000D03*
%TD*%
D25*
%TO.C,J8*%
X127000000Y-94500000D03*
%TD*%
D32*
%TO.C,D1*%
X71600000Y-72237500D03*
X71600000Y-70362500D03*
%TD*%
D25*
%TO.C,J6*%
X71800000Y-102800000D03*
%TD*%
D33*
%TO.C,S1*%
X93075000Y-120162500D03*
X93075000Y-117662500D03*
X93075000Y-115162500D03*
X81845000Y-126392500D03*
X84345000Y-126392500D03*
X86845000Y-126392500D03*
D34*
X78595000Y-114412500D03*
X78595000Y-120912500D03*
X74095000Y-114412500D03*
X74095000Y-120912500D03*
D35*
X89345000Y-123987500D03*
X89345000Y-111337500D03*
X79345000Y-111337500D03*
X79345000Y-123987500D03*
%TD*%
D17*
%TO.C,C1*%
X122450000Y-109900000D03*
X124350000Y-109900000D03*
%TD*%
D10*
%TO.C,R1*%
X139275000Y-136300000D03*
D11*
X136735000Y-136300000D03*
%TD*%
D25*
%TO.C,J5*%
X116400000Y-109400000D03*
%TD*%
D10*
%TO.C,J7*%
X119920000Y-107100000D03*
D11*
X122460000Y-107100000D03*
X125000000Y-107100000D03*
%TD*%
D15*
%TO.C,R6*%
X135212500Y-81400000D03*
X133387500Y-81400000D03*
%TD*%
D10*
%TO.C,J2*%
X76360000Y-99720000D03*
D11*
X78900000Y-99720000D03*
X76360000Y-97180000D03*
X78900000Y-97180000D03*
X76360000Y-94640000D03*
X78900000Y-94640000D03*
X76360000Y-92100000D03*
X78900000Y-92100000D03*
%TD*%
D21*
%TO.C,C6*%
X114150000Y-69500000D03*
X112250000Y-69500000D03*
%TD*%
D16*
%TO.C,R13*%
X99000000Y-121287500D03*
X99000000Y-123112500D03*
%TD*%
D36*
%TO.C,RV1*%
X121000000Y-134440000D03*
D37*
X118500000Y-129440000D03*
X116000000Y-134440000D03*
%TD*%
D25*
%TO.C,J10*%
X127000000Y-98500000D03*
%TD*%
D36*
%TO.C,RV2*%
X99700000Y-134940000D03*
D37*
X97200000Y-129940000D03*
X94700000Y-134940000D03*
%TD*%
D25*
%TO.C,J4*%
X116500000Y-112400000D03*
%TD*%
D16*
%TO.C,R14*%
X82100000Y-92087500D03*
X82100000Y-93912500D03*
%TD*%
D17*
%TO.C,C7*%
X111350000Y-119400000D03*
X113250000Y-119400000D03*
%TD*%
M02*
