%TF.GenerationSoftware,KiCad,Pcbnew,8.0.9*%
%TF.CreationDate,2025-03-17T12:30:23+01:00*%
%TF.ProjectId,PROJECTE_MISE,50524f4a-4543-4544-955f-4d4953452e6b,12/03/25*%
%TF.SameCoordinates,Original*%
%TF.FileFunction,Copper,L2,Bot*%
%TF.FilePolarity,Positive*%
%FSLAX46Y46*%
G04 Gerber Fmt 4.6, Leading zero omitted, Abs format (unit mm)*
G04 Created by KiCad (PCBNEW 8.0.9) date 2025-03-17 12:30:23*
%MOMM*%
%LPD*%
G01*
G04 APERTURE LIST*
G04 Aperture macros list*
%AMRoundRect*
0 Rectangle with rounded corners*
0 $1 Rounding radius*
0 $2 $3 $4 $5 $6 $7 $8 $9 X,Y pos of 4 corners*
0 Add a 4 corners polygon primitive as box body*
4,1,4,$2,$3,$4,$5,$6,$7,$8,$9,$2,$3,0*
0 Add four circle primitives for the rounded corners*
1,1,$1+$1,$2,$3*
1,1,$1+$1,$4,$5*
1,1,$1+$1,$6,$7*
1,1,$1+$1,$8,$9*
0 Add four rect primitives between the rounded corners*
20,1,$1+$1,$2,$3,$4,$5,0*
20,1,$1+$1,$4,$5,$6,$7,0*
20,1,$1+$1,$6,$7,$8,$9,0*
20,1,$1+$1,$8,$9,$2,$3,0*%
G04 Aperture macros list end*
%TA.AperFunction,ComponentPad*%
%ADD10R,1.700000X1.700000*%
%TD*%
%TA.AperFunction,ComponentPad*%
%ADD11O,1.700000X1.700000*%
%TD*%
%TA.AperFunction,ComponentPad*%
%ADD12R,1.800000X1.700000*%
%TD*%
%TA.AperFunction,ComponentPad*%
%ADD13RoundRect,0.425000X-0.475000X-0.425000X0.475000X-0.425000X0.475000X0.425000X-0.475000X0.425000X0*%
%TD*%
%TA.AperFunction,ComponentPad*%
%ADD14C,4.000000*%
%TD*%
%TA.AperFunction,ComponentPad*%
%ADD15RoundRect,0.250000X0.650000X0.650000X-0.650000X0.650000X-0.650000X-0.650000X0.650000X-0.650000X0*%
%TD*%
%TA.AperFunction,ComponentPad*%
%ADD16C,1.800000*%
%TD*%
%TA.AperFunction,ComponentPad*%
%ADD17C,3.500000*%
%TD*%
%TA.AperFunction,ComponentPad*%
%ADD18C,1.200000*%
%TD*%
%TA.AperFunction,ComponentPad*%
%ADD19R,1.350000X1.350000*%
%TD*%
%TA.AperFunction,ComponentPad*%
%ADD20C,2.000000*%
%TD*%
%TA.AperFunction,ComponentPad*%
%ADD21O,1.350000X1.350000*%
%TD*%
%TA.AperFunction,ComponentPad*%
%ADD22C,1.650000*%
%TD*%
%TA.AperFunction,ComponentPad*%
%ADD23C,1.950000*%
%TD*%
%TA.AperFunction,ComponentPad*%
%ADD24C,2.400000*%
%TD*%
%TA.AperFunction,ComponentPad*%
%ADD25R,1.560000X1.560000*%
%TD*%
%TA.AperFunction,ComponentPad*%
%ADD26C,1.560000*%
%TD*%
%TA.AperFunction,ViaPad*%
%ADD27C,1.600000*%
%TD*%
%TA.AperFunction,Conductor*%
%ADD28C,0.500000*%
%TD*%
%TA.AperFunction,Conductor*%
%ADD29C,0.750000*%
%TD*%
%TA.AperFunction,Conductor*%
%ADD30C,0.250000*%
%TD*%
G04 APERTURE END LIST*
D10*
%TO.P,R2,1*%
%TO.N,+3V3*%
X74425000Y-136300000D03*
D11*
%TO.P,R2,2*%
%TO.N,/LDR_{R}*%
X76965000Y-136300000D03*
%TD*%
D12*
%TO.P,LCD1,1,VDD*%
%TO.N,+3V3*%
X135200000Y-70600000D03*
D13*
%TO.P,LCD1,2,VSS*%
%TO.N,GND*%
X137740000Y-70600000D03*
%TO.P,LCD1,3,SDA*%
%TO.N,/I2C_SDA*%
X135200000Y-73140000D03*
%TO.P,LCD1,4,SCL*%
%TO.N,/I2C_SCL*%
X137740000Y-73140000D03*
%TO.P,LCD1,5,RST*%
%TO.N,/~{RST_{LCD}}*%
X135200000Y-75680000D03*
%TO.P,LCD1,6,A*%
%TO.N,/A*%
X137740000Y-75680000D03*
%TO.P,LCD1,7,K*%
%TO.N,/K*%
X135200000Y-78220000D03*
%TO.P,LCD1,8,NC*%
%TO.N,unconnected-(LCD1-NC-Pad8)*%
X137740000Y-78220000D03*
D14*
%TO.P,LCD1,9*%
%TO.N,N/C*%
X137225000Y-85810000D03*
%TO.P,LCD1,10*%
X76225000Y-85810000D03*
%TO.P,LCD1,11*%
X76225000Y-62810000D03*
%TO.P,LCD1,12*%
X137225000Y-62810000D03*
%TD*%
D15*
%TO.P,J1,1,Pin_1*%
%TO.N,+3V3*%
X114180000Y-72160000D03*
D16*
%TO.P,J1,2,Pin_2*%
X114180000Y-74700000D03*
%TO.P,J1,3,Pin_3*%
%TO.N,unconnected-(J1-Pin_3-Pad3)*%
X111640000Y-72160000D03*
%TO.P,J1,4,Pin_4*%
%TO.N,/P0*%
X111640000Y-74700000D03*
%TO.P,J1,5,Pin_5*%
%TO.N,unconnected-(J1-Pin_5-Pad5)*%
X109100000Y-72160000D03*
%TO.P,J1,6,Pin_6*%
%TO.N,/P1*%
X109100000Y-74700000D03*
%TO.P,J1,7,Pin_7*%
%TO.N,unconnected-(J1-Pin_7-Pad7)*%
X106560000Y-72160000D03*
%TO.P,J1,8,Pin_8*%
%TO.N,/P2*%
X106560000Y-74700000D03*
%TO.P,J1,9,Pin_9*%
%TO.N,/I2C_SCL*%
X104020000Y-72160000D03*
%TO.P,J1,10,Pin_10*%
%TO.N,/P8*%
X104020000Y-74700000D03*
%TO.P,J1,11,Pin_11*%
%TO.N,/I2C_SDA*%
X101480000Y-72160000D03*
%TO.P,J1,12,Pin_12*%
%TO.N,unconnected-(J1-Pin_12-Pad12)*%
X101480000Y-74700000D03*
%TO.P,J1,13,Pin_13*%
%TO.N,GND*%
X98940000Y-72160000D03*
%TO.P,J1,14,Pin_14*%
X98940000Y-74700000D03*
D17*
%TO.P,J1,15*%
%TO.N,N/C*%
X106560000Y-134700000D03*
%TO.P,J1,16*%
X79560000Y-104700000D03*
%TO.P,J1,17*%
X133560000Y-104700000D03*
%TO.P,J1,18*%
X71560000Y-62700000D03*
%TO.P,J1,19*%
X141560000Y-62700000D03*
%TD*%
D18*
%TO.P,Y2,1,1*%
%TO.N,/XT1IN*%
X115150000Y-98300000D03*
%TO.P,Y2,2,2*%
%TO.N,/XT1OUT*%
X115150000Y-96900000D03*
%TD*%
D19*
%TO.P,J3,1,Pin_1*%
%TO.N,/TX_{ESP}*%
X71900000Y-106700000D03*
%TD*%
%TO.P,J9,1,Pin_1*%
%TO.N,/I2C_SDA*%
X127000000Y-90900000D03*
%TD*%
D20*
%TO.P,SW1,1,1*%
%TO.N,/SBW_{TDIO}*%
X132900000Y-95700000D03*
X139400000Y-95700000D03*
%TO.P,SW1,2,2*%
%TO.N,GND*%
X132900000Y-100200000D03*
X139400000Y-100200000D03*
%TD*%
D19*
%TO.P,JP1,1,Pin_1*%
%TO.N,+3V3*%
X141300000Y-79200000D03*
D21*
%TO.P,JP1,2,Pin_2*%
%TO.N,/A*%
X141300000Y-77200000D03*
%TD*%
D19*
%TO.P,J8,1,Pin_1*%
%TO.N,/I2C_SCL*%
X127000000Y-94500000D03*
%TD*%
%TO.P,J6,1,Pin_1*%
%TO.N,/RX_{ESP}*%
X71800000Y-102800000D03*
%TD*%
D22*
%TO.P,S1,1,1*%
%TO.N,+3V3*%
X93075000Y-120162500D03*
%TO.P,S1,2,2*%
%TO.N,/AO1*%
X93075000Y-117662500D03*
%TO.P,S1,3,3*%
%TO.N,GND*%
X93075000Y-115162500D03*
%TO.P,S1,11,1'*%
%TO.N,+3V3*%
X81845000Y-126392500D03*
%TO.P,S1,12,2'*%
%TO.N,/AO2*%
X84345000Y-126392500D03*
%TO.P,S1,13,3'*%
%TO.N,GND*%
X86845000Y-126392500D03*
D23*
%TO.P,S1,A1,COM_1*%
X78595000Y-114412500D03*
%TO.P,S1,B1,COM_2*%
%TO.N,unconnected-(S1-COM_2-PadB1)*%
X78595000Y-120912500D03*
%TO.P,S1,C1,NO_1*%
%TO.N,/JTK_{SEL}*%
X74095000Y-114412500D03*
%TO.P,S1,D1,NO_2*%
%TO.N,unconnected-(S1-NO_2-PadD1)*%
X74095000Y-120912500D03*
D24*
%TO.P,S1,MH1,MH1*%
%TO.N,GND*%
X89345000Y-123987500D03*
%TO.P,S1,MH2,MH2*%
X89345000Y-111337500D03*
%TO.P,S1,MH3,MH3*%
X79345000Y-111337500D03*
%TO.P,S1,MH4,MH4*%
X79345000Y-123987500D03*
%TD*%
D10*
%TO.P,R1,1*%
%TO.N,+3V3*%
X139275000Y-136300000D03*
D11*
%TO.P,R1,2*%
%TO.N,/LDR_{L}*%
X136735000Y-136300000D03*
%TD*%
D19*
%TO.P,J5,1,Pin_1*%
%TO.N,/SMCLK_{TP}*%
X116400000Y-109400000D03*
%TD*%
D10*
%TO.P,J7,1,Pin_1*%
%TO.N,/SBW_{TCK}*%
X119920000Y-107100000D03*
D11*
%TO.P,J7,2,Pin_2*%
%TO.N,/SBW_{TDIO}*%
X122460000Y-107100000D03*
%TO.P,J7,3,Pin_3*%
%TO.N,GND*%
X125000000Y-107100000D03*
%TD*%
D10*
%TO.P,J2,1,Pin_1*%
%TO.N,GND*%
X76360000Y-99720000D03*
D11*
%TO.P,J2,2,Pin_2*%
%TO.N,/TX_{ESP}*%
X78900000Y-99720000D03*
%TO.P,J2,3,Pin_3*%
%TO.N,unconnected-(J2-Pin_3-Pad3)*%
X76360000Y-97180000D03*
%TO.P,J2,4,Pin_4*%
%TO.N,/~{EN_{ESP}}*%
X78900000Y-97180000D03*
%TO.P,J2,5,Pin_5*%
%TO.N,unconnected-(J2-Pin_5-Pad5)*%
X76360000Y-94640000D03*
%TO.P,J2,6,Pin_6*%
%TO.N,unconnected-(J2-Pin_6-Pad6)*%
X78900000Y-94640000D03*
%TO.P,J2,7,Pin_7*%
%TO.N,/RX_{ESP}*%
X76360000Y-92100000D03*
%TO.P,J2,8,Pin_8*%
%TO.N,+3V3*%
X78900000Y-92100000D03*
%TD*%
D25*
%TO.P,RV1,1,1*%
%TO.N,/LDR_{L}*%
X121000000Y-134440000D03*
D26*
%TO.P,RV1,2,2*%
X118500000Y-129440000D03*
%TO.P,RV1,3,3*%
%TO.N,GND*%
X116000000Y-134440000D03*
%TD*%
D19*
%TO.P,J10,1,Pin_1*%
%TO.N,GND*%
X127000000Y-98500000D03*
%TD*%
D25*
%TO.P,RV2,1,1*%
%TO.N,/LDR_{R}*%
X99700000Y-134940000D03*
D26*
%TO.P,RV2,2,2*%
X97200000Y-129940000D03*
%TO.P,RV2,3,3*%
%TO.N,GND*%
X94700000Y-134940000D03*
%TD*%
D19*
%TO.P,J4,1,Pin_1*%
%TO.N,/ACLK_{TP}*%
X116500000Y-112400000D03*
%TD*%
D27*
%TO.N,GND*%
X84100000Y-96000000D03*
X115000000Y-119300000D03*
X71600000Y-78700000D03*
X110300000Y-69500000D03*
X120000000Y-93900000D03*
X112100000Y-79300000D03*
X101800000Y-119700000D03*
X131300000Y-81400000D03*
X122700000Y-98900000D03*
X134100000Y-67200000D03*
X115000000Y-116100000D03*
%TO.N,+3V3*%
X120900000Y-123600000D03*
X86200000Y-66700000D03*
X116900000Y-121800000D03*
%TO.N,/JTK_{L}*%
X112800000Y-111100000D03*
X101600000Y-123300000D03*
%TO.N,/~{RST_{LCD}}*%
X110000000Y-91600000D03*
X114400000Y-81400000D03*
%TO.N,/I2C_SDA*%
X126750000Y-63550000D03*
X110300000Y-85300000D03*
X128400000Y-68900000D03*
%TO.N,/JTK_{SEL}*%
X109400000Y-111200000D03*
X101100000Y-109700000D03*
%TO.N,/JTK_{F}*%
X104750000Y-110200000D03*
X110300000Y-125300000D03*
%TO.N,/I2C_SCL*%
X121100000Y-65800000D03*
X119350000Y-89950000D03*
%TO.N,/RX_{ESP}*%
X94800000Y-100200000D03*
%TO.N,/AO2*%
X93900000Y-127800000D03*
X113400000Y-125700000D03*
%TD*%
D28*
%TO.N,/RX_{ESP}*%
X93100000Y-98500000D02*
X94800000Y-100200000D01*
X93100000Y-89400000D02*
X93100000Y-98500000D01*
X92200000Y-88500000D02*
X93100000Y-89400000D01*
X76360000Y-90940000D02*
X78800000Y-88500000D01*
X76360000Y-92100000D02*
X76360000Y-90940000D01*
X78800000Y-88500000D02*
X92200000Y-88500000D01*
D29*
%TO.N,GND*%
X98940000Y-72160000D02*
X98940000Y-74700000D01*
%TO.N,+3V3*%
X116900000Y-121800000D02*
X118700000Y-123600000D01*
X111700000Y-66700000D02*
X114180000Y-69180000D01*
X118700000Y-123600000D02*
X120900000Y-123600000D01*
X114180000Y-69180000D02*
X114180000Y-72160000D01*
X86200000Y-66700000D02*
X111700000Y-66700000D01*
D28*
%TO.N,/JTK_{L}*%
X101600000Y-123300000D02*
X112800000Y-112100000D01*
X112800000Y-112100000D02*
X112800000Y-111100000D01*
%TO.N,/~{RST_{LCD}}*%
X114400000Y-81400000D02*
X114400000Y-87200000D01*
X114400000Y-87200000D02*
X110000000Y-91600000D01*
%TO.N,/I2C_SDA*%
X110300000Y-85300000D02*
X109100000Y-85300000D01*
D30*
X102800000Y-77800000D02*
X102800000Y-76500000D01*
D28*
X109100000Y-85300000D02*
X102800000Y-79000000D01*
D30*
X102795000Y-73475000D02*
X101480000Y-72160000D01*
D28*
X128400000Y-65200000D02*
X128400000Y-68900000D01*
D30*
X102795000Y-76495000D02*
X102795000Y-73475000D01*
D28*
X102800000Y-79000000D02*
X102800000Y-77800000D01*
D30*
X102800000Y-76500000D02*
X102795000Y-76495000D01*
D28*
X126750000Y-63550000D02*
X128400000Y-65200000D01*
%TO.N,/JTK_{SEL}*%
X101100000Y-109700000D02*
X103500000Y-112100000D01*
X108500000Y-112100000D02*
X109400000Y-111200000D01*
X103500000Y-112100000D02*
X108500000Y-112100000D01*
%TO.N,/JTK_{F}*%
X97100000Y-109500000D02*
X97100000Y-123900000D01*
X98500000Y-125300000D02*
X110300000Y-125300000D01*
X102650000Y-108100000D02*
X98500000Y-108100000D01*
X98500000Y-108100000D02*
X97100000Y-109500000D01*
X104750000Y-110200000D02*
X102650000Y-108100000D01*
X97100000Y-123900000D02*
X98500000Y-125300000D01*
%TO.N,/I2C_SCL*%
X119350000Y-89950000D02*
X119400000Y-89900000D01*
X119400000Y-89900000D02*
X119400000Y-67500000D01*
X119400000Y-67500000D02*
X121100000Y-65800000D01*
%TO.N,/AO2*%
X113400000Y-125700000D02*
X113400000Y-126400000D01*
X112200000Y-127600000D02*
X94100000Y-127600000D01*
X94100000Y-127600000D02*
X93900000Y-127800000D01*
X113400000Y-126400000D02*
X112200000Y-127600000D01*
%TD*%
%TA.AperFunction,Conductor*%
%TO.N,GND*%
G36*
X100091186Y-72957634D02*
G01*
X100105892Y-72935126D01*
X100159038Y-72889769D01*
X100228269Y-72880345D01*
X100291605Y-72909847D01*
X100313510Y-72935126D01*
X100371016Y-73023147D01*
X100371019Y-73023151D01*
X100371021Y-73023153D01*
X100528216Y-73193913D01*
X100528219Y-73193915D01*
X100528222Y-73193918D01*
X100705818Y-73332147D01*
X100746631Y-73388857D01*
X100750306Y-73458630D01*
X100715674Y-73519313D01*
X100705818Y-73527853D01*
X100528222Y-73666081D01*
X100528219Y-73666084D01*
X100528216Y-73666086D01*
X100528216Y-73666087D01*
X100487260Y-73710578D01*
X100371015Y-73836854D01*
X100313509Y-73924874D01*
X100260363Y-73970230D01*
X100191132Y-73979654D01*
X100127796Y-73950152D01*
X100105892Y-73924873D01*
X100091186Y-73902364D01*
X99422962Y-74570589D01*
X99405925Y-74507007D01*
X99340099Y-74392993D01*
X99247007Y-74299901D01*
X99132993Y-74234075D01*
X99069409Y-74217037D01*
X99738797Y-73547647D01*
X99738797Y-73547646D01*
X99713367Y-73527853D01*
X99672555Y-73471143D01*
X99668880Y-73401370D01*
X99703512Y-73340687D01*
X99713366Y-73332148D01*
X99738797Y-73312352D01*
X99738798Y-73312350D01*
X99069410Y-72642962D01*
X99132993Y-72625925D01*
X99247007Y-72560099D01*
X99340099Y-72467007D01*
X99405925Y-72352993D01*
X99422962Y-72289410D01*
X100091186Y-72957634D01*
G37*
%TD.AperFunction*%
%TA.AperFunction,Conductor*%
G36*
X143442539Y-60020185D02*
G01*
X143488294Y-60072989D01*
X143499500Y-60124500D01*
X143499500Y-61168883D01*
X143479815Y-61235922D01*
X143427011Y-61281677D01*
X143357853Y-61291621D01*
X143294297Y-61262596D01*
X143282272Y-61250642D01*
X143154758Y-61105241D01*
X142932955Y-60910725D01*
X142687667Y-60746829D01*
X142687660Y-60746825D01*
X142423080Y-60616349D01*
X142143730Y-60521521D01*
X142143724Y-60521519D01*
X142143722Y-60521519D01*
X141854380Y-60463966D01*
X141854373Y-60463965D01*
X141854363Y-60463964D01*
X141560007Y-60444671D01*
X141559993Y-60444671D01*
X141265636Y-60463964D01*
X141265624Y-60463965D01*
X141265620Y-60463966D01*
X141265612Y-60463967D01*
X141265609Y-60463968D01*
X140976283Y-60521518D01*
X140976269Y-60521521D01*
X140696919Y-60616349D01*
X140432334Y-60746828D01*
X140187041Y-60910728D01*
X139965241Y-61105241D01*
X139770725Y-61327044D01*
X139607084Y-61571952D01*
X139553472Y-61616758D01*
X139484147Y-61625465D01*
X139421120Y-61595311D01*
X139399285Y-61569504D01*
X139251948Y-61337338D01*
X139251945Y-61337334D01*
X139051393Y-61094909D01*
X139051391Y-61094907D01*
X138822031Y-60879523D01*
X138822021Y-60879515D01*
X138567495Y-60694591D01*
X138567488Y-60694586D01*
X138567484Y-60694584D01*
X138291766Y-60543006D01*
X138291763Y-60543004D01*
X138291758Y-60543002D01*
X138291757Y-60543001D01*
X137999228Y-60427181D01*
X137999225Y-60427180D01*
X137694476Y-60348934D01*
X137694463Y-60348932D01*
X137382329Y-60309500D01*
X137382318Y-60309500D01*
X137067682Y-60309500D01*
X137067670Y-60309500D01*
X136755536Y-60348932D01*
X136755523Y-60348934D01*
X136450774Y-60427180D01*
X136450771Y-60427181D01*
X136158242Y-60543001D01*
X136158241Y-60543002D01*
X135882516Y-60694584D01*
X135882504Y-60694591D01*
X135627978Y-60879515D01*
X135627968Y-60879523D01*
X135398608Y-61094907D01*
X135398606Y-61094909D01*
X135198054Y-61337334D01*
X135198051Y-61337338D01*
X135029464Y-61602990D01*
X135029461Y-61602996D01*
X134895499Y-61887678D01*
X134895497Y-61887683D01*
X134798270Y-62186916D01*
X134739311Y-62495988D01*
X134739310Y-62495995D01*
X134719556Y-62809994D01*
X134719556Y-62810005D01*
X134739310Y-63124004D01*
X134739311Y-63124011D01*
X134798270Y-63433083D01*
X134895497Y-63732316D01*
X134895499Y-63732321D01*
X135029461Y-64017003D01*
X135029464Y-64017009D01*
X135198051Y-64282661D01*
X135198054Y-64282665D01*
X135398606Y-64525090D01*
X135398608Y-64525092D01*
X135398610Y-64525094D01*
X135564172Y-64680567D01*
X135627968Y-64740476D01*
X135627978Y-64740484D01*
X135882504Y-64925408D01*
X135882509Y-64925410D01*
X135882516Y-64925416D01*
X136158234Y-65076994D01*
X136158239Y-65076996D01*
X136158241Y-65076997D01*
X136158242Y-65076998D01*
X136450771Y-65192818D01*
X136450774Y-65192819D01*
X136755523Y-65271065D01*
X136755527Y-65271066D01*
X136805587Y-65277390D01*
X137067670Y-65310499D01*
X137067679Y-65310499D01*
X137067682Y-65310500D01*
X137067684Y-65310500D01*
X137382316Y-65310500D01*
X137382318Y-65310500D01*
X137382321Y-65310499D01*
X137382329Y-65310499D01*
X137570637Y-65286710D01*
X137694473Y-65271066D01*
X137999225Y-65192819D01*
X137999228Y-65192818D01*
X138291757Y-65076998D01*
X138291758Y-65076997D01*
X138291756Y-65076997D01*
X138291766Y-65076994D01*
X138567484Y-64925416D01*
X138822030Y-64740478D01*
X139051390Y-64525094D01*
X139251947Y-64282663D01*
X139420537Y-64017007D01*
X139456386Y-63940823D01*
X139502739Y-63888548D01*
X139569999Y-63869630D01*
X139636809Y-63890079D01*
X139671685Y-63924731D01*
X139770727Y-64072958D01*
X139965241Y-64294758D01*
X140187044Y-64489274D01*
X140312735Y-64573258D01*
X140432335Y-64653172D01*
X140696923Y-64783652D01*
X140976278Y-64878481D01*
X141265620Y-64936034D01*
X141293888Y-64937886D01*
X141559993Y-64955329D01*
X141560000Y-64955329D01*
X141560007Y-64955329D01*
X141795675Y-64939881D01*
X141854380Y-64936034D01*
X142143722Y-64878481D01*
X142423077Y-64783652D01*
X142687665Y-64653172D01*
X142932957Y-64489273D01*
X143154758Y-64294758D01*
X143225406Y-64214200D01*
X143282272Y-64149357D01*
X143341274Y-64111933D01*
X143411142Y-64112349D01*
X143469695Y-64150472D01*
X143498341Y-64214200D01*
X143499500Y-64231116D01*
X143499500Y-138875500D01*
X143479815Y-138942539D01*
X143427011Y-138988294D01*
X143375500Y-138999500D01*
X69624500Y-138999500D01*
X69557461Y-138979815D01*
X69511706Y-138927011D01*
X69500500Y-138875500D01*
X69500500Y-135402135D01*
X73074500Y-135402135D01*
X73074500Y-137197870D01*
X73074501Y-137197876D01*
X73080908Y-137257483D01*
X73131202Y-137392328D01*
X73131206Y-137392335D01*
X73217452Y-137507544D01*
X73217455Y-137507547D01*
X73332664Y-137593793D01*
X73332671Y-137593797D01*
X73467517Y-137644091D01*
X73467516Y-137644091D01*
X73474444Y-137644835D01*
X73527127Y-137650500D01*
X75322872Y-137650499D01*
X75382483Y-137644091D01*
X75517331Y-137593796D01*
X75632546Y-137507546D01*
X75718796Y-137392331D01*
X75767810Y-137260916D01*
X75809681Y-137204984D01*
X75875145Y-137180566D01*
X75943418Y-137195417D01*
X75971673Y-137216569D01*
X76093599Y-137338495D01*
X76190384Y-137406265D01*
X76287165Y-137474032D01*
X76287167Y-137474033D01*
X76287170Y-137474035D01*
X76501337Y-137573903D01*
X76729592Y-137635063D01*
X76906034Y-137650500D01*
X76964999Y-137655659D01*
X76965000Y-137655659D01*
X76965001Y-137655659D01*
X77023966Y-137650500D01*
X77200408Y-137635063D01*
X77428663Y-137573903D01*
X77642830Y-137474035D01*
X77836401Y-137338495D01*
X78003495Y-137171401D01*
X78139035Y-136977830D01*
X78238903Y-136763663D01*
X78300063Y-136535408D01*
X78320659Y-136300000D01*
X78300063Y-136064592D01*
X78238903Y-135836337D01*
X78139035Y-135622171D01*
X78111218Y-135582443D01*
X78003494Y-135428597D01*
X77836402Y-135261506D01*
X77836395Y-135261501D01*
X77642834Y-135125967D01*
X77642830Y-135125965D01*
X77642828Y-135125964D01*
X77428663Y-135026097D01*
X77428659Y-135026096D01*
X77428655Y-135026094D01*
X77200413Y-134964938D01*
X77200403Y-134964936D01*
X76965001Y-134944341D01*
X76964999Y-134944341D01*
X76729596Y-134964936D01*
X76729586Y-134964938D01*
X76501344Y-135026094D01*
X76501335Y-135026098D01*
X76287171Y-135125964D01*
X76287169Y-135125965D01*
X76093600Y-135261503D01*
X75971673Y-135383430D01*
X75910350Y-135416914D01*
X75840658Y-135411930D01*
X75784725Y-135370058D01*
X75767810Y-135339081D01*
X75718797Y-135207671D01*
X75718793Y-135207664D01*
X75632547Y-135092455D01*
X75632544Y-135092452D01*
X75517335Y-135006206D01*
X75517328Y-135006202D01*
X75382482Y-134955908D01*
X75382483Y-134955908D01*
X75322883Y-134949501D01*
X75322881Y-134949500D01*
X75322873Y-134949500D01*
X75322864Y-134949500D01*
X73527129Y-134949500D01*
X73527123Y-134949501D01*
X73467516Y-134955908D01*
X73332671Y-135006202D01*
X73332664Y-135006206D01*
X73217455Y-135092452D01*
X73217452Y-135092455D01*
X73131206Y-135207664D01*
X73131202Y-135207671D01*
X73080908Y-135342517D01*
X73074501Y-135402116D01*
X73074501Y-135402123D01*
X73074500Y-135402135D01*
X69500500Y-135402135D01*
X69500500Y-134939997D01*
X93415111Y-134939997D01*
X93415111Y-134940002D01*
X93434630Y-135163113D01*
X93434632Y-135163124D01*
X93492596Y-135379450D01*
X93492600Y-135379459D01*
X93587252Y-135582443D01*
X93587253Y-135582445D01*
X93635334Y-135651112D01*
X94217037Y-135069409D01*
X94234075Y-135132993D01*
X94299901Y-135247007D01*
X94392993Y-135340099D01*
X94507007Y-135405925D01*
X94570590Y-135422962D01*
X93988886Y-136004664D01*
X94057555Y-136052746D01*
X94260540Y-136147399D01*
X94260549Y-136147403D01*
X94476875Y-136205367D01*
X94476886Y-136205369D01*
X94699998Y-136224889D01*
X94700002Y-136224889D01*
X94923113Y-136205369D01*
X94923124Y-136205367D01*
X95139450Y-136147403D01*
X95139459Y-136147399D01*
X95342445Y-136052746D01*
X95342451Y-136052742D01*
X95411112Y-136004665D01*
X94829409Y-135422962D01*
X94892993Y-135405925D01*
X95007007Y-135340099D01*
X95100099Y-135247007D01*
X95165925Y-135132993D01*
X95182962Y-135069409D01*
X95764665Y-135651112D01*
X95812742Y-135582451D01*
X95812746Y-135582445D01*
X95907399Y-135379459D01*
X95907403Y-135379450D01*
X95965367Y-135163124D01*
X95965369Y-135163113D01*
X95984889Y-134940002D01*
X95984889Y-134939997D01*
X95965369Y-134716886D01*
X95965367Y-134716875D01*
X95907403Y-134500549D01*
X95907399Y-134500540D01*
X95812747Y-134297557D01*
X95812746Y-134297555D01*
X95764664Y-134228887D01*
X95764664Y-134228886D01*
X95182962Y-134810589D01*
X95165925Y-134747007D01*
X95100099Y-134632993D01*
X95007007Y-134539901D01*
X94892993Y-134474075D01*
X94829408Y-134457037D01*
X95174311Y-134112135D01*
X98419500Y-134112135D01*
X98419500Y-135767870D01*
X98419501Y-135767876D01*
X98425908Y-135827483D01*
X98476202Y-135962328D01*
X98476206Y-135962335D01*
X98562452Y-136077544D01*
X98562455Y-136077547D01*
X98677664Y-136163793D01*
X98677671Y-136163797D01*
X98812517Y-136214091D01*
X98812516Y-136214091D01*
X98819444Y-136214835D01*
X98872127Y-136220500D01*
X100527872Y-136220499D01*
X100587483Y-136214091D01*
X100722331Y-136163796D01*
X100837546Y-136077546D01*
X100923796Y-135962331D01*
X100974091Y-135827483D01*
X100980500Y-135767873D01*
X100980499Y-134699992D01*
X104304671Y-134699992D01*
X104304671Y-134700007D01*
X104323964Y-134994363D01*
X104323965Y-134994373D01*
X104323966Y-134994380D01*
X104378368Y-135267883D01*
X104381518Y-135283716D01*
X104381521Y-135283730D01*
X104476349Y-135563080D01*
X104606825Y-135827660D01*
X104606829Y-135827667D01*
X104770725Y-136072955D01*
X104965241Y-136294758D01*
X105187044Y-136489274D01*
X105256096Y-136535413D01*
X105432335Y-136653172D01*
X105696923Y-136783652D01*
X105976278Y-136878481D01*
X106265620Y-136936034D01*
X106293888Y-136937886D01*
X106559993Y-136955329D01*
X106560000Y-136955329D01*
X106560007Y-136955329D01*
X106795675Y-136939881D01*
X106854380Y-136936034D01*
X107143722Y-136878481D01*
X107423077Y-136783652D01*
X107687665Y-136653172D01*
X107932957Y-136489273D01*
X108148782Y-136299999D01*
X135379341Y-136299999D01*
X135379341Y-136300000D01*
X135399936Y-136535403D01*
X135399938Y-136535413D01*
X135461094Y-136763655D01*
X135461096Y-136763659D01*
X135461097Y-136763663D01*
X135514638Y-136878481D01*
X135560965Y-136977830D01*
X135560967Y-136977834D01*
X135669281Y-137132521D01*
X135696505Y-137171401D01*
X135863599Y-137338495D01*
X135960384Y-137406265D01*
X136057165Y-137474032D01*
X136057167Y-137474033D01*
X136057170Y-137474035D01*
X136271337Y-137573903D01*
X136499592Y-137635063D01*
X136676034Y-137650500D01*
X136734999Y-137655659D01*
X136735000Y-137655659D01*
X136735001Y-137655659D01*
X136793966Y-137650500D01*
X136970408Y-137635063D01*
X137198663Y-137573903D01*
X137412830Y-137474035D01*
X137606401Y-137338495D01*
X137728329Y-137216566D01*
X137789648Y-137183084D01*
X137859340Y-137188068D01*
X137915274Y-137229939D01*
X137932189Y-137260917D01*
X137981202Y-137392328D01*
X137981206Y-137392335D01*
X138067452Y-137507544D01*
X138067455Y-137507547D01*
X138182664Y-137593793D01*
X138182671Y-137593797D01*
X138317517Y-137644091D01*
X138317516Y-137644091D01*
X138324444Y-137644835D01*
X138377127Y-137650500D01*
X140172872Y-137650499D01*
X140232483Y-137644091D01*
X140367331Y-137593796D01*
X140482546Y-137507546D01*
X140568796Y-137392331D01*
X140619091Y-137257483D01*
X140625500Y-137197873D01*
X140625499Y-135402128D01*
X140619091Y-135342517D01*
X140618189Y-135340099D01*
X140568797Y-135207671D01*
X140568793Y-135207664D01*
X140482547Y-135092455D01*
X140482544Y-135092452D01*
X140367335Y-135006206D01*
X140367328Y-135006202D01*
X140232482Y-134955908D01*
X140232483Y-134955908D01*
X140172883Y-134949501D01*
X140172881Y-134949500D01*
X140172873Y-134949500D01*
X140172864Y-134949500D01*
X138377129Y-134949500D01*
X138377123Y-134949501D01*
X138317516Y-134955908D01*
X138182671Y-135006202D01*
X138182664Y-135006206D01*
X138067455Y-135092452D01*
X138067452Y-135092455D01*
X137981206Y-135207664D01*
X137981203Y-135207669D01*
X137932189Y-135339083D01*
X137890317Y-135395016D01*
X137824853Y-135419433D01*
X137756580Y-135404581D01*
X137728326Y-135383430D01*
X137606402Y-135261506D01*
X137606395Y-135261501D01*
X137412834Y-135125967D01*
X137412830Y-135125965D01*
X137412828Y-135125964D01*
X137198663Y-135026097D01*
X137198659Y-135026096D01*
X137198655Y-135026094D01*
X136970413Y-134964938D01*
X136970403Y-134964936D01*
X136735001Y-134944341D01*
X136734999Y-134944341D01*
X136499596Y-134964936D01*
X136499586Y-134964938D01*
X136271344Y-135026094D01*
X136271335Y-135026098D01*
X136057171Y-135125964D01*
X136057169Y-135125965D01*
X135863597Y-135261505D01*
X135696505Y-135428597D01*
X135560965Y-135622169D01*
X135560964Y-135622171D01*
X135461098Y-135836335D01*
X135461094Y-135836344D01*
X135399938Y-136064586D01*
X135399936Y-136064596D01*
X135379341Y-136299999D01*
X108148782Y-136299999D01*
X108154758Y-136294758D01*
X108349273Y-136072957D01*
X108513172Y-135827665D01*
X108643652Y-135563077D01*
X108738481Y-135283722D01*
X108796034Y-134994380D01*
X108801832Y-134905925D01*
X108815329Y-134700007D01*
X108815329Y-134699992D01*
X108798287Y-134439997D01*
X114715111Y-134439997D01*
X114715111Y-134440002D01*
X114734630Y-134663113D01*
X114734632Y-134663124D01*
X114792596Y-134879450D01*
X114792600Y-134879459D01*
X114887252Y-135082443D01*
X114887253Y-135082445D01*
X114935334Y-135151112D01*
X115517037Y-134569409D01*
X115534075Y-134632993D01*
X115599901Y-134747007D01*
X115692993Y-134840099D01*
X115807007Y-134905925D01*
X115870590Y-134922962D01*
X115288886Y-135504664D01*
X115357555Y-135552746D01*
X115560540Y-135647399D01*
X115560549Y-135647403D01*
X115776875Y-135705367D01*
X115776886Y-135705369D01*
X115999998Y-135724889D01*
X116000002Y-135724889D01*
X116223113Y-135705369D01*
X116223124Y-135705367D01*
X116439450Y-135647403D01*
X116439459Y-135647399D01*
X116642445Y-135552746D01*
X116642451Y-135552742D01*
X116711112Y-135504665D01*
X116129409Y-134922962D01*
X116192993Y-134905925D01*
X116307007Y-134840099D01*
X116400099Y-134747007D01*
X116465925Y-134632993D01*
X116482962Y-134569409D01*
X117064665Y-135151112D01*
X117112742Y-135082451D01*
X117112746Y-135082445D01*
X117207399Y-134879459D01*
X117207403Y-134879450D01*
X117265367Y-134663124D01*
X117265369Y-134663113D01*
X117284889Y-134440002D01*
X117284889Y-134439997D01*
X117265369Y-134216886D01*
X117265367Y-134216875D01*
X117207403Y-134000549D01*
X117207399Y-134000540D01*
X117112747Y-133797557D01*
X117112746Y-133797555D01*
X117064664Y-133728887D01*
X117064664Y-133728886D01*
X116482962Y-134310589D01*
X116465925Y-134247007D01*
X116400099Y-134132993D01*
X116307007Y-134039901D01*
X116192993Y-133974075D01*
X116129408Y-133957037D01*
X116474311Y-133612135D01*
X119719500Y-133612135D01*
X119719500Y-135267870D01*
X119719501Y-135267876D01*
X119725908Y-135327483D01*
X119776202Y-135462328D01*
X119776206Y-135462335D01*
X119862452Y-135577544D01*
X119862455Y-135577547D01*
X119977664Y-135663793D01*
X119977671Y-135663797D01*
X120112517Y-135714091D01*
X120112516Y-135714091D01*
X120119444Y-135714835D01*
X120172127Y-135720500D01*
X121827872Y-135720499D01*
X121887483Y-135714091D01*
X122022331Y-135663796D01*
X122137546Y-135577546D01*
X122223796Y-135462331D01*
X122274091Y-135327483D01*
X122280500Y-135267873D01*
X122280499Y-133612128D01*
X122274091Y-133552517D01*
X122223796Y-133417669D01*
X122223795Y-133417668D01*
X122223793Y-133417664D01*
X122137547Y-133302455D01*
X122137544Y-133302452D01*
X122022335Y-133216206D01*
X122022328Y-133216202D01*
X121887482Y-133165908D01*
X121887483Y-133165908D01*
X121827883Y-133159501D01*
X121827881Y-133159500D01*
X121827873Y-133159500D01*
X121827864Y-133159500D01*
X120172129Y-133159500D01*
X120172123Y-133159501D01*
X120112516Y-133165908D01*
X119977671Y-133216202D01*
X119977664Y-133216206D01*
X119862455Y-133302452D01*
X119862452Y-133302455D01*
X119776206Y-133417664D01*
X119776202Y-133417671D01*
X119725908Y-133552517D01*
X119719501Y-133612116D01*
X119719501Y-133612123D01*
X119719500Y-133612135D01*
X116474311Y-133612135D01*
X116711112Y-133375334D01*
X116711112Y-133375333D01*
X116642445Y-133327253D01*
X116642443Y-133327252D01*
X116439459Y-133232600D01*
X116439450Y-133232596D01*
X116223124Y-133174632D01*
X116223113Y-133174630D01*
X116000002Y-133155111D01*
X115999998Y-133155111D01*
X115776886Y-133174630D01*
X115776875Y-133174632D01*
X115560549Y-133232596D01*
X115560540Y-133232600D01*
X115357556Y-133327253D01*
X115288887Y-133375334D01*
X115870591Y-133957037D01*
X115807007Y-133974075D01*
X115692993Y-134039901D01*
X115599901Y-134132993D01*
X115534075Y-134247007D01*
X115517037Y-134310590D01*
X114935334Y-133728887D01*
X114887253Y-133797556D01*
X114792600Y-134000540D01*
X114792596Y-134000549D01*
X114734632Y-134216875D01*
X114734630Y-134216886D01*
X114715111Y-134439997D01*
X108798287Y-134439997D01*
X108796035Y-134405636D01*
X108796034Y-134405620D01*
X108738481Y-134116278D01*
X108643652Y-133836923D01*
X108513172Y-133572336D01*
X108499929Y-133552517D01*
X108409824Y-133417664D01*
X108349273Y-133327043D01*
X108306655Y-133278447D01*
X108154758Y-133105241D01*
X107932955Y-132910725D01*
X107687667Y-132746829D01*
X107687660Y-132746825D01*
X107423080Y-132616349D01*
X107143730Y-132521521D01*
X107143724Y-132521519D01*
X107143722Y-132521519D01*
X106854380Y-132463966D01*
X106854373Y-132463965D01*
X106854363Y-132463964D01*
X106560007Y-132444671D01*
X106559993Y-132444671D01*
X106265636Y-132463964D01*
X106265624Y-132463965D01*
X106265620Y-132463966D01*
X106265612Y-132463967D01*
X106265609Y-132463968D01*
X105976283Y-132521518D01*
X105976269Y-132521521D01*
X105696919Y-132616349D01*
X105432334Y-132746828D01*
X105187041Y-132910728D01*
X104965241Y-133105241D01*
X104770728Y-133327041D01*
X104606828Y-133572334D01*
X104476349Y-133836919D01*
X104381521Y-134116269D01*
X104381518Y-134116283D01*
X104323968Y-134405609D01*
X104323964Y-134405636D01*
X104304671Y-134699992D01*
X100980499Y-134699992D01*
X100980499Y-134112128D01*
X100974091Y-134052517D01*
X100954708Y-134000549D01*
X100923797Y-133917671D01*
X100923793Y-133917664D01*
X100837547Y-133802455D01*
X100837544Y-133802452D01*
X100722335Y-133716206D01*
X100722328Y-133716202D01*
X100587482Y-133665908D01*
X100587483Y-133665908D01*
X100527883Y-133659501D01*
X100527881Y-133659500D01*
X100527873Y-133659500D01*
X100527864Y-133659500D01*
X98872129Y-133659500D01*
X98872123Y-133659501D01*
X98812516Y-133665908D01*
X98677671Y-133716202D01*
X98677664Y-133716206D01*
X98562455Y-133802452D01*
X98562452Y-133802455D01*
X98476206Y-133917664D01*
X98476202Y-133917671D01*
X98425908Y-134052517D01*
X98422261Y-134086446D01*
X98419501Y-134112123D01*
X98419500Y-134112135D01*
X95174311Y-134112135D01*
X95411112Y-133875334D01*
X95411112Y-133875333D01*
X95342445Y-133827253D01*
X95342443Y-133827252D01*
X95139459Y-133732600D01*
X95139450Y-133732596D01*
X94923124Y-133674632D01*
X94923113Y-133674630D01*
X94700002Y-133655111D01*
X94699998Y-133655111D01*
X94476886Y-133674630D01*
X94476875Y-133674632D01*
X94260549Y-133732596D01*
X94260540Y-133732600D01*
X94057556Y-133827253D01*
X93988887Y-133875334D01*
X94570591Y-134457037D01*
X94507007Y-134474075D01*
X94392993Y-134539901D01*
X94299901Y-134632993D01*
X94234075Y-134747007D01*
X94217037Y-134810590D01*
X93635334Y-134228887D01*
X93587253Y-134297556D01*
X93492600Y-134500540D01*
X93492596Y-134500549D01*
X93434632Y-134716875D01*
X93434630Y-134716886D01*
X93415111Y-134939997D01*
X69500500Y-134939997D01*
X69500500Y-129939998D01*
X95914609Y-129939998D01*
X95914609Y-129940001D01*
X95934136Y-130163200D01*
X95934137Y-130163208D01*
X95992126Y-130379625D01*
X95992127Y-130379627D01*
X95992128Y-130379630D01*
X96073056Y-130553181D01*
X96086819Y-130582696D01*
X96086821Y-130582700D01*
X96215329Y-130766228D01*
X96215334Y-130766234D01*
X96373765Y-130924665D01*
X96373771Y-130924670D01*
X96557299Y-131053178D01*
X96557301Y-131053179D01*
X96557304Y-131053181D01*
X96760370Y-131147872D01*
X96976794Y-131205863D01*
X97136226Y-131219811D01*
X97199998Y-131225391D01*
X97200000Y-131225391D01*
X97200002Y-131225391D01*
X97255801Y-131220509D01*
X97423206Y-131205863D01*
X97639630Y-131147872D01*
X97842696Y-131053181D01*
X98026233Y-130924667D01*
X98184667Y-130766233D01*
X98313181Y-130582696D01*
X98407872Y-130379630D01*
X98465863Y-130163206D01*
X98485391Y-129940000D01*
X98465863Y-129716794D01*
X98407872Y-129500370D01*
X98379720Y-129439998D01*
X117214609Y-129439998D01*
X117214609Y-129440001D01*
X117234136Y-129663200D01*
X117234137Y-129663208D01*
X117292126Y-129879625D01*
X117292127Y-129879627D01*
X117292128Y-129879630D01*
X117386819Y-130082696D01*
X117386821Y-130082700D01*
X117515329Y-130266228D01*
X117515334Y-130266234D01*
X117673765Y-130424665D01*
X117673771Y-130424670D01*
X117857299Y-130553178D01*
X117857301Y-130553179D01*
X117857304Y-130553181D01*
X118060370Y-130647872D01*
X118276794Y-130705863D01*
X118436226Y-130719811D01*
X118499998Y-130725391D01*
X118500000Y-130725391D01*
X118500002Y-130725391D01*
X118555801Y-130720509D01*
X118723206Y-130705863D01*
X118939630Y-130647872D01*
X119142696Y-130553181D01*
X119326233Y-130424667D01*
X119484667Y-130266233D01*
X119613181Y-130082696D01*
X119707872Y-129879630D01*
X119765863Y-129663206D01*
X119785391Y-129440000D01*
X119765863Y-129216794D01*
X119707872Y-129000370D01*
X119613181Y-128797305D01*
X119484667Y-128613767D01*
X119326233Y-128455333D01*
X119326229Y-128455330D01*
X119326228Y-128455329D01*
X119142700Y-128326821D01*
X119142696Y-128326819D01*
X119131624Y-128321656D01*
X118939630Y-128232128D01*
X118939627Y-128232127D01*
X118939625Y-128232126D01*
X118723208Y-128174137D01*
X118723200Y-128174136D01*
X118500002Y-128154609D01*
X118499998Y-128154609D01*
X118276799Y-128174136D01*
X118276791Y-128174137D01*
X118060374Y-128232126D01*
X118060368Y-128232129D01*
X117857306Y-128326818D01*
X117857304Y-128326819D01*
X117673764Y-128455334D01*
X117515334Y-128613764D01*
X117386819Y-128797304D01*
X117386818Y-128797306D01*
X117292129Y-129000368D01*
X117292126Y-129000374D01*
X117234137Y-129216791D01*
X117234136Y-129216799D01*
X117214609Y-129439998D01*
X98379720Y-129439998D01*
X98313181Y-129297305D01*
X98184667Y-129113767D01*
X98026233Y-128955333D01*
X98026229Y-128955330D01*
X98026228Y-128955329D01*
X97842700Y-128826821D01*
X97842696Y-128826819D01*
X97779403Y-128797305D01*
X97639630Y-128732128D01*
X97639627Y-128732127D01*
X97639625Y-128732126D01*
X97423208Y-128674137D01*
X97423200Y-128674136D01*
X97200002Y-128654609D01*
X97199998Y-128654609D01*
X96976799Y-128674136D01*
X96976791Y-128674137D01*
X96760374Y-128732126D01*
X96760368Y-128732129D01*
X96557306Y-128826818D01*
X96557304Y-128826819D01*
X96373764Y-128955334D01*
X96215334Y-129113764D01*
X96086819Y-129297304D01*
X96086818Y-129297306D01*
X95992129Y-129500368D01*
X95992126Y-129500374D01*
X95934137Y-129716791D01*
X95934136Y-129716799D01*
X95914609Y-129939998D01*
X69500500Y-129939998D01*
X69500500Y-127799998D01*
X92594532Y-127799998D01*
X92594532Y-127800001D01*
X92614364Y-128026686D01*
X92614366Y-128026697D01*
X92673258Y-128246488D01*
X92673261Y-128246497D01*
X92769431Y-128452732D01*
X92769432Y-128452734D01*
X92899954Y-128639141D01*
X93060858Y-128800045D01*
X93060861Y-128800047D01*
X93247266Y-128930568D01*
X93453504Y-129026739D01*
X93673308Y-129085635D01*
X93835230Y-129099801D01*
X93899998Y-129105468D01*
X93900000Y-129105468D01*
X93900002Y-129105468D01*
X93956673Y-129100509D01*
X94126692Y-129085635D01*
X94346496Y-129026739D01*
X94403043Y-129000370D01*
X94428942Y-128988293D01*
X94437694Y-128984612D01*
X94461017Y-128975844D01*
X94487578Y-128961247D01*
X94494876Y-128957547D01*
X94517417Y-128947035D01*
X94552734Y-128930568D01*
X94581211Y-128910627D01*
X94592605Y-128903536D01*
X95408280Y-128455329D01*
X95571163Y-128365826D01*
X95630879Y-128350500D01*
X112273920Y-128350500D01*
X112392957Y-128326821D01*
X112418913Y-128321658D01*
X112555495Y-128265084D01*
X112604817Y-128232128D01*
X112678416Y-128182952D01*
X113248199Y-127613167D01*
X113265479Y-127598774D01*
X113279205Y-127589310D01*
X114300028Y-126645015D01*
X114307270Y-126638183D01*
X114307588Y-126637877D01*
X114350285Y-126591312D01*
X114350287Y-126591309D01*
X114351868Y-126589184D01*
X114363696Y-126575489D01*
X114365927Y-126573258D01*
X114400047Y-126539139D01*
X114530568Y-126352734D01*
X114626739Y-126146496D01*
X114685635Y-125926692D01*
X114705468Y-125700000D01*
X114705339Y-125698530D01*
X114691228Y-125537235D01*
X114685635Y-125473308D01*
X114626739Y-125253504D01*
X114530568Y-125047266D01*
X114400047Y-124860861D01*
X114400045Y-124860858D01*
X114239141Y-124699954D01*
X114052734Y-124569432D01*
X114052732Y-124569431D01*
X113846497Y-124473261D01*
X113846488Y-124473258D01*
X113626697Y-124414366D01*
X113626693Y-124414365D01*
X113626692Y-124414365D01*
X113626691Y-124414364D01*
X113626686Y-124414364D01*
X113400002Y-124394532D01*
X113399998Y-124394532D01*
X113173313Y-124414364D01*
X113173302Y-124414366D01*
X112953511Y-124473258D01*
X112953502Y-124473261D01*
X112747267Y-124569431D01*
X112747265Y-124569432D01*
X112560858Y-124699954D01*
X112399954Y-124860858D01*
X112269432Y-125047265D01*
X112269431Y-125047267D01*
X112173261Y-125253502D01*
X112173258Y-125253511D01*
X112114366Y-125473302D01*
X112114364Y-125473312D01*
X112095077Y-125693761D01*
X112094704Y-125696704D01*
X112094370Y-125700275D01*
X112094370Y-125700277D01*
X112093775Y-125727219D01*
X112082329Y-126245929D01*
X112074166Y-126615809D01*
X112053007Y-126682398D01*
X112037878Y-126700754D01*
X111925449Y-126813182D01*
X111864129Y-126846666D01*
X111837770Y-126849500D01*
X110350768Y-126849500D01*
X110298332Y-126834102D01*
X110273664Y-126847069D01*
X110249232Y-126849500D01*
X95553530Y-126849500D01*
X95525675Y-126846331D01*
X94363135Y-126578328D01*
X94348580Y-126574019D01*
X94346497Y-126573261D01*
X94126697Y-126514366D01*
X94126693Y-126514365D01*
X94126692Y-126514365D01*
X94126691Y-126514364D01*
X94126686Y-126514364D01*
X93900002Y-126494532D01*
X93899998Y-126494532D01*
X93673313Y-126514364D01*
X93673302Y-126514366D01*
X93453511Y-126573258D01*
X93453502Y-126573261D01*
X93247267Y-126669431D01*
X93247265Y-126669432D01*
X93060858Y-126799954D01*
X92899954Y-126960858D01*
X92769432Y-127147265D01*
X92769431Y-127147267D01*
X92673261Y-127353502D01*
X92673258Y-127353511D01*
X92614366Y-127573302D01*
X92614364Y-127573313D01*
X92594532Y-127799998D01*
X69500500Y-127799998D01*
X69500500Y-126392498D01*
X80514437Y-126392498D01*
X80514437Y-126392501D01*
X80534650Y-126623544D01*
X80534651Y-126623551D01*
X80594678Y-126847574D01*
X80594679Y-126847576D01*
X80594680Y-126847579D01*
X80692699Y-127057782D01*
X80825730Y-127247769D01*
X80989731Y-127411770D01*
X81179718Y-127544801D01*
X81389921Y-127642820D01*
X81613950Y-127702849D01*
X81778985Y-127717287D01*
X81844998Y-127723063D01*
X81845000Y-127723063D01*
X81845002Y-127723063D01*
X81902762Y-127718009D01*
X82076050Y-127702849D01*
X82300079Y-127642820D01*
X82510282Y-127544801D01*
X82700269Y-127411770D01*
X82864270Y-127247769D01*
X82993427Y-127063314D01*
X83048002Y-127019692D01*
X83117501Y-127012499D01*
X83179855Y-127044021D01*
X83196569Y-127063309D01*
X83325730Y-127247769D01*
X83489731Y-127411770D01*
X83679718Y-127544801D01*
X83889921Y-127642820D01*
X84113950Y-127702849D01*
X84278985Y-127717287D01*
X84344998Y-127723063D01*
X84345000Y-127723063D01*
X84345002Y-127723063D01*
X84402762Y-127718009D01*
X84576050Y-127702849D01*
X84800079Y-127642820D01*
X85010282Y-127544801D01*
X85200269Y-127411770D01*
X85364270Y-127247769D01*
X85493731Y-127062879D01*
X85548307Y-127019257D01*
X85617806Y-127012064D01*
X85680160Y-127043586D01*
X85696880Y-127062882D01*
X85748023Y-127135922D01*
X85748023Y-127135923D01*
X86321212Y-126562733D01*
X86332482Y-126604792D01*
X86404890Y-126730208D01*
X86507292Y-126832610D01*
X86632708Y-126905018D01*
X86674765Y-126916287D01*
X86101575Y-127489475D01*
X86179973Y-127544368D01*
X86390090Y-127642347D01*
X86390099Y-127642351D01*
X86614031Y-127702352D01*
X86614041Y-127702354D01*
X86844999Y-127722561D01*
X86845001Y-127722561D01*
X87075958Y-127702354D01*
X87075968Y-127702352D01*
X87299900Y-127642351D01*
X87299909Y-127642347D01*
X87510030Y-127544367D01*
X87588423Y-127489475D01*
X87015234Y-126916287D01*
X87057292Y-126905018D01*
X87182708Y-126832610D01*
X87285110Y-126730208D01*
X87357518Y-126604792D01*
X87368787Y-126562735D01*
X87941975Y-127135923D01*
X87996867Y-127057530D01*
X88094847Y-126847409D01*
X88094851Y-126847400D01*
X88154852Y-126623468D01*
X88154854Y-126623458D01*
X88175061Y-126392500D01*
X88175061Y-126392499D01*
X88154854Y-126161541D01*
X88154852Y-126161531D01*
X88094851Y-125937599D01*
X88094847Y-125937590D01*
X87996868Y-125727472D01*
X87941974Y-125649076D01*
X87368787Y-126222264D01*
X87357518Y-126180208D01*
X87285110Y-126054792D01*
X87182708Y-125952390D01*
X87057292Y-125879982D01*
X87015233Y-125868712D01*
X87588423Y-125295523D01*
X87510031Y-125240633D01*
X87510029Y-125240632D01*
X87299909Y-125142652D01*
X87299900Y-125142648D01*
X87075968Y-125082647D01*
X87075958Y-125082645D01*
X86845001Y-125062439D01*
X86844999Y-125062439D01*
X86614041Y-125082645D01*
X86614031Y-125082647D01*
X86390099Y-125142648D01*
X86390090Y-125142652D01*
X86179974Y-125240631D01*
X86101576Y-125295524D01*
X86674765Y-125868712D01*
X86632708Y-125879982D01*
X86507292Y-125952390D01*
X86404890Y-126054792D01*
X86332482Y-126180208D01*
X86321212Y-126222265D01*
X85748024Y-125649076D01*
X85748023Y-125649076D01*
X85696880Y-125722118D01*
X85642304Y-125765743D01*
X85572805Y-125772937D01*
X85510450Y-125741414D01*
X85493730Y-125722119D01*
X85469489Y-125687499D01*
X85364270Y-125537231D01*
X85200269Y-125373230D01*
X85010282Y-125240199D01*
X84800079Y-125142180D01*
X84800076Y-125142179D01*
X84800074Y-125142178D01*
X84576051Y-125082151D01*
X84576044Y-125082150D01*
X84345002Y-125061937D01*
X84344998Y-125061937D01*
X84113955Y-125082150D01*
X84113948Y-125082151D01*
X83889917Y-125142181D01*
X83679718Y-125240199D01*
X83679714Y-125240201D01*
X83489735Y-125373226D01*
X83489729Y-125373231D01*
X83325731Y-125537229D01*
X83325726Y-125537235D01*
X83196575Y-125721683D01*
X83141998Y-125765308D01*
X83072500Y-125772502D01*
X83010145Y-125740979D01*
X82993425Y-125721683D01*
X82864273Y-125537235D01*
X82864268Y-125537229D01*
X82700269Y-125373230D01*
X82673144Y-125354237D01*
X82510282Y-125240199D01*
X82300079Y-125142180D01*
X82300076Y-125142179D01*
X82300074Y-125142178D01*
X82076051Y-125082151D01*
X82076044Y-125082150D01*
X81845002Y-125061937D01*
X81844998Y-125061937D01*
X81613955Y-125082150D01*
X81613948Y-125082151D01*
X81389917Y-125142181D01*
X81179718Y-125240199D01*
X81179714Y-125240201D01*
X80989735Y-125373226D01*
X80989729Y-125373231D01*
X80825731Y-125537229D01*
X80825726Y-125537235D01*
X80692701Y-125727214D01*
X80692699Y-125727218D01*
X80594681Y-125937417D01*
X80534651Y-126161448D01*
X80534650Y-126161455D01*
X80514437Y-126392498D01*
X69500500Y-126392498D01*
X69500500Y-120912494D01*
X72614443Y-120912494D01*
X72614443Y-120912505D01*
X72634634Y-121156183D01*
X72634636Y-121156195D01*
X72694663Y-121393234D01*
X72792888Y-121617166D01*
X72926632Y-121821878D01*
X73092242Y-122001777D01*
X73092252Y-122001786D01*
X73124258Y-122026697D01*
X73285212Y-122151973D01*
X73500267Y-122268355D01*
X73500270Y-122268356D01*
X73731541Y-122347751D01*
X73731543Y-122347751D01*
X73731545Y-122347752D01*
X73972737Y-122388000D01*
X73972738Y-122388000D01*
X74217262Y-122388000D01*
X74217263Y-122388000D01*
X74458455Y-122347752D01*
X74689733Y-122268355D01*
X74904788Y-122151973D01*
X75097754Y-122001781D01*
X75263368Y-121821877D01*
X75397111Y-121617167D01*
X75495336Y-121393236D01*
X75555364Y-121156192D01*
X75575557Y-120912500D01*
X75575557Y-120912494D01*
X77114443Y-120912494D01*
X77114443Y-120912505D01*
X77134634Y-121156183D01*
X77134636Y-121156195D01*
X77194663Y-121393234D01*
X77292888Y-121617166D01*
X77426632Y-121821878D01*
X77592242Y-122001777D01*
X77592252Y-122001786D01*
X77624258Y-122026697D01*
X77785212Y-122151973D01*
X78000267Y-122268355D01*
X78231545Y-122347752D01*
X78329227Y-122364052D01*
X78392113Y-122394502D01*
X78428552Y-122454117D01*
X78426977Y-122523969D01*
X78387888Y-122581881D01*
X78378670Y-122588814D01*
X78331813Y-122620760D01*
X78331813Y-122620761D01*
X78982705Y-123271653D01*
X78966058Y-123278549D01*
X78835030Y-123366099D01*
X78723599Y-123477530D01*
X78636049Y-123608558D01*
X78629153Y-123625206D01*
X77978453Y-122974506D01*
X77936455Y-123027170D01*
X77809058Y-123247828D01*
X77715973Y-123485005D01*
X77715968Y-123485022D01*
X77659273Y-123733420D01*
X77640233Y-123987495D01*
X77640233Y-123987504D01*
X77659273Y-124241579D01*
X77715968Y-124489977D01*
X77715973Y-124489994D01*
X77809058Y-124727171D01*
X77809057Y-124727171D01*
X77936457Y-124947832D01*
X77978452Y-125000493D01*
X78629152Y-124349792D01*
X78636049Y-124366442D01*
X78723599Y-124497470D01*
X78835030Y-124608901D01*
X78966058Y-124696451D01*
X78982705Y-124703346D01*
X78331813Y-125354237D01*
X78492623Y-125463875D01*
X78492624Y-125463876D01*
X78722176Y-125574421D01*
X78722174Y-125574421D01*
X78965652Y-125649524D01*
X78965658Y-125649526D01*
X79217595Y-125687499D01*
X79217604Y-125687500D01*
X79472396Y-125687500D01*
X79472404Y-125687499D01*
X79724341Y-125649526D01*
X79724347Y-125649524D01*
X79967824Y-125574421D01*
X80197381Y-125463873D01*
X80358185Y-125354237D01*
X79707294Y-124703346D01*
X79723942Y-124696451D01*
X79854970Y-124608901D01*
X79966401Y-124497470D01*
X80053951Y-124366442D01*
X80060846Y-124349794D01*
X80711545Y-125000493D01*
X80753545Y-124947827D01*
X80880941Y-124727171D01*
X80974026Y-124489994D01*
X80974031Y-124489977D01*
X81030726Y-124241579D01*
X81049767Y-123987504D01*
X81049767Y-123987495D01*
X87640233Y-123987495D01*
X87640233Y-123987504D01*
X87659273Y-124241579D01*
X87715968Y-124489977D01*
X87715973Y-124489994D01*
X87809058Y-124727171D01*
X87809057Y-124727171D01*
X87936457Y-124947832D01*
X87978452Y-125000493D01*
X88629152Y-124349792D01*
X88636049Y-124366442D01*
X88723599Y-124497470D01*
X88835030Y-124608901D01*
X88966058Y-124696451D01*
X88982705Y-124703346D01*
X88331813Y-125354237D01*
X88492623Y-125463875D01*
X88492624Y-125463876D01*
X88722176Y-125574421D01*
X88722174Y-125574421D01*
X88965652Y-125649524D01*
X88965658Y-125649526D01*
X89217595Y-125687499D01*
X89217604Y-125687500D01*
X89472396Y-125687500D01*
X89472404Y-125687499D01*
X89724341Y-125649526D01*
X89724347Y-125649524D01*
X89967824Y-125574421D01*
X90197381Y-125463873D01*
X90358185Y-125354237D01*
X89707294Y-124703346D01*
X89723942Y-124696451D01*
X89854970Y-124608901D01*
X89966401Y-124497470D01*
X90053951Y-124366442D01*
X90060846Y-124349794D01*
X90711545Y-125000493D01*
X90753545Y-124947827D01*
X90880941Y-124727171D01*
X90974026Y-124489994D01*
X90974031Y-124489977D01*
X91030726Y-124241579D01*
X91049767Y-123987504D01*
X91049767Y-123987495D01*
X91048750Y-123973920D01*
X96349499Y-123973920D01*
X96378340Y-124118907D01*
X96378343Y-124118917D01*
X96434913Y-124255490D01*
X96434917Y-124255497D01*
X96441151Y-124264826D01*
X96441153Y-124264833D01*
X96441155Y-124264832D01*
X96509047Y-124366442D01*
X96517051Y-124378420D01*
X98021578Y-125882947D01*
X98021585Y-125882953D01*
X98087042Y-125926689D01*
X98087044Y-125926690D01*
X98087047Y-125926692D01*
X98144505Y-125965084D01*
X98281087Y-126021658D01*
X98281091Y-126021658D01*
X98281092Y-126021659D01*
X98426079Y-126050500D01*
X98426082Y-126050500D01*
X98426083Y-126050500D01*
X98573917Y-126050500D01*
X108571766Y-126050500D01*
X108615610Y-126058510D01*
X109804513Y-126507942D01*
X109826470Y-126515121D01*
X109840330Y-126520596D01*
X109853502Y-126526738D01*
X109853504Y-126526739D01*
X110073308Y-126585635D01*
X110215262Y-126598054D01*
X110260039Y-126601972D01*
X110299124Y-126617260D01*
X110315833Y-126606523D01*
X110339961Y-126601972D01*
X110378828Y-126598571D01*
X110526692Y-126585635D01*
X110746496Y-126526739D01*
X110952734Y-126430568D01*
X111139139Y-126300047D01*
X111300047Y-126139139D01*
X111430568Y-125952734D01*
X111526739Y-125746496D01*
X111585635Y-125526692D01*
X111605468Y-125300000D01*
X111605076Y-125295524D01*
X111591701Y-125142648D01*
X111585635Y-125073308D01*
X111528710Y-124860861D01*
X111526741Y-124853511D01*
X111526738Y-124853502D01*
X111514258Y-124826738D01*
X111430568Y-124647266D01*
X111310297Y-124475499D01*
X111300045Y-124460858D01*
X111139141Y-124299954D01*
X110952734Y-124169432D01*
X110952732Y-124169431D01*
X110746497Y-124073261D01*
X110746488Y-124073258D01*
X110526697Y-124014366D01*
X110526693Y-124014365D01*
X110526692Y-124014365D01*
X110526691Y-124014364D01*
X110526686Y-124014364D01*
X110300002Y-123994532D01*
X110299998Y-123994532D01*
X110073313Y-124014364D01*
X110073302Y-124014366D01*
X109853502Y-124073261D01*
X109833371Y-124082648D01*
X109807879Y-124091309D01*
X109804525Y-124092054D01*
X109804499Y-124092062D01*
X108615609Y-124541489D01*
X108571763Y-124549500D01*
X102476161Y-124549500D01*
X102409122Y-124529815D01*
X102363367Y-124477011D01*
X102353423Y-124407853D01*
X102382448Y-124344297D01*
X102405038Y-124323925D01*
X102419466Y-124313821D01*
X102439139Y-124300047D01*
X102600047Y-124139139D01*
X102730568Y-123952734D01*
X102784336Y-123837425D01*
X102792090Y-123823286D01*
X102804505Y-123803781D01*
X103327391Y-122645301D01*
X103352726Y-122608640D01*
X104161368Y-121799998D01*
X115594532Y-121799998D01*
X115594532Y-121800001D01*
X115614364Y-122026686D01*
X115614366Y-122026697D01*
X115673258Y-122246488D01*
X115673261Y-122246497D01*
X115769431Y-122452732D01*
X115769432Y-122452734D01*
X115899954Y-122639141D01*
X116060858Y-122800045D01*
X116060861Y-122800047D01*
X116247266Y-122930568D01*
X116330132Y-122969209D01*
X116353149Y-122983166D01*
X116355339Y-122984844D01*
X116355654Y-122985085D01*
X117452192Y-123600001D01*
X117459270Y-123603970D01*
X117486300Y-123624444D01*
X118019955Y-124158099D01*
X118082707Y-124220851D01*
X118141902Y-124280046D01*
X118285288Y-124375854D01*
X118285301Y-124375861D01*
X118438069Y-124439139D01*
X118444626Y-124441855D01*
X118602500Y-124473258D01*
X118613766Y-124475499D01*
X118613769Y-124475500D01*
X118613771Y-124475500D01*
X119195347Y-124475500D01*
X119228937Y-124480136D01*
X120433015Y-124818977D01*
X120451826Y-124825957D01*
X120453276Y-124826633D01*
X120453504Y-124826739D01*
X120673308Y-124885635D01*
X120835230Y-124899801D01*
X120899998Y-124905468D01*
X120900000Y-124905468D01*
X120900002Y-124905468D01*
X120956673Y-124900509D01*
X121126692Y-124885635D01*
X121346496Y-124826739D01*
X121552734Y-124730568D01*
X121739139Y-124600047D01*
X121900047Y-124439139D01*
X122030568Y-124252734D01*
X122126739Y-124046496D01*
X122185635Y-123826692D01*
X122205468Y-123600000D01*
X122185635Y-123373308D01*
X122126739Y-123153504D01*
X122030568Y-122947266D01*
X121900047Y-122760861D01*
X121900045Y-122760858D01*
X121739141Y-122599954D01*
X121552734Y-122469432D01*
X121552732Y-122469431D01*
X121346497Y-122373261D01*
X121346488Y-122373258D01*
X121126697Y-122314366D01*
X121126693Y-122314365D01*
X121126692Y-122314365D01*
X121126691Y-122314364D01*
X121126686Y-122314364D01*
X120900002Y-122294532D01*
X120899998Y-122294532D01*
X120673313Y-122314364D01*
X120673302Y-122314366D01*
X120453503Y-122373261D01*
X120453500Y-122373262D01*
X120451830Y-122374041D01*
X120433022Y-122381020D01*
X119228932Y-122719864D01*
X119195342Y-122724500D01*
X119114006Y-122724500D01*
X119046967Y-122704815D01*
X119026325Y-122688181D01*
X118724444Y-122386300D01*
X118703970Y-122359270D01*
X118697511Y-122347752D01*
X118085085Y-121255654D01*
X118072881Y-121235052D01*
X118072877Y-121235047D01*
X118070248Y-121230609D01*
X118070627Y-121230384D01*
X118064105Y-121219187D01*
X118030568Y-121147266D01*
X117900047Y-120960861D01*
X117900045Y-120960858D01*
X117739141Y-120799954D01*
X117552734Y-120669432D01*
X117552732Y-120669431D01*
X117346497Y-120573261D01*
X117346488Y-120573258D01*
X117126697Y-120514366D01*
X117126693Y-120514365D01*
X117126692Y-120514365D01*
X117126691Y-120514364D01*
X117126686Y-120514364D01*
X116900002Y-120494532D01*
X116899998Y-120494532D01*
X116673313Y-120514364D01*
X116673302Y-120514366D01*
X116453511Y-120573258D01*
X116453502Y-120573261D01*
X116247267Y-120669431D01*
X116247265Y-120669432D01*
X116060858Y-120799954D01*
X115899954Y-120960858D01*
X115769432Y-121147265D01*
X115769431Y-121147267D01*
X115673261Y-121353502D01*
X115673258Y-121353511D01*
X115614366Y-121573302D01*
X115614364Y-121573313D01*
X115594532Y-121799998D01*
X104161368Y-121799998D01*
X113382952Y-112578416D01*
X113444945Y-112485635D01*
X113465084Y-112455495D01*
X113521658Y-112318913D01*
X113524776Y-112303235D01*
X113548872Y-112250839D01*
X113756826Y-111986069D01*
X113762534Y-111978441D01*
X113774136Y-111965049D01*
X113800045Y-111939141D01*
X113800045Y-111939140D01*
X113800047Y-111939139D01*
X113930568Y-111752734D01*
X113965821Y-111677135D01*
X115324500Y-111677135D01*
X115324500Y-113122870D01*
X115324501Y-113122876D01*
X115330908Y-113182483D01*
X115381202Y-113317328D01*
X115381206Y-113317335D01*
X115467452Y-113432544D01*
X115467455Y-113432547D01*
X115582664Y-113518793D01*
X115582671Y-113518797D01*
X115717517Y-113569091D01*
X115717516Y-113569091D01*
X115724444Y-113569835D01*
X115777127Y-113575500D01*
X117222872Y-113575499D01*
X117282483Y-113569091D01*
X117417331Y-113518796D01*
X117532546Y-113432546D01*
X117618796Y-113317331D01*
X117669091Y-113182483D01*
X117675500Y-113122873D01*
X117675499Y-111677128D01*
X117669091Y-111617517D01*
X117642602Y-111546497D01*
X117618797Y-111482671D01*
X117618793Y-111482664D01*
X117532547Y-111367455D01*
X117532544Y-111367452D01*
X117417335Y-111281206D01*
X117417328Y-111281202D01*
X117282482Y-111230908D01*
X117282483Y-111230908D01*
X117222883Y-111224501D01*
X117222881Y-111224500D01*
X117222873Y-111224500D01*
X117222864Y-111224500D01*
X115777129Y-111224500D01*
X115777123Y-111224501D01*
X115717516Y-111230908D01*
X115582671Y-111281202D01*
X115582664Y-111281206D01*
X115467455Y-111367452D01*
X115467452Y-111367455D01*
X115381206Y-111482664D01*
X115381202Y-111482671D01*
X115330908Y-111617517D01*
X115327794Y-111646488D01*
X115324501Y-111677123D01*
X115324500Y-111677135D01*
X113965821Y-111677135D01*
X114026739Y-111546496D01*
X114085635Y-111326692D01*
X114105468Y-111100000D01*
X114104017Y-111083420D01*
X114099801Y-111035230D01*
X114085635Y-110873308D01*
X114026739Y-110653504D01*
X113930568Y-110447266D01*
X113800047Y-110260861D01*
X113800045Y-110260858D01*
X113639141Y-110099954D01*
X113452734Y-109969432D01*
X113452732Y-109969431D01*
X113246497Y-109873261D01*
X113246488Y-109873258D01*
X113026697Y-109814366D01*
X113026693Y-109814365D01*
X113026692Y-109814365D01*
X113026691Y-109814364D01*
X113026686Y-109814364D01*
X112800002Y-109794532D01*
X112799998Y-109794532D01*
X112573313Y-109814364D01*
X112573302Y-109814366D01*
X112353511Y-109873258D01*
X112353502Y-109873261D01*
X112147267Y-109969431D01*
X112147265Y-109969432D01*
X111960858Y-110099954D01*
X111799954Y-110260858D01*
X111669432Y-110447265D01*
X111669431Y-110447267D01*
X111573261Y-110653502D01*
X111573258Y-110653511D01*
X111514366Y-110873302D01*
X111514364Y-110873313D01*
X111494532Y-111099998D01*
X111494532Y-111100000D01*
X111503280Y-111199998D01*
X111514365Y-111326692D01*
X111517260Y-111337495D01*
X111537161Y-111411773D01*
X111539838Y-111424335D01*
X111650156Y-112116034D01*
X111641276Y-112185337D01*
X111615385Y-112223245D01*
X102291365Y-121547265D01*
X102254697Y-121572605D01*
X101557659Y-121887220D01*
X101096229Y-122095488D01*
X101055271Y-122116263D01*
X101050336Y-122119382D01*
X101050155Y-122119095D01*
X101033625Y-122129160D01*
X100947267Y-122169430D01*
X100947264Y-122169432D01*
X100760858Y-122299954D01*
X100599954Y-122460858D01*
X100469432Y-122647265D01*
X100469431Y-122647267D01*
X100373261Y-122853502D01*
X100373258Y-122853511D01*
X100314366Y-123073302D01*
X100314364Y-123073313D01*
X100294532Y-123299998D01*
X100294532Y-123300001D01*
X100314364Y-123526686D01*
X100314366Y-123526697D01*
X100373258Y-123746488D01*
X100373261Y-123746497D01*
X100469431Y-123952732D01*
X100469432Y-123952734D01*
X100599954Y-124139141D01*
X100760858Y-124300045D01*
X100794962Y-124323925D01*
X100838587Y-124378502D01*
X100845781Y-124448000D01*
X100814258Y-124510355D01*
X100754029Y-124545769D01*
X100723839Y-124549500D01*
X98862230Y-124549500D01*
X98795191Y-124529815D01*
X98774549Y-124513181D01*
X97886819Y-123625451D01*
X97853334Y-123564128D01*
X97850500Y-123537770D01*
X97850500Y-109862230D01*
X97870185Y-109795191D01*
X97886819Y-109774549D01*
X98774549Y-108886819D01*
X98835872Y-108853334D01*
X98862230Y-108850500D01*
X99869008Y-108850500D01*
X99936047Y-108870185D01*
X99981802Y-108922989D01*
X99991746Y-108992147D01*
X99971852Y-109042415D01*
X99972138Y-109042580D01*
X99971022Y-109044512D01*
X99970583Y-109045621D01*
X99969870Y-109046640D01*
X99969430Y-109047268D01*
X99873261Y-109253502D01*
X99873258Y-109253511D01*
X99814366Y-109473302D01*
X99814364Y-109473313D01*
X99794532Y-109699998D01*
X99794532Y-109700001D01*
X99814364Y-109926686D01*
X99814366Y-109926697D01*
X99873258Y-110146488D01*
X99873261Y-110146497D01*
X99969431Y-110352732D01*
X99969432Y-110352734D01*
X100099954Y-110539141D01*
X100260858Y-110700045D01*
X100260861Y-110700047D01*
X100447266Y-110830568D01*
X100538910Y-110873302D01*
X100562543Y-110884322D01*
X100576718Y-110892094D01*
X100596218Y-110904505D01*
X101754695Y-111427391D01*
X101791362Y-111452730D01*
X102917049Y-112578416D01*
X103021584Y-112682951D01*
X103021587Y-112682953D01*
X103021588Y-112682954D01*
X103144503Y-112765083D01*
X103144506Y-112765085D01*
X103201079Y-112788518D01*
X103201080Y-112788518D01*
X103281088Y-112821659D01*
X103397241Y-112844763D01*
X103416468Y-112848587D01*
X103426081Y-112850500D01*
X103426082Y-112850500D01*
X103426083Y-112850500D01*
X103573918Y-112850500D01*
X108158954Y-112850500D01*
X108168527Y-112850870D01*
X108169489Y-112850944D01*
X108175501Y-112851410D01*
X108175744Y-112851380D01*
X108175778Y-112851377D01*
X108190499Y-112850500D01*
X108573920Y-112850500D01*
X108671462Y-112831096D01*
X108718913Y-112821658D01*
X108798920Y-112788518D01*
X108855491Y-112765086D01*
X108855492Y-112765085D01*
X108855495Y-112765084D01*
X108906718Y-112730858D01*
X108978416Y-112682952D01*
X108989758Y-112671608D01*
X109045342Y-112639514D01*
X109605657Y-112489366D01*
X109621355Y-112486599D01*
X109621352Y-112486577D01*
X109626683Y-112485636D01*
X109626684Y-112485635D01*
X109626692Y-112485635D01*
X109846496Y-112426739D01*
X109892736Y-112405175D01*
X109895335Y-112404001D01*
X109936481Y-112386001D01*
X109936488Y-112385995D01*
X109942204Y-112382670D01*
X109952138Y-112377476D01*
X110052734Y-112330568D01*
X110239139Y-112200047D01*
X110400047Y-112039139D01*
X110530568Y-111852734D01*
X110626739Y-111646496D01*
X110685635Y-111426692D01*
X110705468Y-111200000D01*
X110685635Y-110973308D01*
X110626739Y-110753504D01*
X110530568Y-110547266D01*
X110400047Y-110360861D01*
X110400045Y-110360858D01*
X110239141Y-110199954D01*
X110052734Y-110069432D01*
X110052732Y-110069431D01*
X109846497Y-109973261D01*
X109846488Y-109973258D01*
X109626697Y-109914366D01*
X109626693Y-109914365D01*
X109626692Y-109914365D01*
X109626691Y-109914364D01*
X109626686Y-109914364D01*
X109400002Y-109894532D01*
X109399998Y-109894532D01*
X109173313Y-109914364D01*
X109173302Y-109914366D01*
X108953511Y-109973258D01*
X108953502Y-109973261D01*
X108747267Y-110069431D01*
X108747265Y-110069432D01*
X108560858Y-110199954D01*
X108399954Y-110360858D01*
X108269431Y-110547266D01*
X108224427Y-110643778D01*
X108213342Y-110662891D01*
X108205759Y-110673630D01*
X108205757Y-110673634D01*
X107895598Y-111281206D01*
X107895254Y-111281879D01*
X107847240Y-111332639D01*
X107784812Y-111349500D01*
X105739049Y-111349500D01*
X105672010Y-111329815D01*
X105626255Y-111277011D01*
X105616311Y-111207853D01*
X105645336Y-111144297D01*
X105651368Y-111137819D01*
X105750045Y-111039141D01*
X105750047Y-111039139D01*
X105880568Y-110852734D01*
X105976739Y-110646496D01*
X106035635Y-110426692D01*
X106055468Y-110200000D01*
X106053935Y-110182483D01*
X106048721Y-110122883D01*
X106035635Y-109973308D01*
X105976739Y-109753504D01*
X105880568Y-109547266D01*
X105750047Y-109360861D01*
X105750045Y-109360858D01*
X105589141Y-109199954D01*
X105402735Y-109069433D01*
X105402736Y-109069433D01*
X105402734Y-109069432D01*
X105300133Y-109021588D01*
X105287453Y-109015675D01*
X105273285Y-109007906D01*
X105253785Y-108995496D01*
X105253780Y-108995493D01*
X104548444Y-108677135D01*
X115224500Y-108677135D01*
X115224500Y-110122870D01*
X115224501Y-110122876D01*
X115230908Y-110182483D01*
X115281202Y-110317328D01*
X115281206Y-110317335D01*
X115367452Y-110432544D01*
X115367455Y-110432547D01*
X115482664Y-110518793D01*
X115482671Y-110518797D01*
X115617517Y-110569091D01*
X115617516Y-110569091D01*
X115624444Y-110569835D01*
X115677127Y-110575500D01*
X117122872Y-110575499D01*
X117182483Y-110569091D01*
X117317331Y-110518796D01*
X117432546Y-110432546D01*
X117518796Y-110317331D01*
X117569091Y-110182483D01*
X117575500Y-110122873D01*
X117575499Y-108677128D01*
X117569091Y-108617517D01*
X117518796Y-108482669D01*
X117518795Y-108482668D01*
X117518793Y-108482664D01*
X117432547Y-108367455D01*
X117432544Y-108367452D01*
X117317335Y-108281206D01*
X117317328Y-108281202D01*
X117182482Y-108230908D01*
X117182483Y-108230908D01*
X117122883Y-108224501D01*
X117122881Y-108224500D01*
X117122873Y-108224500D01*
X117122864Y-108224500D01*
X115677129Y-108224500D01*
X115677123Y-108224501D01*
X115617516Y-108230908D01*
X115482671Y-108281202D01*
X115482664Y-108281206D01*
X115367455Y-108367452D01*
X115367452Y-108367455D01*
X115281206Y-108482664D01*
X115281202Y-108482671D01*
X115230908Y-108617517D01*
X115224501Y-108677116D01*
X115224501Y-108677123D01*
X115224500Y-108677135D01*
X104548444Y-108677135D01*
X104095303Y-108472607D01*
X104058635Y-108447267D01*
X103128421Y-107517052D01*
X103128414Y-107517046D01*
X103054729Y-107467812D01*
X103054729Y-107467813D01*
X103005491Y-107434913D01*
X102868917Y-107378343D01*
X102868907Y-107378340D01*
X102723920Y-107349500D01*
X102723918Y-107349500D01*
X98426082Y-107349500D01*
X98426080Y-107349500D01*
X98281092Y-107378340D01*
X98281086Y-107378342D01*
X98144508Y-107434914D01*
X98144496Y-107434921D01*
X98095269Y-107467813D01*
X98021588Y-107517044D01*
X98021580Y-107517050D01*
X96517050Y-109021580D01*
X96517044Y-109021588D01*
X96467812Y-109095268D01*
X96467813Y-109095269D01*
X96434921Y-109144496D01*
X96434914Y-109144508D01*
X96378342Y-109281086D01*
X96378340Y-109281092D01*
X96349500Y-109426079D01*
X96349500Y-109426082D01*
X96349500Y-123973918D01*
X96349500Y-123973920D01*
X96349499Y-123973920D01*
X91048750Y-123973920D01*
X91030726Y-123733420D01*
X90974031Y-123485022D01*
X90974026Y-123485005D01*
X90880941Y-123247828D01*
X90880942Y-123247828D01*
X90753544Y-123027171D01*
X90711546Y-122974506D01*
X90060846Y-123625205D01*
X90053951Y-123608558D01*
X89966401Y-123477530D01*
X89854970Y-123366099D01*
X89723942Y-123278549D01*
X89707292Y-123271652D01*
X90358185Y-122620761D01*
X90197377Y-122511124D01*
X90197376Y-122511123D01*
X89967823Y-122400578D01*
X89967825Y-122400578D01*
X89724347Y-122325475D01*
X89724341Y-122325473D01*
X89472404Y-122287500D01*
X89217595Y-122287500D01*
X88965658Y-122325473D01*
X88965652Y-122325475D01*
X88722175Y-122400578D01*
X88492624Y-122511123D01*
X88492616Y-122511128D01*
X88331813Y-122620761D01*
X88982705Y-123271653D01*
X88966058Y-123278549D01*
X88835030Y-123366099D01*
X88723599Y-123477530D01*
X88636049Y-123608558D01*
X88629153Y-123625206D01*
X87978453Y-122974506D01*
X87936455Y-123027170D01*
X87809058Y-123247828D01*
X87715973Y-123485005D01*
X87715968Y-123485022D01*
X87659273Y-123733420D01*
X87640233Y-123987495D01*
X81049767Y-123987495D01*
X81030726Y-123733420D01*
X80974031Y-123485022D01*
X80974026Y-123485005D01*
X80880941Y-123247828D01*
X80880942Y-123247828D01*
X80753544Y-123027171D01*
X80711546Y-122974506D01*
X80060846Y-123625205D01*
X80053951Y-123608558D01*
X79966401Y-123477530D01*
X79854970Y-123366099D01*
X79723942Y-123278549D01*
X79707292Y-123271652D01*
X80358185Y-122620761D01*
X80197377Y-122511124D01*
X80197376Y-122511123D01*
X79967823Y-122400578D01*
X79967825Y-122400578D01*
X79724347Y-122325475D01*
X79724341Y-122325473D01*
X79555507Y-122300026D01*
X79492150Y-122270570D01*
X79454776Y-122211536D01*
X79455251Y-122141668D01*
X79493424Y-122083148D01*
X79497789Y-122079586D01*
X79597754Y-122001781D01*
X79763368Y-121821877D01*
X79897111Y-121617167D01*
X79995336Y-121393236D01*
X80055364Y-121156192D01*
X80075557Y-120912500D01*
X80066231Y-120799954D01*
X80055365Y-120668816D01*
X80055363Y-120668804D01*
X80016254Y-120514366D01*
X79995336Y-120431764D01*
X79897111Y-120207833D01*
X79763368Y-120003123D01*
X79763367Y-120003121D01*
X79597757Y-119823222D01*
X79597747Y-119823213D01*
X79404791Y-119673029D01*
X79404787Y-119673026D01*
X79189734Y-119556645D01*
X79189729Y-119556643D01*
X78958458Y-119477248D01*
X78777561Y-119447062D01*
X78717263Y-119437000D01*
X78472737Y-119437000D01*
X78424498Y-119445049D01*
X78231541Y-119477248D01*
X78000270Y-119556643D01*
X78000265Y-119556645D01*
X77785212Y-119673026D01*
X77785208Y-119673029D01*
X77592252Y-119823213D01*
X77592242Y-119823222D01*
X77426632Y-120003121D01*
X77292888Y-120207833D01*
X77194663Y-120431765D01*
X77134636Y-120668804D01*
X77134634Y-120668816D01*
X77114443Y-120912494D01*
X75575557Y-120912494D01*
X75566231Y-120799954D01*
X75555365Y-120668816D01*
X75555363Y-120668804D01*
X75516254Y-120514366D01*
X75495336Y-120431764D01*
X75397111Y-120207833D01*
X75263368Y-120003123D01*
X75263367Y-120003121D01*
X75097757Y-119823222D01*
X75097747Y-119823213D01*
X74904791Y-119673029D01*
X74904787Y-119673026D01*
X74689734Y-119556645D01*
X74689729Y-119556643D01*
X74458458Y-119477248D01*
X74277561Y-119447062D01*
X74217263Y-119437000D01*
X73972737Y-119437000D01*
X73924498Y-119445049D01*
X73731541Y-119477248D01*
X73500270Y-119556643D01*
X73500265Y-119556645D01*
X73285212Y-119673026D01*
X73285208Y-119673029D01*
X73092252Y-119823213D01*
X73092242Y-119823222D01*
X72926632Y-120003121D01*
X72792888Y-120207833D01*
X72694663Y-120431765D01*
X72634636Y-120668804D01*
X72634634Y-120668816D01*
X72614443Y-120912494D01*
X69500500Y-120912494D01*
X69500500Y-117662498D01*
X91744437Y-117662498D01*
X91744437Y-117662501D01*
X91764650Y-117893544D01*
X91764651Y-117893551D01*
X91824678Y-118117574D01*
X91824679Y-118117576D01*
X91824680Y-118117579D01*
X91922699Y-118327782D01*
X92055730Y-118517769D01*
X92219730Y-118681769D01*
X92404183Y-118810925D01*
X92447808Y-118865502D01*
X92455000Y-118935001D01*
X92423478Y-118997355D01*
X92404183Y-119014075D01*
X92219731Y-119143230D01*
X92219729Y-119143231D01*
X92055731Y-119307229D01*
X92055726Y-119307235D01*
X91922701Y-119497214D01*
X91922699Y-119497218D01*
X91824681Y-119707417D01*
X91764651Y-119931448D01*
X91764650Y-119931455D01*
X91744437Y-120162498D01*
X91744437Y-120162501D01*
X91764650Y-120393544D01*
X91764651Y-120393551D01*
X91824678Y-120617574D01*
X91824679Y-120617576D01*
X91824680Y-120617579D01*
X91922699Y-120827782D01*
X92055730Y-121017769D01*
X92219731Y-121181770D01*
X92409718Y-121314801D01*
X92619921Y-121412820D01*
X92843950Y-121472849D01*
X93008985Y-121487287D01*
X93074998Y-121493063D01*
X93075000Y-121493063D01*
X93075002Y-121493063D01*
X93132762Y-121488009D01*
X93306050Y-121472849D01*
X93530079Y-121412820D01*
X93740282Y-121314801D01*
X93930269Y-121181770D01*
X94094270Y-121017769D01*
X94227301Y-120827782D01*
X94325320Y-120617579D01*
X94385349Y-120393550D01*
X94405563Y-120162500D01*
X94385349Y-119931450D01*
X94325320Y-119707421D01*
X94227301Y-119497219D01*
X94227299Y-119497216D01*
X94227298Y-119497214D01*
X94094273Y-119307235D01*
X94094268Y-119307229D01*
X93930269Y-119143230D01*
X93745814Y-119014072D01*
X93702192Y-118959498D01*
X93694999Y-118889999D01*
X93726521Y-118827645D01*
X93745809Y-118810930D01*
X93930269Y-118681770D01*
X94094270Y-118517769D01*
X94227301Y-118327782D01*
X94325320Y-118117579D01*
X94385349Y-117893550D01*
X94405563Y-117662500D01*
X94385349Y-117431450D01*
X94325320Y-117207421D01*
X94227301Y-116997219D01*
X94227299Y-116997216D01*
X94227298Y-116997214D01*
X94094273Y-116807235D01*
X94094268Y-116807229D01*
X93930269Y-116643230D01*
X93745379Y-116513768D01*
X93701757Y-116459193D01*
X93694564Y-116389694D01*
X93726086Y-116327340D01*
X93745381Y-116310620D01*
X93818423Y-116259475D01*
X93245234Y-115686287D01*
X93287292Y-115675018D01*
X93412708Y-115602610D01*
X93515110Y-115500208D01*
X93587518Y-115374792D01*
X93598787Y-115332735D01*
X94171975Y-115905923D01*
X94226867Y-115827530D01*
X94324847Y-115617409D01*
X94324851Y-115617400D01*
X94384852Y-115393468D01*
X94384854Y-115393458D01*
X94405061Y-115162500D01*
X94405061Y-115162499D01*
X94384854Y-114931541D01*
X94384852Y-114931531D01*
X94324851Y-114707599D01*
X94324847Y-114707590D01*
X94226868Y-114497472D01*
X94171974Y-114419076D01*
X93598787Y-114992264D01*
X93587518Y-114950208D01*
X93515110Y-114824792D01*
X93412708Y-114722390D01*
X93287292Y-114649982D01*
X93245233Y-114638712D01*
X93818423Y-114065523D01*
X93740031Y-114010633D01*
X93740029Y-114010632D01*
X93529909Y-113912652D01*
X93529900Y-113912648D01*
X93305968Y-113852647D01*
X93305958Y-113852645D01*
X93075001Y-113832439D01*
X93074999Y-113832439D01*
X92844041Y-113852645D01*
X92844031Y-113852647D01*
X92620099Y-113912648D01*
X92620090Y-113912652D01*
X92409974Y-114010631D01*
X92331576Y-114065524D01*
X92904765Y-114638712D01*
X92862708Y-114649982D01*
X92737292Y-114722390D01*
X92634890Y-114824792D01*
X92562482Y-114950208D01*
X92551212Y-114992265D01*
X91978024Y-114419076D01*
X91923131Y-114497474D01*
X91825152Y-114707590D01*
X91825148Y-114707599D01*
X91765147Y-114931531D01*
X91765145Y-114931541D01*
X91744939Y-115162499D01*
X91744939Y-115162500D01*
X91765145Y-115393458D01*
X91765147Y-115393468D01*
X91825148Y-115617400D01*
X91825152Y-115617409D01*
X91923132Y-115827529D01*
X91923133Y-115827531D01*
X91978023Y-115905922D01*
X91978023Y-115905923D01*
X92551212Y-115332733D01*
X92562482Y-115374792D01*
X92634890Y-115500208D01*
X92737292Y-115602610D01*
X92862708Y-115675018D01*
X92904765Y-115686287D01*
X92331575Y-116259475D01*
X92331575Y-116259476D01*
X92404618Y-116310620D01*
X92448243Y-116365196D01*
X92455437Y-116434694D01*
X92423915Y-116497049D01*
X92404619Y-116513770D01*
X92219731Y-116643230D01*
X92219729Y-116643231D01*
X92055731Y-116807229D01*
X92055726Y-116807235D01*
X91922701Y-116997214D01*
X91922699Y-116997218D01*
X91824681Y-117207417D01*
X91764651Y-117431448D01*
X91764650Y-117431455D01*
X91744437Y-117662498D01*
X69500500Y-117662498D01*
X69500500Y-114412494D01*
X72614443Y-114412494D01*
X72614443Y-114412505D01*
X72634634Y-114656183D01*
X72634636Y-114656195D01*
X72694663Y-114893234D01*
X72792888Y-115117166D01*
X72926632Y-115321878D01*
X73092242Y-115501777D01*
X73092252Y-115501786D01*
X73284670Y-115651551D01*
X73285212Y-115651973D01*
X73500267Y-115768355D01*
X73500270Y-115768356D01*
X73731541Y-115847751D01*
X73731543Y-115847751D01*
X73731545Y-115847752D01*
X73972737Y-115888000D01*
X73972738Y-115888000D01*
X74217262Y-115888000D01*
X74217263Y-115888000D01*
X74458455Y-115847752D01*
X74689733Y-115768355D01*
X74904788Y-115651973D01*
X75097754Y-115501781D01*
X75263368Y-115321877D01*
X75397111Y-115117167D01*
X75495336Y-114893236D01*
X75555364Y-114656192D01*
X75555879Y-114649982D01*
X75575557Y-114412505D01*
X75575557Y-114412494D01*
X77114945Y-114412494D01*
X77114945Y-114412505D01*
X77135130Y-114656105D01*
X77195138Y-114893073D01*
X77293328Y-115116924D01*
X77389626Y-115264320D01*
X77993958Y-114659988D01*
X78018978Y-114720390D01*
X78090112Y-114826851D01*
X78180649Y-114917388D01*
X78287110Y-114988522D01*
X78347510Y-115013541D01*
X77742757Y-115618293D01*
X77742758Y-115618294D01*
X77785485Y-115651550D01*
X77785485Y-115651551D01*
X78000468Y-115767894D01*
X78000476Y-115767897D01*
X78231664Y-115847265D01*
X78472779Y-115887500D01*
X78717221Y-115887500D01*
X78958335Y-115847265D01*
X79189523Y-115767897D01*
X79189531Y-115767894D01*
X79404515Y-115651550D01*
X79404516Y-115651548D01*
X79447240Y-115618294D01*
X79447241Y-115618293D01*
X78842488Y-115013541D01*
X78902890Y-114988522D01*
X79009351Y-114917388D01*
X79099888Y-114826851D01*
X79171022Y-114720390D01*
X79196041Y-114659989D01*
X79800372Y-115264320D01*
X79896669Y-115116929D01*
X79994861Y-114893073D01*
X80054869Y-114656105D01*
X80075055Y-114412505D01*
X80075055Y-114412494D01*
X80054869Y-114168894D01*
X79994861Y-113931926D01*
X79896671Y-113708075D01*
X79800372Y-113560678D01*
X79196041Y-114165010D01*
X79171022Y-114104610D01*
X79099888Y-113998149D01*
X79009351Y-113907612D01*
X78902890Y-113836478D01*
X78842487Y-113811457D01*
X79447240Y-113206705D01*
X79444104Y-113156195D01*
X79459597Y-113088065D01*
X79509464Y-113039126D01*
X79549385Y-113025896D01*
X79724341Y-112999526D01*
X79724347Y-112999524D01*
X79967824Y-112924421D01*
X80197381Y-112813873D01*
X80358185Y-112704237D01*
X79707294Y-112053346D01*
X79723942Y-112046451D01*
X79854970Y-111958901D01*
X79966401Y-111847470D01*
X80053951Y-111716442D01*
X80060846Y-111699794D01*
X80711545Y-112350493D01*
X80753545Y-112297827D01*
X80880941Y-112077171D01*
X80974026Y-111839994D01*
X80974031Y-111839977D01*
X81030726Y-111591579D01*
X81049767Y-111337504D01*
X81049767Y-111337495D01*
X87640233Y-111337495D01*
X87640233Y-111337504D01*
X87659273Y-111591579D01*
X87715968Y-111839977D01*
X87715973Y-111839994D01*
X87809058Y-112077171D01*
X87809057Y-112077171D01*
X87936457Y-112297832D01*
X87978452Y-112350493D01*
X88629152Y-111699792D01*
X88636049Y-111716442D01*
X88723599Y-111847470D01*
X88835030Y-111958901D01*
X88966058Y-112046451D01*
X88982705Y-112053346D01*
X88331813Y-112704237D01*
X88492623Y-112813875D01*
X88492624Y-112813876D01*
X88722176Y-112924421D01*
X88722174Y-112924421D01*
X88965652Y-112999524D01*
X88965658Y-112999526D01*
X89217595Y-113037499D01*
X89217604Y-113037500D01*
X89472396Y-113037500D01*
X89472404Y-113037499D01*
X89724341Y-112999526D01*
X89724347Y-112999524D01*
X89967824Y-112924421D01*
X90197381Y-112813873D01*
X90358185Y-112704237D01*
X89707294Y-112053346D01*
X89723942Y-112046451D01*
X89854970Y-111958901D01*
X89966401Y-111847470D01*
X90053951Y-111716442D01*
X90060846Y-111699794D01*
X90711545Y-112350493D01*
X90753545Y-112297827D01*
X90880941Y-112077171D01*
X90974026Y-111839994D01*
X90974031Y-111839977D01*
X91030726Y-111591579D01*
X91049767Y-111337504D01*
X91049767Y-111337495D01*
X91030726Y-111083420D01*
X90974031Y-110835022D01*
X90974026Y-110835005D01*
X90880941Y-110597828D01*
X90880942Y-110597828D01*
X90753544Y-110377171D01*
X90711546Y-110324506D01*
X90060846Y-110975205D01*
X90053951Y-110958558D01*
X89966401Y-110827530D01*
X89854970Y-110716099D01*
X89723942Y-110628549D01*
X89707292Y-110621652D01*
X90358185Y-109970761D01*
X90197377Y-109861124D01*
X90197376Y-109861123D01*
X89967823Y-109750578D01*
X89967825Y-109750578D01*
X89724347Y-109675475D01*
X89724341Y-109675473D01*
X89472404Y-109637500D01*
X89217595Y-109637500D01*
X88965658Y-109675473D01*
X88965652Y-109675475D01*
X88722175Y-109750578D01*
X88492624Y-109861123D01*
X88492616Y-109861128D01*
X88331813Y-109970761D01*
X88982705Y-110621653D01*
X88966058Y-110628549D01*
X88835030Y-110716099D01*
X88723599Y-110827530D01*
X88636049Y-110958558D01*
X88629153Y-110975206D01*
X87978453Y-110324506D01*
X87936455Y-110377170D01*
X87809058Y-110597828D01*
X87715973Y-110835005D01*
X87715968Y-110835022D01*
X87659273Y-111083420D01*
X87640233Y-111337495D01*
X81049767Y-111337495D01*
X81030726Y-111083420D01*
X80974031Y-110835022D01*
X80974026Y-110835005D01*
X80880941Y-110597828D01*
X80880942Y-110597828D01*
X80753544Y-110377171D01*
X80711546Y-110324506D01*
X80060846Y-110975205D01*
X80053951Y-110958558D01*
X79966401Y-110827530D01*
X79854970Y-110716099D01*
X79723942Y-110628549D01*
X79707292Y-110621652D01*
X80358185Y-109970761D01*
X80197377Y-109861124D01*
X80197376Y-109861123D01*
X79967823Y-109750578D01*
X79967825Y-109750578D01*
X79724347Y-109675475D01*
X79724341Y-109675473D01*
X79472404Y-109637500D01*
X79217595Y-109637500D01*
X78965658Y-109675473D01*
X78965652Y-109675475D01*
X78722175Y-109750578D01*
X78492624Y-109861123D01*
X78492616Y-109861128D01*
X78331813Y-109970761D01*
X78982705Y-110621653D01*
X78966058Y-110628549D01*
X78835030Y-110716099D01*
X78723599Y-110827530D01*
X78636049Y-110958558D01*
X78629153Y-110975206D01*
X77978453Y-110324506D01*
X77936455Y-110377170D01*
X77809058Y-110597828D01*
X77715973Y-110835005D01*
X77715968Y-110835022D01*
X77659273Y-111083420D01*
X77640233Y-111337495D01*
X77640233Y-111337504D01*
X77659273Y-111591579D01*
X77715968Y-111839977D01*
X77715973Y-111839994D01*
X77809058Y-112077171D01*
X77809057Y-112077171D01*
X77936457Y-112297832D01*
X77978452Y-112350493D01*
X78629152Y-111699792D01*
X78636049Y-111716442D01*
X78723599Y-111847470D01*
X78835030Y-111958901D01*
X78966058Y-112046451D01*
X78982705Y-112053346D01*
X78331813Y-112704237D01*
X78379268Y-112736591D01*
X78423569Y-112790620D01*
X78431629Y-112860023D01*
X78400886Y-112922766D01*
X78341102Y-112958928D01*
X78329826Y-112961354D01*
X78231664Y-112977734D01*
X78000476Y-113057102D01*
X78000468Y-113057105D01*
X77785484Y-113173449D01*
X77785478Y-113173453D01*
X77742758Y-113206703D01*
X77742758Y-113206705D01*
X78347511Y-113811458D01*
X78287110Y-113836478D01*
X78180649Y-113907612D01*
X78090112Y-113998149D01*
X78018978Y-114104610D01*
X77993958Y-114165011D01*
X77389626Y-113560678D01*
X77293329Y-113708072D01*
X77195138Y-113931926D01*
X77135130Y-114168894D01*
X77114945Y-114412494D01*
X75575557Y-114412494D01*
X75555365Y-114168816D01*
X75555363Y-114168804D01*
X75529209Y-114065524D01*
X75495336Y-113931764D01*
X75397111Y-113707833D01*
X75310654Y-113575500D01*
X75263367Y-113503121D01*
X75097757Y-113323222D01*
X75097747Y-113323213D01*
X74904791Y-113173029D01*
X74904787Y-113173026D01*
X74689734Y-113056645D01*
X74689729Y-113056643D01*
X74458458Y-112977248D01*
X74277561Y-112947062D01*
X74217263Y-112937000D01*
X73972737Y-112937000D01*
X73924498Y-112945049D01*
X73731541Y-112977248D01*
X73500270Y-113056643D01*
X73500265Y-113056645D01*
X73285212Y-113173026D01*
X73285208Y-113173029D01*
X73092252Y-113323213D01*
X73092242Y-113323222D01*
X72926632Y-113503121D01*
X72792888Y-113707833D01*
X72694663Y-113931765D01*
X72634636Y-114168804D01*
X72634634Y-114168816D01*
X72614443Y-114412494D01*
X69500500Y-114412494D01*
X69500500Y-105977135D01*
X70724500Y-105977135D01*
X70724500Y-107422870D01*
X70724501Y-107422876D01*
X70730908Y-107482483D01*
X70781202Y-107617328D01*
X70781206Y-107617335D01*
X70867452Y-107732544D01*
X70867455Y-107732547D01*
X70982664Y-107818793D01*
X70982671Y-107818797D01*
X71117517Y-107869091D01*
X71117516Y-107869091D01*
X71124444Y-107869835D01*
X71177127Y-107875500D01*
X72622872Y-107875499D01*
X72682483Y-107869091D01*
X72817331Y-107818796D01*
X72932546Y-107732546D01*
X73018796Y-107617331D01*
X73069091Y-107482483D01*
X73075500Y-107422873D01*
X73075499Y-105977128D01*
X73069091Y-105917517D01*
X73059743Y-105892455D01*
X73018797Y-105782671D01*
X73018793Y-105782664D01*
X72932547Y-105667455D01*
X72932544Y-105667452D01*
X72817335Y-105581206D01*
X72817328Y-105581202D01*
X72682482Y-105530908D01*
X72682483Y-105530908D01*
X72622883Y-105524501D01*
X72622881Y-105524500D01*
X72622873Y-105524500D01*
X72622864Y-105524500D01*
X71177129Y-105524500D01*
X71177123Y-105524501D01*
X71117516Y-105530908D01*
X70982671Y-105581202D01*
X70982664Y-105581206D01*
X70867455Y-105667452D01*
X70867452Y-105667455D01*
X70781206Y-105782664D01*
X70781202Y-105782671D01*
X70730908Y-105917517D01*
X70724501Y-105977116D01*
X70724501Y-105977123D01*
X70724500Y-105977135D01*
X69500500Y-105977135D01*
X69500500Y-104699992D01*
X77304671Y-104699992D01*
X77304671Y-104700007D01*
X77323964Y-104994363D01*
X77323965Y-104994373D01*
X77323966Y-104994380D01*
X77323968Y-104994390D01*
X77381518Y-105283716D01*
X77381521Y-105283730D01*
X77476349Y-105563080D01*
X77606825Y-105827660D01*
X77606829Y-105827667D01*
X77770725Y-106072955D01*
X77965241Y-106294758D01*
X78187044Y-106489274D01*
X78403754Y-106634075D01*
X78432335Y-106653172D01*
X78696923Y-106783652D01*
X78976278Y-106878481D01*
X79265620Y-106936034D01*
X79293888Y-106937886D01*
X79559993Y-106955329D01*
X79560000Y-106955329D01*
X79560007Y-106955329D01*
X79795675Y-106939881D01*
X79854380Y-106936034D01*
X80143722Y-106878481D01*
X80423077Y-106783652D01*
X80687665Y-106653172D01*
X80932957Y-106489273D01*
X81154758Y-106294758D01*
X81235987Y-106202135D01*
X118569500Y-106202135D01*
X118569500Y-107997870D01*
X118569501Y-107997876D01*
X118575908Y-108057483D01*
X118626202Y-108192328D01*
X118626206Y-108192335D01*
X118712452Y-108307544D01*
X118712455Y-108307547D01*
X118827664Y-108393793D01*
X118827671Y-108393797D01*
X118962517Y-108444091D01*
X118962516Y-108444091D01*
X118969444Y-108444835D01*
X119022127Y-108450500D01*
X120817872Y-108450499D01*
X120877483Y-108444091D01*
X121012331Y-108393796D01*
X121127546Y-108307546D01*
X121213796Y-108192331D01*
X121262810Y-108060916D01*
X121304681Y-108004984D01*
X121370145Y-107980566D01*
X121438418Y-107995417D01*
X121466673Y-108016569D01*
X121588599Y-108138495D01*
X121685384Y-108206265D01*
X121782165Y-108274032D01*
X121782167Y-108274033D01*
X121782170Y-108274035D01*
X121996337Y-108373903D01*
X122224592Y-108435063D01*
X122401034Y-108450500D01*
X122459999Y-108455659D01*
X122460000Y-108455659D01*
X122460001Y-108455659D01*
X122518966Y-108450500D01*
X122695408Y-108435063D01*
X122923663Y-108373903D01*
X123137830Y-108274035D01*
X123331401Y-108138495D01*
X123498495Y-107971401D01*
X123628730Y-107785405D01*
X123683307Y-107741781D01*
X123752805Y-107734587D01*
X123815160Y-107766110D01*
X123831879Y-107785405D01*
X123961890Y-107971078D01*
X124128917Y-108138105D01*
X124322421Y-108273600D01*
X124536507Y-108373429D01*
X124536516Y-108373433D01*
X124750000Y-108430634D01*
X124750000Y-107533012D01*
X124807007Y-107565925D01*
X124934174Y-107600000D01*
X125065826Y-107600000D01*
X125192993Y-107565925D01*
X125250000Y-107533012D01*
X125250000Y-108430633D01*
X125463483Y-108373433D01*
X125463492Y-108373429D01*
X125677578Y-108273600D01*
X125871082Y-108138105D01*
X126038105Y-107971082D01*
X126173600Y-107777578D01*
X126273429Y-107563492D01*
X126273432Y-107563486D01*
X126330636Y-107350000D01*
X125433012Y-107350000D01*
X125465925Y-107292993D01*
X125500000Y-107165826D01*
X125500000Y-107034174D01*
X125465925Y-106907007D01*
X125433012Y-106850000D01*
X126330636Y-106850000D01*
X126330635Y-106849999D01*
X126273432Y-106636513D01*
X126273429Y-106636507D01*
X126173600Y-106422422D01*
X126173599Y-106422420D01*
X126038113Y-106228926D01*
X126038108Y-106228920D01*
X125871082Y-106061894D01*
X125677578Y-105926399D01*
X125463492Y-105826570D01*
X125463486Y-105826567D01*
X125250000Y-105769364D01*
X125250000Y-106666988D01*
X125192993Y-106634075D01*
X125065826Y-106600000D01*
X124934174Y-106600000D01*
X124807007Y-106634075D01*
X124750000Y-106666988D01*
X124750000Y-105769364D01*
X124749999Y-105769364D01*
X124536513Y-105826567D01*
X124536507Y-105826570D01*
X124322422Y-105926399D01*
X124322420Y-105926400D01*
X124128926Y-106061886D01*
X124128920Y-106061891D01*
X123961891Y-106228920D01*
X123961890Y-106228922D01*
X123831880Y-106414595D01*
X123777303Y-106458219D01*
X123707804Y-106465412D01*
X123645450Y-106433890D01*
X123628730Y-106414594D01*
X123498494Y-106228597D01*
X123331402Y-106061506D01*
X123331395Y-106061501D01*
X123137834Y-105925967D01*
X123137830Y-105925965D01*
X123119711Y-105917516D01*
X122923663Y-105826097D01*
X122923659Y-105826096D01*
X122923655Y-105826094D01*
X122695413Y-105764938D01*
X122695403Y-105764936D01*
X122460001Y-105744341D01*
X122459999Y-105744341D01*
X122224596Y-105764936D01*
X122224586Y-105764938D01*
X121996344Y-105826094D01*
X121996337Y-105826096D01*
X121996337Y-105826097D01*
X121992970Y-105827667D01*
X121782171Y-105925964D01*
X121782169Y-105925965D01*
X121588600Y-106061503D01*
X121466673Y-106183430D01*
X121405350Y-106216914D01*
X121335658Y-106211930D01*
X121279725Y-106170058D01*
X121262810Y-106139081D01*
X121213797Y-106007671D01*
X121213793Y-106007664D01*
X121127547Y-105892455D01*
X121127544Y-105892452D01*
X121012335Y-105806206D01*
X121012328Y-105806202D01*
X120877482Y-105755908D01*
X120877483Y-105755908D01*
X120817883Y-105749501D01*
X120817881Y-105749500D01*
X120817873Y-105749500D01*
X120817864Y-105749500D01*
X119022129Y-105749500D01*
X119022123Y-105749501D01*
X118962516Y-105755908D01*
X118827671Y-105806202D01*
X118827664Y-105806206D01*
X118712455Y-105892452D01*
X118712452Y-105892455D01*
X118626206Y-106007664D01*
X118626202Y-106007671D01*
X118575908Y-106142517D01*
X118569501Y-106202116D01*
X118569500Y-106202135D01*
X81235987Y-106202135D01*
X81349273Y-106072957D01*
X81513172Y-105827665D01*
X81643652Y-105563077D01*
X81738481Y-105283722D01*
X81796034Y-104994380D01*
X81815329Y-104700000D01*
X81815329Y-104699992D01*
X131304671Y-104699992D01*
X131304671Y-104700007D01*
X131323964Y-104994363D01*
X131323965Y-104994373D01*
X131323966Y-104994380D01*
X131323968Y-104994390D01*
X131381518Y-105283716D01*
X131381521Y-105283730D01*
X131476349Y-105563080D01*
X131606825Y-105827660D01*
X131606829Y-105827667D01*
X131770725Y-106072955D01*
X131965241Y-106294758D01*
X132187044Y-106489274D01*
X132403754Y-106634075D01*
X132432335Y-106653172D01*
X132696923Y-106783652D01*
X132976278Y-106878481D01*
X133265620Y-106936034D01*
X133293888Y-106937886D01*
X133559993Y-106955329D01*
X133560000Y-106955329D01*
X133560007Y-106955329D01*
X133795675Y-106939881D01*
X133854380Y-106936034D01*
X134143722Y-106878481D01*
X134423077Y-106783652D01*
X134687665Y-106653172D01*
X134932957Y-106489273D01*
X135154758Y-106294758D01*
X135349273Y-106072957D01*
X135513172Y-105827665D01*
X135643652Y-105563077D01*
X135738481Y-105283722D01*
X135796034Y-104994380D01*
X135815329Y-104700000D01*
X135815329Y-104699992D01*
X135796035Y-104405636D01*
X135796034Y-104405620D01*
X135738481Y-104116278D01*
X135643652Y-103836923D01*
X135513172Y-103572336D01*
X135349273Y-103327043D01*
X135306655Y-103278447D01*
X135154758Y-103105241D01*
X134932955Y-102910725D01*
X134687667Y-102746829D01*
X134687660Y-102746825D01*
X134423080Y-102616349D01*
X134143730Y-102521521D01*
X134143724Y-102521519D01*
X134143722Y-102521519D01*
X133854380Y-102463966D01*
X133854373Y-102463965D01*
X133854363Y-102463964D01*
X133560007Y-102444671D01*
X133559993Y-102444671D01*
X133265636Y-102463964D01*
X133265624Y-102463965D01*
X133265620Y-102463966D01*
X133265612Y-102463967D01*
X133265609Y-102463968D01*
X132976283Y-102521518D01*
X132976269Y-102521521D01*
X132696919Y-102616349D01*
X132432334Y-102746828D01*
X132187041Y-102910728D01*
X131965241Y-103105241D01*
X131770728Y-103327041D01*
X131606828Y-103572334D01*
X131476349Y-103836919D01*
X131381521Y-104116269D01*
X131381518Y-104116283D01*
X131323968Y-104405609D01*
X131323964Y-104405636D01*
X131304671Y-104699992D01*
X81815329Y-104699992D01*
X81796035Y-104405636D01*
X81796034Y-104405620D01*
X81738481Y-104116278D01*
X81643652Y-103836923D01*
X81513172Y-103572336D01*
X81349273Y-103327043D01*
X81306655Y-103278447D01*
X81154758Y-103105241D01*
X80932955Y-102910725D01*
X80687667Y-102746829D01*
X80687660Y-102746825D01*
X80423080Y-102616349D01*
X80143730Y-102521521D01*
X80143724Y-102521519D01*
X80143722Y-102521519D01*
X79854380Y-102463966D01*
X79854373Y-102463965D01*
X79854363Y-102463964D01*
X79560007Y-102444671D01*
X79559993Y-102444671D01*
X79265636Y-102463964D01*
X79265624Y-102463965D01*
X79265620Y-102463966D01*
X79265612Y-102463967D01*
X79265609Y-102463968D01*
X78976283Y-102521518D01*
X78976269Y-102521521D01*
X78696919Y-102616349D01*
X78432334Y-102746828D01*
X78187041Y-102910728D01*
X77965241Y-103105241D01*
X77770728Y-103327041D01*
X77606828Y-103572334D01*
X77476349Y-103836919D01*
X77381521Y-104116269D01*
X77381518Y-104116283D01*
X77323968Y-104405609D01*
X77323964Y-104405636D01*
X77304671Y-104699992D01*
X69500500Y-104699992D01*
X69500500Y-102077135D01*
X70624500Y-102077135D01*
X70624500Y-103522870D01*
X70624501Y-103522876D01*
X70630908Y-103582483D01*
X70681202Y-103717328D01*
X70681206Y-103717335D01*
X70767452Y-103832544D01*
X70767455Y-103832547D01*
X70882664Y-103918793D01*
X70882671Y-103918797D01*
X71017517Y-103969091D01*
X71017516Y-103969091D01*
X71024444Y-103969835D01*
X71077127Y-103975500D01*
X72522872Y-103975499D01*
X72582483Y-103969091D01*
X72717331Y-103918796D01*
X72832546Y-103832546D01*
X72918796Y-103717331D01*
X72969091Y-103582483D01*
X72975500Y-103522873D01*
X72975499Y-102077128D01*
X72969091Y-102017517D01*
X72918796Y-101882669D01*
X72918795Y-101882668D01*
X72918793Y-101882664D01*
X72832547Y-101767455D01*
X72832544Y-101767452D01*
X72717335Y-101681206D01*
X72717328Y-101681202D01*
X72582482Y-101630908D01*
X72582483Y-101630908D01*
X72522883Y-101624501D01*
X72522881Y-101624500D01*
X72522873Y-101624500D01*
X72522864Y-101624500D01*
X71077129Y-101624500D01*
X71077123Y-101624501D01*
X71017516Y-101630908D01*
X70882671Y-101681202D01*
X70882664Y-101681206D01*
X70767455Y-101767452D01*
X70767452Y-101767455D01*
X70681206Y-101882664D01*
X70681202Y-101882671D01*
X70630908Y-102017517D01*
X70624501Y-102077116D01*
X70624501Y-102077123D01*
X70624500Y-102077135D01*
X69500500Y-102077135D01*
X69500500Y-92099999D01*
X75004341Y-92099999D01*
X75004341Y-92100000D01*
X75024936Y-92335403D01*
X75024938Y-92335413D01*
X75086094Y-92563655D01*
X75086096Y-92563659D01*
X75086097Y-92563663D01*
X75163926Y-92730567D01*
X75185965Y-92777830D01*
X75185967Y-92777834D01*
X75261451Y-92885635D01*
X75321501Y-92971396D01*
X75321506Y-92971402D01*
X75488597Y-93138493D01*
X75488603Y-93138498D01*
X75674158Y-93268425D01*
X75717783Y-93323002D01*
X75724977Y-93392500D01*
X75693454Y-93454855D01*
X75674158Y-93471575D01*
X75488597Y-93601505D01*
X75321505Y-93768597D01*
X75185965Y-93962169D01*
X75185964Y-93962171D01*
X75086098Y-94176335D01*
X75086094Y-94176344D01*
X75024938Y-94404586D01*
X75024936Y-94404596D01*
X75004341Y-94639999D01*
X75004341Y-94640000D01*
X75024936Y-94875403D01*
X75024938Y-94875413D01*
X75086094Y-95103655D01*
X75086096Y-95103659D01*
X75086097Y-95103663D01*
X75166004Y-95275023D01*
X75185965Y-95317830D01*
X75185967Y-95317834D01*
X75255634Y-95417328D01*
X75321501Y-95511396D01*
X75321506Y-95511402D01*
X75488597Y-95678493D01*
X75488603Y-95678498D01*
X75674158Y-95808425D01*
X75717783Y-95863002D01*
X75724977Y-95932500D01*
X75693454Y-95994855D01*
X75674158Y-96011575D01*
X75488597Y-96141505D01*
X75321505Y-96308597D01*
X75185965Y-96502169D01*
X75185964Y-96502171D01*
X75086098Y-96716335D01*
X75086094Y-96716344D01*
X75024938Y-96944586D01*
X75024936Y-96944596D01*
X75004341Y-97179999D01*
X75004341Y-97180000D01*
X75024936Y-97415403D01*
X75024938Y-97415413D01*
X75086094Y-97643655D01*
X75086096Y-97643659D01*
X75086097Y-97643663D01*
X75166004Y-97815023D01*
X75185965Y-97857830D01*
X75185967Y-97857834D01*
X75216019Y-97900752D01*
X75321501Y-98051396D01*
X75321506Y-98051402D01*
X75443818Y-98173714D01*
X75477303Y-98235037D01*
X75472319Y-98304729D01*
X75430447Y-98360662D01*
X75399471Y-98377577D01*
X75267912Y-98426646D01*
X75267906Y-98426649D01*
X75152812Y-98512809D01*
X75152809Y-98512812D01*
X75066649Y-98627906D01*
X75066645Y-98627913D01*
X75016403Y-98762620D01*
X75016401Y-98762627D01*
X75010000Y-98822155D01*
X75010000Y-99470000D01*
X75926988Y-99470000D01*
X75894075Y-99527007D01*
X75860000Y-99654174D01*
X75860000Y-99785826D01*
X75894075Y-99912993D01*
X75926988Y-99970000D01*
X75010000Y-99970000D01*
X75010000Y-100617844D01*
X75016401Y-100677372D01*
X75016403Y-100677379D01*
X75066645Y-100812086D01*
X75066649Y-100812093D01*
X75152809Y-100927187D01*
X75152812Y-100927190D01*
X75267906Y-101013350D01*
X75267913Y-101013354D01*
X75402620Y-101063596D01*
X75402627Y-101063598D01*
X75462155Y-101069999D01*
X75462172Y-101070000D01*
X76110000Y-101070000D01*
X76110000Y-100153012D01*
X76167007Y-100185925D01*
X76294174Y-100220000D01*
X76425826Y-100220000D01*
X76552993Y-100185925D01*
X76610000Y-100153012D01*
X76610000Y-101070000D01*
X77257828Y-101070000D01*
X77257844Y-101069999D01*
X77317372Y-101063598D01*
X77317379Y-101063596D01*
X77452086Y-101013354D01*
X77452093Y-101013350D01*
X77567187Y-100927190D01*
X77567190Y-100927187D01*
X77653350Y-100812093D01*
X77653354Y-100812086D01*
X77702422Y-100680529D01*
X77744293Y-100624595D01*
X77809757Y-100600178D01*
X77878030Y-100615030D01*
X77906285Y-100636181D01*
X78028599Y-100758495D01*
X78039856Y-100766377D01*
X78222165Y-100894032D01*
X78222167Y-100894033D01*
X78222170Y-100894035D01*
X78436337Y-100993903D01*
X78664592Y-101055063D01*
X78835319Y-101070000D01*
X78899999Y-101075659D01*
X78900000Y-101075659D01*
X78900001Y-101075659D01*
X78964681Y-101070000D01*
X79135408Y-101055063D01*
X79363663Y-100993903D01*
X79577830Y-100894035D01*
X79771401Y-100758495D01*
X79938495Y-100591401D01*
X80074035Y-100397830D01*
X80173903Y-100183663D01*
X80235063Y-99955408D01*
X80255659Y-99720000D01*
X80235063Y-99484592D01*
X80173903Y-99256337D01*
X80074035Y-99042171D01*
X80055483Y-99015675D01*
X79938494Y-98848597D01*
X79771402Y-98681506D01*
X79771396Y-98681501D01*
X79585842Y-98551575D01*
X79542217Y-98496998D01*
X79535023Y-98427500D01*
X79566546Y-98365145D01*
X79585842Y-98348425D01*
X79697500Y-98270241D01*
X79771401Y-98218495D01*
X79938495Y-98051401D01*
X80074035Y-97857830D01*
X80173903Y-97643663D01*
X80235063Y-97415408D01*
X80255659Y-97180000D01*
X80235063Y-96944592D01*
X80173903Y-96716337D01*
X80074035Y-96502171D01*
X80073042Y-96500752D01*
X79938494Y-96308597D01*
X79771402Y-96141506D01*
X79771396Y-96141501D01*
X79585842Y-96011575D01*
X79542217Y-95956998D01*
X79535023Y-95887500D01*
X79566546Y-95825145D01*
X79585842Y-95808425D01*
X79608026Y-95792891D01*
X79771401Y-95678495D01*
X79938495Y-95511401D01*
X80074035Y-95317830D01*
X80173903Y-95103663D01*
X80235063Y-94875408D01*
X80255659Y-94640000D01*
X80235063Y-94404592D01*
X80188626Y-94231285D01*
X80173905Y-94176344D01*
X80173904Y-94176343D01*
X80173903Y-94176337D01*
X80074035Y-93962171D01*
X80068425Y-93954158D01*
X79938494Y-93768597D01*
X79771402Y-93601506D01*
X79771396Y-93601501D01*
X79585842Y-93471575D01*
X79542217Y-93416998D01*
X79535023Y-93347500D01*
X79566546Y-93285145D01*
X79585842Y-93268425D01*
X79608026Y-93252891D01*
X79771401Y-93138495D01*
X79938495Y-92971401D01*
X80074035Y-92777830D01*
X80173903Y-92563663D01*
X80235063Y-92335408D01*
X80255659Y-92100000D01*
X80253515Y-92075500D01*
X80235063Y-91864596D01*
X80235063Y-91864592D01*
X80173903Y-91636337D01*
X80074035Y-91422171D01*
X80039825Y-91373313D01*
X79938494Y-91228597D01*
X79771402Y-91061506D01*
X79771395Y-91061501D01*
X79577834Y-90925967D01*
X79577830Y-90925965D01*
X79540670Y-90908637D01*
X79363663Y-90826097D01*
X79363659Y-90826096D01*
X79363655Y-90826094D01*
X79135413Y-90764938D01*
X79135403Y-90764936D01*
X78900001Y-90744341D01*
X78899999Y-90744341D01*
X78664596Y-90764936D01*
X78664586Y-90764938D01*
X78436344Y-90826094D01*
X78436335Y-90826098D01*
X78222171Y-90925964D01*
X78222169Y-90925965D01*
X78028597Y-91061505D01*
X77861508Y-91228594D01*
X77781501Y-91342856D01*
X77726924Y-91386481D01*
X77657425Y-91393673D01*
X77595071Y-91362151D01*
X77559657Y-91301921D01*
X77558772Y-91298145D01*
X77543611Y-91228604D01*
X77484504Y-90957482D01*
X77489457Y-90887789D01*
X77517975Y-90843391D01*
X79074548Y-89286819D01*
X79135871Y-89253334D01*
X79162229Y-89250500D01*
X91837770Y-89250500D01*
X91904809Y-89270185D01*
X91925451Y-89286819D01*
X92313181Y-89674548D01*
X92346666Y-89735871D01*
X92349500Y-89762229D01*
X92349500Y-98573918D01*
X92349500Y-98573920D01*
X92349499Y-98573920D01*
X92378340Y-98718907D01*
X92378343Y-98718917D01*
X92434913Y-98855490D01*
X92434914Y-98855492D01*
X92461000Y-98894532D01*
X92461001Y-98894534D01*
X92517043Y-98978410D01*
X92517047Y-98978415D01*
X93047268Y-99508636D01*
X93072608Y-99545304D01*
X93595489Y-100703770D01*
X93595496Y-100703786D01*
X93616263Y-100744729D01*
X93619379Y-100749659D01*
X93619092Y-100749840D01*
X93629162Y-100766376D01*
X93669432Y-100852734D01*
X93669433Y-100852735D01*
X93799954Y-101039141D01*
X93960858Y-101200045D01*
X93960861Y-101200047D01*
X94147266Y-101330568D01*
X94353504Y-101426739D01*
X94573308Y-101485635D01*
X94735230Y-101499801D01*
X94799998Y-101505468D01*
X94800000Y-101505468D01*
X94800002Y-101505468D01*
X94856673Y-101500509D01*
X95026692Y-101485635D01*
X95246496Y-101426739D01*
X95452734Y-101330568D01*
X95639139Y-101200047D01*
X95800047Y-101039139D01*
X95930568Y-100852734D01*
X96026739Y-100646496D01*
X96085635Y-100426692D01*
X96105468Y-100200000D01*
X96105467Y-100199994D01*
X131394859Y-100199994D01*
X131394859Y-100200005D01*
X131415385Y-100447729D01*
X131415387Y-100447738D01*
X131476412Y-100688717D01*
X131576267Y-100916367D01*
X131676562Y-101069881D01*
X132376212Y-100370233D01*
X132387482Y-100412292D01*
X132459890Y-100537708D01*
X132562292Y-100640110D01*
X132687708Y-100712518D01*
X132729766Y-100723787D01*
X132029943Y-101423609D01*
X132076768Y-101460055D01*
X132076771Y-101460057D01*
X132295385Y-101578364D01*
X132295396Y-101578369D01*
X132530506Y-101659083D01*
X132775707Y-101700000D01*
X133024293Y-101700000D01*
X133269493Y-101659083D01*
X133504603Y-101578369D01*
X133504614Y-101578364D01*
X133723230Y-101460056D01*
X133723236Y-101460051D01*
X133770055Y-101423610D01*
X133770056Y-101423609D01*
X133070233Y-100723787D01*
X133112292Y-100712518D01*
X133237708Y-100640110D01*
X133340110Y-100537708D01*
X133412518Y-100412292D01*
X133423787Y-100370234D01*
X134123435Y-101069882D01*
X134223733Y-100916364D01*
X134323587Y-100688717D01*
X134384612Y-100447738D01*
X134384614Y-100447729D01*
X134405141Y-100200005D01*
X134405141Y-100199994D01*
X137894859Y-100199994D01*
X137894859Y-100200005D01*
X137915385Y-100447729D01*
X137915387Y-100447738D01*
X137976412Y-100688717D01*
X138076267Y-100916367D01*
X138176562Y-101069881D01*
X138876212Y-100370233D01*
X138887482Y-100412292D01*
X138959890Y-100537708D01*
X139062292Y-100640110D01*
X139187708Y-100712518D01*
X139229766Y-100723787D01*
X138529943Y-101423609D01*
X138576768Y-101460055D01*
X138576771Y-101460057D01*
X138795385Y-101578364D01*
X138795396Y-101578369D01*
X139030506Y-101659083D01*
X139275707Y-101700000D01*
X139524293Y-101700000D01*
X139769493Y-101659083D01*
X140004603Y-101578369D01*
X140004614Y-101578364D01*
X140223230Y-101460056D01*
X140223236Y-101460051D01*
X140270055Y-101423610D01*
X140270056Y-101423609D01*
X139570233Y-100723787D01*
X139612292Y-100712518D01*
X139737708Y-100640110D01*
X139840110Y-100537708D01*
X139912518Y-100412292D01*
X139923787Y-100370234D01*
X140623435Y-101069882D01*
X140723733Y-100916364D01*
X140823587Y-100688717D01*
X140884612Y-100447738D01*
X140884614Y-100447729D01*
X140905141Y-100200005D01*
X140905141Y-100199994D01*
X140884614Y-99952270D01*
X140884612Y-99952261D01*
X140823587Y-99711282D01*
X140723732Y-99483632D01*
X140623435Y-99330116D01*
X139923787Y-100029765D01*
X139912518Y-99987708D01*
X139840110Y-99862292D01*
X139737708Y-99759890D01*
X139612292Y-99687482D01*
X139570233Y-99676212D01*
X140270055Y-98976389D01*
X140270055Y-98976388D01*
X140223236Y-98939947D01*
X140223231Y-98939944D01*
X140004614Y-98821635D01*
X140004603Y-98821630D01*
X139769493Y-98740916D01*
X139524293Y-98700000D01*
X139275707Y-98700000D01*
X139030506Y-98740916D01*
X138795396Y-98821630D01*
X138795385Y-98821635D01*
X138576770Y-98939943D01*
X138529943Y-98976389D01*
X139229766Y-99676212D01*
X139187708Y-99687482D01*
X139062292Y-99759890D01*
X138959890Y-99862292D01*
X138887482Y-99987708D01*
X138876212Y-100029766D01*
X138176563Y-99330117D01*
X138076267Y-99483633D01*
X138076265Y-99483637D01*
X137976412Y-99711282D01*
X137915387Y-99952261D01*
X137915385Y-99952270D01*
X137894859Y-100199994D01*
X134405141Y-100199994D01*
X134384614Y-99952270D01*
X134384612Y-99952261D01*
X134323587Y-99711282D01*
X134223732Y-99483632D01*
X134123435Y-99330116D01*
X133423787Y-100029765D01*
X133412518Y-99987708D01*
X133340110Y-99862292D01*
X133237708Y-99759890D01*
X133112292Y-99687482D01*
X133070233Y-99676212D01*
X133770055Y-98976389D01*
X133770055Y-98976388D01*
X133723236Y-98939947D01*
X133723231Y-98939944D01*
X133504614Y-98821635D01*
X133504603Y-98821630D01*
X133269493Y-98740916D01*
X133024293Y-98700000D01*
X132775707Y-98700000D01*
X132530506Y-98740916D01*
X132295396Y-98821630D01*
X132295385Y-98821635D01*
X132076770Y-98939943D01*
X132029943Y-98976389D01*
X132729766Y-99676212D01*
X132687708Y-99687482D01*
X132562292Y-99759890D01*
X132459890Y-99862292D01*
X132387482Y-99987708D01*
X132376212Y-100029766D01*
X131676563Y-99330117D01*
X131576267Y-99483633D01*
X131576265Y-99483637D01*
X131476412Y-99711282D01*
X131415387Y-99952261D01*
X131415385Y-99952270D01*
X131394859Y-100199994D01*
X96105467Y-100199994D01*
X96090333Y-100027007D01*
X96085635Y-99973308D01*
X96026739Y-99753504D01*
X95930568Y-99547266D01*
X95800047Y-99360861D01*
X95800045Y-99360858D01*
X95639141Y-99199954D01*
X95452735Y-99069433D01*
X95452736Y-99069433D01*
X95452734Y-99069432D01*
X95337453Y-99015675D01*
X95323285Y-99007906D01*
X95303785Y-98995496D01*
X95303780Y-98995493D01*
X94145304Y-98472608D01*
X94108636Y-98447268D01*
X93886819Y-98225451D01*
X93853334Y-98164128D01*
X93850500Y-98137770D01*
X93850500Y-96899999D01*
X114044785Y-96899999D01*
X114044785Y-96900000D01*
X114063602Y-97103082D01*
X114119417Y-97299247D01*
X114119422Y-97299260D01*
X114210323Y-97481814D01*
X114210331Y-97481827D01*
X114243141Y-97525275D01*
X114267832Y-97590636D01*
X114253266Y-97658971D01*
X114243141Y-97674725D01*
X114210331Y-97718172D01*
X114210323Y-97718185D01*
X114119422Y-97900739D01*
X114119417Y-97900752D01*
X114063602Y-98096917D01*
X114044785Y-98299999D01*
X114044785Y-98300000D01*
X114063602Y-98503082D01*
X114119417Y-98699247D01*
X114119422Y-98699260D01*
X114210327Y-98881821D01*
X114333237Y-99044581D01*
X114483958Y-99181980D01*
X114483960Y-99181982D01*
X114549955Y-99222844D01*
X114657363Y-99289348D01*
X114847544Y-99363024D01*
X115048024Y-99400500D01*
X115048026Y-99400500D01*
X115251974Y-99400500D01*
X115251976Y-99400500D01*
X115452456Y-99363024D01*
X115642637Y-99289348D01*
X115816041Y-99181981D01*
X115966764Y-99044579D01*
X116089673Y-98881821D01*
X116180582Y-98699250D01*
X116236397Y-98503083D01*
X116255215Y-98300000D01*
X116252457Y-98270241D01*
X116236397Y-98096917D01*
X116223445Y-98051395D01*
X116180582Y-97900750D01*
X116141477Y-97822217D01*
X116119039Y-97777155D01*
X125825000Y-97777155D01*
X125825000Y-98250000D01*
X126684314Y-98250000D01*
X126679920Y-98254394D01*
X126627259Y-98345606D01*
X126600000Y-98447339D01*
X126600000Y-98552661D01*
X126627259Y-98654394D01*
X126679920Y-98745606D01*
X126684314Y-98750000D01*
X125825000Y-98750000D01*
X125825000Y-99222844D01*
X125831401Y-99282372D01*
X125831403Y-99282379D01*
X125881645Y-99417086D01*
X125881649Y-99417093D01*
X125967809Y-99532187D01*
X125967812Y-99532190D01*
X126082906Y-99618350D01*
X126082913Y-99618354D01*
X126217620Y-99668596D01*
X126217627Y-99668598D01*
X126277155Y-99674999D01*
X126277172Y-99675000D01*
X126750000Y-99675000D01*
X126750000Y-98815686D01*
X126754394Y-98820080D01*
X126845606Y-98872741D01*
X126947339Y-98900000D01*
X127052661Y-98900000D01*
X127154394Y-98872741D01*
X127245606Y-98820080D01*
X127250000Y-98815686D01*
X127250000Y-99675000D01*
X127722828Y-99675000D01*
X127722844Y-99674999D01*
X127782372Y-99668598D01*
X127782379Y-99668596D01*
X127917086Y-99618354D01*
X127917093Y-99618350D01*
X128032187Y-99532190D01*
X128032190Y-99532187D01*
X128118350Y-99417093D01*
X128118354Y-99417086D01*
X128168596Y-99282379D01*
X128168598Y-99282372D01*
X128174999Y-99222844D01*
X128175000Y-99222827D01*
X128175000Y-98750000D01*
X127315686Y-98750000D01*
X127320080Y-98745606D01*
X127372741Y-98654394D01*
X127400000Y-98552661D01*
X127400000Y-98447339D01*
X127372741Y-98345606D01*
X127320080Y-98254394D01*
X127315686Y-98250000D01*
X128175000Y-98250000D01*
X128175000Y-97777172D01*
X128174999Y-97777155D01*
X128168598Y-97717627D01*
X128168596Y-97717620D01*
X128118354Y-97582913D01*
X128118350Y-97582906D01*
X128032190Y-97467812D01*
X128032187Y-97467809D01*
X127917093Y-97381649D01*
X127917086Y-97381645D01*
X127782379Y-97331403D01*
X127782372Y-97331401D01*
X127722844Y-97325000D01*
X127250000Y-97325000D01*
X127250000Y-98184314D01*
X127245606Y-98179920D01*
X127154394Y-98127259D01*
X127052661Y-98100000D01*
X126947339Y-98100000D01*
X126845606Y-98127259D01*
X126754394Y-98179920D01*
X126750000Y-98184314D01*
X126750000Y-97325000D01*
X126277155Y-97325000D01*
X126217627Y-97331401D01*
X126217620Y-97331403D01*
X126082913Y-97381645D01*
X126082906Y-97381649D01*
X125967812Y-97467809D01*
X125967809Y-97467812D01*
X125881649Y-97582906D01*
X125881645Y-97582913D01*
X125831403Y-97717620D01*
X125831401Y-97717627D01*
X125825000Y-97777155D01*
X116119039Y-97777155D01*
X116089672Y-97718177D01*
X116056860Y-97674728D01*
X116032167Y-97609367D01*
X116046732Y-97541032D01*
X116056860Y-97525272D01*
X116089672Y-97481822D01*
X116089671Y-97481822D01*
X116089673Y-97481821D01*
X116180582Y-97299250D01*
X116236397Y-97103083D01*
X116255215Y-96900000D01*
X116236397Y-96696917D01*
X116180582Y-96500750D01*
X116089673Y-96318179D01*
X115966764Y-96155421D01*
X115966762Y-96155418D01*
X115816041Y-96018019D01*
X115816039Y-96018017D01*
X115642642Y-95910655D01*
X115642635Y-95910651D01*
X115519637Y-95863002D01*
X115452456Y-95836976D01*
X115251976Y-95799500D01*
X115048024Y-95799500D01*
X114847544Y-95836976D01*
X114847541Y-95836976D01*
X114847541Y-95836977D01*
X114657364Y-95910651D01*
X114657357Y-95910655D01*
X114483960Y-96018017D01*
X114483958Y-96018019D01*
X114333237Y-96155418D01*
X114210327Y-96318178D01*
X114119422Y-96500739D01*
X114119417Y-96500752D01*
X114063602Y-96696917D01*
X114044785Y-96899999D01*
X93850500Y-96899999D01*
X93850500Y-95699994D01*
X131394357Y-95699994D01*
X131394357Y-95700005D01*
X131414890Y-95947812D01*
X131414892Y-95947824D01*
X131475936Y-96188881D01*
X131575826Y-96416606D01*
X131711833Y-96624782D01*
X131711836Y-96624785D01*
X131880256Y-96807738D01*
X132076491Y-96960474D01*
X132295190Y-97078828D01*
X132530386Y-97159571D01*
X132775665Y-97200500D01*
X133024335Y-97200500D01*
X133269614Y-97159571D01*
X133504810Y-97078828D01*
X133723509Y-96960474D01*
X133919744Y-96807738D01*
X134088164Y-96624785D01*
X134224173Y-96416607D01*
X134324063Y-96188881D01*
X134385108Y-95947821D01*
X134388242Y-95910000D01*
X134405643Y-95700005D01*
X134405643Y-95699994D01*
X137894357Y-95699994D01*
X137894357Y-95700005D01*
X137914890Y-95947812D01*
X137914892Y-95947824D01*
X137975936Y-96188881D01*
X138075826Y-96416606D01*
X138211833Y-96624782D01*
X138211836Y-96624785D01*
X138380256Y-96807738D01*
X138576491Y-96960474D01*
X138795190Y-97078828D01*
X139030386Y-97159571D01*
X139275665Y-97200500D01*
X139524335Y-97200500D01*
X139769614Y-97159571D01*
X140004810Y-97078828D01*
X140223509Y-96960474D01*
X140419744Y-96807738D01*
X140588164Y-96624785D01*
X140724173Y-96416607D01*
X140824063Y-96188881D01*
X140885108Y-95947821D01*
X140888242Y-95910000D01*
X140905643Y-95700005D01*
X140905643Y-95699994D01*
X140885109Y-95452187D01*
X140885107Y-95452175D01*
X140824063Y-95211118D01*
X140724173Y-94983393D01*
X140588166Y-94775217D01*
X140566557Y-94751744D01*
X140419744Y-94592262D01*
X140223509Y-94439526D01*
X140223507Y-94439525D01*
X140223506Y-94439524D01*
X140004811Y-94321172D01*
X140004802Y-94321169D01*
X139769616Y-94240429D01*
X139524335Y-94199500D01*
X139275665Y-94199500D01*
X139030383Y-94240429D01*
X138795197Y-94321169D01*
X138795188Y-94321172D01*
X138576493Y-94439524D01*
X138380257Y-94592261D01*
X138211833Y-94775217D01*
X138075826Y-94983393D01*
X137975936Y-95211118D01*
X137914892Y-95452175D01*
X137914890Y-95452187D01*
X137894357Y-95699994D01*
X134405643Y-95699994D01*
X134385109Y-95452187D01*
X134385107Y-95452175D01*
X134324063Y-95211118D01*
X134224173Y-94983393D01*
X134088166Y-94775217D01*
X134066557Y-94751744D01*
X133919744Y-94592262D01*
X133723509Y-94439526D01*
X133723507Y-94439525D01*
X133723506Y-94439524D01*
X133504811Y-94321172D01*
X133504802Y-94321169D01*
X133269616Y-94240429D01*
X133024335Y-94199500D01*
X132775665Y-94199500D01*
X132530383Y-94240429D01*
X132295197Y-94321169D01*
X132295188Y-94321172D01*
X132076493Y-94439524D01*
X131880257Y-94592261D01*
X131711833Y-94775217D01*
X131575826Y-94983393D01*
X131475936Y-95211118D01*
X131414892Y-95452175D01*
X131414890Y-95452187D01*
X131394357Y-95699994D01*
X93850500Y-95699994D01*
X93850500Y-93777135D01*
X125824500Y-93777135D01*
X125824500Y-95222870D01*
X125824501Y-95222876D01*
X125830908Y-95282483D01*
X125881202Y-95417328D01*
X125881206Y-95417335D01*
X125967452Y-95532544D01*
X125967455Y-95532547D01*
X126082664Y-95618793D01*
X126082671Y-95618797D01*
X126217517Y-95669091D01*
X126217516Y-95669091D01*
X126224444Y-95669835D01*
X126277127Y-95675500D01*
X127722872Y-95675499D01*
X127782483Y-95669091D01*
X127917331Y-95618796D01*
X128032546Y-95532546D01*
X128118796Y-95417331D01*
X128169091Y-95282483D01*
X128175500Y-95222873D01*
X128175499Y-93777128D01*
X128169091Y-93717517D01*
X128125821Y-93601505D01*
X128118797Y-93582671D01*
X128118793Y-93582664D01*
X128032547Y-93467455D01*
X128032544Y-93467452D01*
X127917335Y-93381206D01*
X127917328Y-93381202D01*
X127782482Y-93330908D01*
X127782483Y-93330908D01*
X127722883Y-93324501D01*
X127722881Y-93324500D01*
X127722873Y-93324500D01*
X127722864Y-93324500D01*
X126277129Y-93324500D01*
X126277123Y-93324501D01*
X126217516Y-93330908D01*
X126082671Y-93381202D01*
X126082664Y-93381206D01*
X125967455Y-93467452D01*
X125967452Y-93467455D01*
X125881206Y-93582664D01*
X125881202Y-93582671D01*
X125830908Y-93717517D01*
X125825417Y-93768597D01*
X125824501Y-93777123D01*
X125824500Y-93777135D01*
X93850500Y-93777135D01*
X93850500Y-91599998D01*
X108694532Y-91599998D01*
X108694532Y-91600001D01*
X108714364Y-91826686D01*
X108714366Y-91826697D01*
X108773258Y-92046488D01*
X108773261Y-92046497D01*
X108869431Y-92252732D01*
X108869432Y-92252734D01*
X108999954Y-92439141D01*
X109160858Y-92600045D01*
X109160861Y-92600047D01*
X109347266Y-92730568D01*
X109553504Y-92826739D01*
X109773308Y-92885635D01*
X109935230Y-92899801D01*
X109999998Y-92905468D01*
X110000000Y-92905468D01*
X110000002Y-92905468D01*
X110056673Y-92900509D01*
X110226692Y-92885635D01*
X110446496Y-92826739D01*
X110652734Y-92730568D01*
X110839139Y-92600047D01*
X111000047Y-92439139D01*
X111130568Y-92252734D01*
X111184336Y-92137425D01*
X111192090Y-92123286D01*
X111204505Y-92103781D01*
X111727391Y-90945301D01*
X111752726Y-90908640D01*
X112711368Y-89949998D01*
X118044532Y-89949998D01*
X118044532Y-89950001D01*
X118064364Y-90176686D01*
X118064366Y-90176697D01*
X118123258Y-90396488D01*
X118123261Y-90396497D01*
X118219431Y-90602732D01*
X118219432Y-90602734D01*
X118349954Y-90789141D01*
X118510858Y-90950045D01*
X118510861Y-90950047D01*
X118697266Y-91080568D01*
X118903504Y-91176739D01*
X119123308Y-91235635D01*
X119285230Y-91249801D01*
X119349998Y-91255468D01*
X119350000Y-91255468D01*
X119350002Y-91255468D01*
X119406673Y-91250509D01*
X119576692Y-91235635D01*
X119796496Y-91176739D01*
X120002734Y-91080568D01*
X120189139Y-90950047D01*
X120350047Y-90789139D01*
X120480568Y-90602734D01*
X120576739Y-90396496D01*
X120635516Y-90177135D01*
X125824500Y-90177135D01*
X125824500Y-91622870D01*
X125824501Y-91622876D01*
X125830908Y-91682483D01*
X125881202Y-91817328D01*
X125881206Y-91817335D01*
X125967452Y-91932544D01*
X125967455Y-91932547D01*
X126082664Y-92018793D01*
X126082671Y-92018797D01*
X126217517Y-92069091D01*
X126217516Y-92069091D01*
X126224444Y-92069835D01*
X126277127Y-92075500D01*
X127722872Y-92075499D01*
X127782483Y-92069091D01*
X127917331Y-92018796D01*
X128032546Y-91932546D01*
X128118796Y-91817331D01*
X128169091Y-91682483D01*
X128175500Y-91622873D01*
X128175499Y-90177128D01*
X128169091Y-90117517D01*
X128118796Y-89982669D01*
X128118795Y-89982668D01*
X128118793Y-89982664D01*
X128032547Y-89867455D01*
X128032544Y-89867452D01*
X127917335Y-89781206D01*
X127917328Y-89781202D01*
X127782482Y-89730908D01*
X127782483Y-89730908D01*
X127722883Y-89724501D01*
X127722881Y-89724500D01*
X127722873Y-89724500D01*
X127722864Y-89724500D01*
X126277129Y-89724500D01*
X126277123Y-89724501D01*
X126217516Y-89730908D01*
X126082671Y-89781202D01*
X126082664Y-89781206D01*
X125967455Y-89867452D01*
X125967452Y-89867455D01*
X125881206Y-89982664D01*
X125881202Y-89982671D01*
X125830908Y-90117517D01*
X125824547Y-90176686D01*
X125824501Y-90177123D01*
X125824500Y-90177135D01*
X120635516Y-90177135D01*
X120635635Y-90176692D01*
X120655468Y-89950000D01*
X120635635Y-89723308D01*
X120576739Y-89503504D01*
X120572176Y-89493719D01*
X120564664Y-89472959D01*
X120563855Y-89469894D01*
X120157172Y-88280780D01*
X120150500Y-88240653D01*
X120150500Y-85809994D01*
X134719556Y-85809994D01*
X134719556Y-85810005D01*
X134739310Y-86124004D01*
X134739311Y-86124011D01*
X134798270Y-86433083D01*
X134895497Y-86732316D01*
X134895499Y-86732321D01*
X135029461Y-87017003D01*
X135029464Y-87017009D01*
X135198051Y-87282661D01*
X135198054Y-87282665D01*
X135398606Y-87525090D01*
X135398608Y-87525092D01*
X135398610Y-87525094D01*
X135518451Y-87637632D01*
X135627968Y-87740476D01*
X135627978Y-87740484D01*
X135882504Y-87925408D01*
X135882509Y-87925410D01*
X135882516Y-87925416D01*
X136158234Y-88076994D01*
X136158239Y-88076996D01*
X136158241Y-88076997D01*
X136158242Y-88076998D01*
X136450771Y-88192818D01*
X136450774Y-88192819D01*
X136637076Y-88240653D01*
X136755527Y-88271066D01*
X136821010Y-88279338D01*
X137067670Y-88310499D01*
X137067679Y-88310499D01*
X137067682Y-88310500D01*
X137067684Y-88310500D01*
X137382316Y-88310500D01*
X137382318Y-88310500D01*
X137382321Y-88310499D01*
X137382329Y-88310499D01*
X137568593Y-88286968D01*
X137694473Y-88271066D01*
X137999225Y-88192819D01*
X137999228Y-88192818D01*
X138291757Y-88076998D01*
X138291758Y-88076997D01*
X138291756Y-88076997D01*
X138291766Y-88076994D01*
X138567484Y-87925416D01*
X138822030Y-87740478D01*
X139051390Y-87525094D01*
X139251947Y-87282663D01*
X139420537Y-87017007D01*
X139554503Y-86732315D01*
X139651731Y-86433079D01*
X139710688Y-86124015D01*
X139720687Y-85965084D01*
X139730444Y-85810005D01*
X139730444Y-85809994D01*
X139710689Y-85495995D01*
X139710688Y-85495988D01*
X139710688Y-85495985D01*
X139651731Y-85186921D01*
X139554503Y-84887685D01*
X139420537Y-84602993D01*
X139251947Y-84337337D01*
X139221021Y-84299954D01*
X139051393Y-84094909D01*
X139051391Y-84094907D01*
X139028342Y-84073262D01*
X138822030Y-83879522D01*
X138822027Y-83879520D01*
X138822021Y-83879515D01*
X138567495Y-83694591D01*
X138567488Y-83694586D01*
X138567484Y-83694584D01*
X138291766Y-83543006D01*
X138291763Y-83543004D01*
X138291758Y-83543002D01*
X138291757Y-83543001D01*
X137999228Y-83427181D01*
X137999225Y-83427180D01*
X137694476Y-83348934D01*
X137694463Y-83348932D01*
X137382329Y-83309500D01*
X137382318Y-83309500D01*
X137067682Y-83309500D01*
X137067670Y-83309500D01*
X136755536Y-83348932D01*
X136755523Y-83348934D01*
X136450774Y-83427180D01*
X136450771Y-83427181D01*
X136158242Y-83543001D01*
X136158241Y-83543002D01*
X135882516Y-83694584D01*
X135882504Y-83694591D01*
X135627978Y-83879515D01*
X135627968Y-83879523D01*
X135398608Y-84094907D01*
X135398606Y-84094909D01*
X135198054Y-84337334D01*
X135198051Y-84337338D01*
X135029464Y-84602990D01*
X135029461Y-84602996D01*
X134895499Y-84887678D01*
X134895497Y-84887683D01*
X134798270Y-85186916D01*
X134739311Y-85495988D01*
X134739310Y-85495995D01*
X134719556Y-85809994D01*
X120150500Y-85809994D01*
X120150500Y-67862229D01*
X120170185Y-67795190D01*
X120186815Y-67774552D01*
X120408640Y-67552726D01*
X120445301Y-67527391D01*
X121603781Y-67004505D01*
X121644728Y-66983736D01*
X121644738Y-66983727D01*
X121649663Y-66980617D01*
X121649844Y-66980904D01*
X121666377Y-66970836D01*
X121752734Y-66930568D01*
X121939139Y-66800047D01*
X122100047Y-66639139D01*
X122230568Y-66452734D01*
X122326739Y-66246496D01*
X122385635Y-66026692D01*
X122405468Y-65800000D01*
X122385635Y-65573308D01*
X122326739Y-65353504D01*
X122230568Y-65147266D01*
X122100047Y-64960861D01*
X122100045Y-64960858D01*
X121939141Y-64799954D01*
X121752734Y-64669432D01*
X121752732Y-64669431D01*
X121546497Y-64573261D01*
X121546488Y-64573258D01*
X121326697Y-64514366D01*
X121326693Y-64514365D01*
X121326692Y-64514365D01*
X121326691Y-64514364D01*
X121326686Y-64514364D01*
X121100002Y-64494532D01*
X121099998Y-64494532D01*
X120873313Y-64514364D01*
X120873302Y-64514366D01*
X120653511Y-64573258D01*
X120653502Y-64573261D01*
X120447267Y-64669431D01*
X120447265Y-64669432D01*
X120260858Y-64799954D01*
X120099954Y-64960858D01*
X119969431Y-65147266D01*
X119915676Y-65262543D01*
X119907908Y-65276709D01*
X119895501Y-65296205D01*
X119895493Y-65296219D01*
X119760263Y-65595828D01*
X119372607Y-66454695D01*
X119347267Y-66491363D01*
X118817049Y-67021581D01*
X118767812Y-67095271D01*
X118734921Y-67144496D01*
X118734914Y-67144508D01*
X118678342Y-67281086D01*
X118678340Y-67281092D01*
X118649500Y-67426079D01*
X118649500Y-88221236D01*
X118639830Y-88269242D01*
X118149354Y-89437336D01*
X118149343Y-89437365D01*
X118135388Y-89476259D01*
X118131058Y-89486782D01*
X118123260Y-89503504D01*
X118064366Y-89723302D01*
X118064364Y-89723313D01*
X118044532Y-89949998D01*
X112711368Y-89949998D01*
X114982952Y-87678415D01*
X115010205Y-87637627D01*
X115065084Y-87555495D01*
X115065087Y-87555488D01*
X115088518Y-87498921D01*
X115088518Y-87498920D01*
X115121659Y-87418912D01*
X115150500Y-87273917D01*
X115150500Y-87126082D01*
X115150500Y-83128236D01*
X115158511Y-83084390D01*
X115607941Y-81895488D01*
X115607942Y-81895486D01*
X115615121Y-81873526D01*
X115620589Y-81859681D01*
X115626739Y-81846496D01*
X115685635Y-81626692D01*
X115705468Y-81400000D01*
X115685635Y-81173308D01*
X115626739Y-80953504D01*
X115530568Y-80747266D01*
X115400047Y-80560861D01*
X115400045Y-80560858D01*
X115239141Y-80399954D01*
X115052734Y-80269432D01*
X115052732Y-80269431D01*
X114846497Y-80173261D01*
X114846488Y-80173258D01*
X114626697Y-80114366D01*
X114626693Y-80114365D01*
X114626692Y-80114365D01*
X114626691Y-80114364D01*
X114626686Y-80114364D01*
X114400002Y-80094532D01*
X114399998Y-80094532D01*
X114173313Y-80114364D01*
X114173302Y-80114366D01*
X113953511Y-80173258D01*
X113953502Y-80173261D01*
X113747267Y-80269431D01*
X113747265Y-80269432D01*
X113560858Y-80399954D01*
X113399954Y-80560858D01*
X113269432Y-80747265D01*
X113269431Y-80747267D01*
X113173261Y-80953502D01*
X113173258Y-80953511D01*
X113114366Y-81173302D01*
X113114364Y-81173313D01*
X113094532Y-81399998D01*
X113094532Y-81400001D01*
X113114364Y-81626686D01*
X113114366Y-81626697D01*
X113173258Y-81846488D01*
X113173263Y-81846502D01*
X113182646Y-81866623D01*
X113191310Y-81892124D01*
X113192057Y-81895484D01*
X113192058Y-81895486D01*
X113192062Y-81895499D01*
X113641489Y-83084390D01*
X113649500Y-83128236D01*
X113649500Y-86837769D01*
X113629815Y-86904808D01*
X113613181Y-86925450D01*
X110691365Y-89847265D01*
X110654697Y-89872605D01*
X109957659Y-90187220D01*
X109496229Y-90395488D01*
X109455271Y-90416263D01*
X109450336Y-90419382D01*
X109450155Y-90419095D01*
X109433625Y-90429160D01*
X109347267Y-90469430D01*
X109347264Y-90469432D01*
X109160858Y-90599954D01*
X108999954Y-90760858D01*
X108869432Y-90947265D01*
X108869431Y-90947267D01*
X108773261Y-91153502D01*
X108773258Y-91153511D01*
X108714366Y-91373302D01*
X108714364Y-91373313D01*
X108694532Y-91599998D01*
X93850500Y-91599998D01*
X93850500Y-89326079D01*
X93821659Y-89181092D01*
X93821658Y-89181091D01*
X93821658Y-89181087D01*
X93821656Y-89181082D01*
X93765087Y-89044511D01*
X93765080Y-89044498D01*
X93682952Y-88921585D01*
X93682951Y-88921584D01*
X93578416Y-88817049D01*
X92954186Y-88192818D01*
X92678421Y-87917052D01*
X92678420Y-87917051D01*
X92678414Y-87917047D01*
X92598904Y-87863921D01*
X92598903Y-87863920D01*
X92555500Y-87834919D01*
X92555488Y-87834912D01*
X92418917Y-87778343D01*
X92418907Y-87778340D01*
X92273920Y-87749500D01*
X92273918Y-87749500D01*
X78726082Y-87749500D01*
X78726080Y-87749500D01*
X78581092Y-87778340D01*
X78581082Y-87778343D01*
X78444507Y-87834914D01*
X78323231Y-87915947D01*
X78323230Y-87915949D01*
X78321586Y-87917048D01*
X78321579Y-87917053D01*
X75777049Y-90461582D01*
X75777049Y-90461583D01*
X75777048Y-90461584D01*
X75765565Y-90478769D01*
X75754082Y-90495956D01*
X75694913Y-90584508D01*
X75638342Y-90721084D01*
X75638340Y-90721092D01*
X75621362Y-90806445D01*
X75600313Y-90854793D01*
X75360297Y-91187550D01*
X75347415Y-91202687D01*
X75321504Y-91228600D01*
X75321500Y-91228604D01*
X75185965Y-91422169D01*
X75185964Y-91422171D01*
X75086098Y-91636335D01*
X75086094Y-91636344D01*
X75024938Y-91864586D01*
X75024936Y-91864596D01*
X75004341Y-92099999D01*
X69500500Y-92099999D01*
X69500500Y-85809994D01*
X73719556Y-85809994D01*
X73719556Y-85810005D01*
X73739310Y-86124004D01*
X73739311Y-86124011D01*
X73798270Y-86433083D01*
X73895497Y-86732316D01*
X73895499Y-86732321D01*
X74029461Y-87017003D01*
X74029464Y-87017009D01*
X74198051Y-87282661D01*
X74198054Y-87282665D01*
X74398606Y-87525090D01*
X74398608Y-87525092D01*
X74398610Y-87525094D01*
X74518451Y-87637632D01*
X74627968Y-87740476D01*
X74627978Y-87740484D01*
X74882504Y-87925408D01*
X74882509Y-87925410D01*
X74882516Y-87925416D01*
X75158234Y-88076994D01*
X75158239Y-88076996D01*
X75158241Y-88076997D01*
X75158242Y-88076998D01*
X75450771Y-88192818D01*
X75450774Y-88192819D01*
X75637076Y-88240653D01*
X75755527Y-88271066D01*
X75821010Y-88279338D01*
X76067670Y-88310499D01*
X76067679Y-88310499D01*
X76067682Y-88310500D01*
X76067684Y-88310500D01*
X76382316Y-88310500D01*
X76382318Y-88310500D01*
X76382321Y-88310499D01*
X76382329Y-88310499D01*
X76568593Y-88286968D01*
X76694473Y-88271066D01*
X76999225Y-88192819D01*
X76999228Y-88192818D01*
X77291757Y-88076998D01*
X77291758Y-88076997D01*
X77291756Y-88076997D01*
X77291766Y-88076994D01*
X77567484Y-87925416D01*
X77822030Y-87740478D01*
X78051390Y-87525094D01*
X78251947Y-87282663D01*
X78420537Y-87017007D01*
X78554503Y-86732315D01*
X78651731Y-86433079D01*
X78710688Y-86124015D01*
X78720687Y-85965084D01*
X78730444Y-85810005D01*
X78730444Y-85809994D01*
X78710689Y-85495995D01*
X78710688Y-85495988D01*
X78710688Y-85495985D01*
X78651731Y-85186921D01*
X78554503Y-84887685D01*
X78420537Y-84602993D01*
X78251947Y-84337337D01*
X78221021Y-84299954D01*
X78051393Y-84094909D01*
X78051391Y-84094907D01*
X78028342Y-84073262D01*
X77822030Y-83879522D01*
X77822027Y-83879520D01*
X77822021Y-83879515D01*
X77567495Y-83694591D01*
X77567488Y-83694586D01*
X77567484Y-83694584D01*
X77291766Y-83543006D01*
X77291763Y-83543004D01*
X77291758Y-83543002D01*
X77291757Y-83543001D01*
X76999228Y-83427181D01*
X76999225Y-83427180D01*
X76694476Y-83348934D01*
X76694463Y-83348932D01*
X76382329Y-83309500D01*
X76382318Y-83309500D01*
X76067682Y-83309500D01*
X76067670Y-83309500D01*
X75755536Y-83348932D01*
X75755523Y-83348934D01*
X75450774Y-83427180D01*
X75450771Y-83427181D01*
X75158242Y-83543001D01*
X75158241Y-83543002D01*
X74882516Y-83694584D01*
X74882504Y-83694591D01*
X74627978Y-83879515D01*
X74627968Y-83879523D01*
X74398608Y-84094907D01*
X74398606Y-84094909D01*
X74198054Y-84337334D01*
X74198051Y-84337338D01*
X74029464Y-84602990D01*
X74029461Y-84602996D01*
X73895499Y-84887678D01*
X73895497Y-84887683D01*
X73798270Y-85186916D01*
X73739311Y-85495988D01*
X73739310Y-85495995D01*
X73719556Y-85809994D01*
X69500500Y-85809994D01*
X69500500Y-66699998D01*
X84894532Y-66699998D01*
X84894532Y-66700001D01*
X84914364Y-66926686D01*
X84914366Y-66926697D01*
X84973258Y-67146488D01*
X84973261Y-67146497D01*
X85069431Y-67352732D01*
X85069432Y-67352734D01*
X85199954Y-67539141D01*
X85360858Y-67700045D01*
X85360861Y-67700047D01*
X85547266Y-67830568D01*
X85753504Y-67926739D01*
X85973308Y-67985635D01*
X86135230Y-67999801D01*
X86199998Y-68005468D01*
X86200000Y-68005468D01*
X86200002Y-68005468D01*
X86256673Y-68000509D01*
X86426692Y-67985635D01*
X86646496Y-67926739D01*
X86648164Y-67925960D01*
X86666983Y-67918976D01*
X87871063Y-67580136D01*
X87904653Y-67575500D01*
X111285994Y-67575500D01*
X111353033Y-67595185D01*
X111373675Y-67611819D01*
X113268181Y-69506325D01*
X113301666Y-69567648D01*
X113304500Y-69594006D01*
X113304500Y-70206352D01*
X113292293Y-70260001D01*
X112858180Y-71164595D01*
X112811428Y-71216519D01*
X112744026Y-71234924D01*
X112677374Y-71213966D01*
X112655157Y-71194929D01*
X112649594Y-71188886D01*
X112591784Y-71126087D01*
X112591779Y-71126083D01*
X112591777Y-71126081D01*
X112408634Y-70983535D01*
X112408628Y-70983531D01*
X112204504Y-70873064D01*
X112204495Y-70873061D01*
X111984984Y-70797702D01*
X111813282Y-70769050D01*
X111756049Y-70759500D01*
X111523951Y-70759500D01*
X111478164Y-70767140D01*
X111295015Y-70797702D01*
X111075504Y-70873061D01*
X111075495Y-70873064D01*
X110871371Y-70983531D01*
X110871365Y-70983535D01*
X110688222Y-71126081D01*
X110688219Y-71126084D01*
X110531016Y-71296852D01*
X110473809Y-71384416D01*
X110420662Y-71429773D01*
X110351431Y-71439197D01*
X110288095Y-71409695D01*
X110266191Y-71384416D01*
X110208983Y-71296852D01*
X110208980Y-71296849D01*
X110208979Y-71296847D01*
X110051784Y-71126087D01*
X110051779Y-71126083D01*
X110051777Y-71126081D01*
X109868634Y-70983535D01*
X109868628Y-70983531D01*
X109664504Y-70873064D01*
X109664495Y-70873061D01*
X109444984Y-70797702D01*
X109273282Y-70769050D01*
X109216049Y-70759500D01*
X108983951Y-70759500D01*
X108938164Y-70767140D01*
X108755015Y-70797702D01*
X108535504Y-70873061D01*
X108535495Y-70873064D01*
X108331371Y-70983531D01*
X108331365Y-70983535D01*
X108148222Y-71126081D01*
X108148219Y-71126084D01*
X107991016Y-71296852D01*
X107933809Y-71384416D01*
X107880662Y-71429773D01*
X107811431Y-71439197D01*
X107748095Y-71409695D01*
X107726191Y-71384416D01*
X107668983Y-71296852D01*
X107668980Y-71296849D01*
X107668979Y-71296847D01*
X107511784Y-71126087D01*
X107511779Y-71126083D01*
X107511777Y-71126081D01*
X107328634Y-70983535D01*
X107328628Y-70983531D01*
X107124504Y-70873064D01*
X107124495Y-70873061D01*
X106904984Y-70797702D01*
X106733282Y-70769050D01*
X106676049Y-70759500D01*
X106443951Y-70759500D01*
X106398164Y-70767140D01*
X106215015Y-70797702D01*
X105995504Y-70873061D01*
X105995495Y-70873064D01*
X105791371Y-70983531D01*
X105791365Y-70983535D01*
X105608222Y-71126081D01*
X105608219Y-71126084D01*
X105451016Y-71296852D01*
X105393809Y-71384416D01*
X105340662Y-71429773D01*
X105271431Y-71439197D01*
X105208095Y-71409695D01*
X105186191Y-71384416D01*
X105128983Y-71296852D01*
X105128980Y-71296849D01*
X105128979Y-71296847D01*
X104971784Y-71126087D01*
X104971779Y-71126083D01*
X104971777Y-71126081D01*
X104788634Y-70983535D01*
X104788628Y-70983531D01*
X104584504Y-70873064D01*
X104584495Y-70873061D01*
X104364984Y-70797702D01*
X104193282Y-70769050D01*
X104136049Y-70759500D01*
X103903951Y-70759500D01*
X103858164Y-70767140D01*
X103675015Y-70797702D01*
X103455504Y-70873061D01*
X103455495Y-70873064D01*
X103251371Y-70983531D01*
X103251365Y-70983535D01*
X103068222Y-71126081D01*
X103068219Y-71126084D01*
X102911016Y-71296852D01*
X102853809Y-71384416D01*
X102800662Y-71429773D01*
X102731431Y-71439197D01*
X102668095Y-71409695D01*
X102646191Y-71384416D01*
X102588983Y-71296852D01*
X102588980Y-71296849D01*
X102588979Y-71296847D01*
X102431784Y-71126087D01*
X102431779Y-71126083D01*
X102431777Y-71126081D01*
X102248634Y-70983535D01*
X102248628Y-70983531D01*
X102044504Y-70873064D01*
X102044495Y-70873061D01*
X101824984Y-70797702D01*
X101653282Y-70769050D01*
X101596049Y-70759500D01*
X101363951Y-70759500D01*
X101318164Y-70767140D01*
X101135015Y-70797702D01*
X100915504Y-70873061D01*
X100915495Y-70873064D01*
X100711371Y-70983531D01*
X100711365Y-70983535D01*
X100528222Y-71126081D01*
X100528219Y-71126084D01*
X100528216Y-71126086D01*
X100528216Y-71126087D01*
X100472020Y-71187133D01*
X100371015Y-71296854D01*
X100313509Y-71384874D01*
X100260363Y-71430230D01*
X100191132Y-71439654D01*
X100127796Y-71410152D01*
X100105892Y-71384873D01*
X100091186Y-71362364D01*
X99422962Y-72030589D01*
X99405925Y-71967007D01*
X99340099Y-71852993D01*
X99247007Y-71759901D01*
X99132993Y-71694075D01*
X99069409Y-71677037D01*
X99738797Y-71007647D01*
X99738797Y-71007645D01*
X99708360Y-70983955D01*
X99708354Y-70983951D01*
X99504302Y-70873523D01*
X99504293Y-70873520D01*
X99284860Y-70798188D01*
X99056007Y-70760000D01*
X98823993Y-70760000D01*
X98595139Y-70798188D01*
X98375706Y-70873520D01*
X98375697Y-70873523D01*
X98171650Y-70983949D01*
X98141200Y-71007647D01*
X98810591Y-71677037D01*
X98747007Y-71694075D01*
X98632993Y-71759901D01*
X98539901Y-71852993D01*
X98474075Y-71967007D01*
X98457037Y-72030590D01*
X97788812Y-71362365D01*
X97704516Y-71491391D01*
X97704514Y-71491395D01*
X97611317Y-71703864D01*
X97554361Y-71928781D01*
X97535202Y-72159994D01*
X97535202Y-72160005D01*
X97554361Y-72391218D01*
X97611317Y-72616135D01*
X97704516Y-72828609D01*
X97788811Y-72957633D01*
X98457037Y-72289408D01*
X98474075Y-72352993D01*
X98539901Y-72467007D01*
X98632993Y-72560099D01*
X98747007Y-72625925D01*
X98810590Y-72642962D01*
X98141201Y-73312351D01*
X98166633Y-73332145D01*
X98207446Y-73388856D01*
X98211121Y-73458629D01*
X98176490Y-73519312D01*
X98166632Y-73527853D01*
X98141201Y-73547646D01*
X98141200Y-73547647D01*
X98810591Y-74217037D01*
X98747007Y-74234075D01*
X98632993Y-74299901D01*
X98539901Y-74392993D01*
X98474075Y-74507007D01*
X98457037Y-74570590D01*
X97788812Y-73902365D01*
X97704516Y-74031391D01*
X97704514Y-74031395D01*
X97611317Y-74243864D01*
X97554361Y-74468781D01*
X97535202Y-74699994D01*
X97535202Y-74700005D01*
X97554361Y-74931218D01*
X97611317Y-75156135D01*
X97704516Y-75368609D01*
X97788811Y-75497633D01*
X98457037Y-74829408D01*
X98474075Y-74892993D01*
X98539901Y-75007007D01*
X98632993Y-75100099D01*
X98747007Y-75165925D01*
X98810590Y-75182962D01*
X98141201Y-75852351D01*
X98171649Y-75876050D01*
X98375697Y-75986476D01*
X98375706Y-75986479D01*
X98595139Y-76061811D01*
X98823993Y-76100000D01*
X99056007Y-76100000D01*
X99284860Y-76061811D01*
X99504293Y-75986479D01*
X99504301Y-75986476D01*
X99708355Y-75876047D01*
X99738797Y-75852351D01*
X99738798Y-75852350D01*
X99069410Y-75182962D01*
X99132993Y-75165925D01*
X99247007Y-75100099D01*
X99340099Y-75007007D01*
X99405925Y-74892993D01*
X99422962Y-74829410D01*
X100091186Y-75497634D01*
X100105892Y-75475126D01*
X100159038Y-75429769D01*
X100228269Y-75420345D01*
X100291605Y-75449847D01*
X100313510Y-75475126D01*
X100371016Y-75563147D01*
X100371019Y-75563151D01*
X100371021Y-75563153D01*
X100528216Y-75733913D01*
X100528219Y-75733915D01*
X100528222Y-75733918D01*
X100711365Y-75876464D01*
X100711371Y-75876468D01*
X100711374Y-75876470D01*
X100878860Y-75967109D01*
X100914652Y-75986479D01*
X100915497Y-75986936D01*
X101024917Y-76024500D01*
X101135015Y-76062297D01*
X101135017Y-76062297D01*
X101135019Y-76062298D01*
X101363951Y-76100500D01*
X101363952Y-76100500D01*
X101596048Y-76100500D01*
X101596049Y-76100500D01*
X101824981Y-76062298D01*
X102005237Y-76000415D01*
X102075036Y-75997266D01*
X102135457Y-76032352D01*
X102167317Y-76094535D01*
X102169500Y-76117697D01*
X102169500Y-76433393D01*
X102169500Y-76556607D01*
X102172117Y-76569766D01*
X102174500Y-76593955D01*
X102174500Y-77347648D01*
X102154815Y-77414687D01*
X102153603Y-77416538D01*
X102134913Y-77444508D01*
X102078343Y-77581082D01*
X102078340Y-77581092D01*
X102049500Y-77726079D01*
X102049500Y-77726082D01*
X102049500Y-79073918D01*
X102049500Y-79073920D01*
X102049499Y-79073920D01*
X102078340Y-79218907D01*
X102078343Y-79218917D01*
X102134914Y-79355492D01*
X102167812Y-79404727D01*
X102167813Y-79404730D01*
X102217046Y-79478414D01*
X102217052Y-79478421D01*
X108265646Y-85527013D01*
X108274886Y-85537349D01*
X108275163Y-85537696D01*
X108278649Y-85540638D01*
X108286340Y-85547707D01*
X108517048Y-85778415D01*
X108517049Y-85778416D01*
X108621584Y-85882951D01*
X108621585Y-85882952D01*
X108744498Y-85965080D01*
X108744511Y-85965087D01*
X108881082Y-86021656D01*
X108881087Y-86021658D01*
X108881091Y-86021658D01*
X108881092Y-86021659D01*
X109026079Y-86050500D01*
X109032142Y-86051097D01*
X109031925Y-86053291D01*
X109087862Y-86069322D01*
X109282146Y-86190642D01*
X109282147Y-86190643D01*
X109309356Y-86207633D01*
X109309356Y-86207634D01*
X109457348Y-86300047D01*
X109487051Y-86318595D01*
X109492492Y-86322195D01*
X109647266Y-86430568D01*
X109647268Y-86430569D01*
X109647267Y-86430569D01*
X109722662Y-86465726D01*
X109731552Y-86470316D01*
X109750518Y-86481102D01*
X109752225Y-86481982D01*
X109752230Y-86481984D01*
X109786923Y-86495898D01*
X109793171Y-86498605D01*
X109853504Y-86526739D01*
X110073308Y-86585635D01*
X110235230Y-86599801D01*
X110299998Y-86605468D01*
X110300000Y-86605468D01*
X110300002Y-86605468D01*
X110356673Y-86600509D01*
X110526692Y-86585635D01*
X110746496Y-86526739D01*
X110952734Y-86430568D01*
X111139139Y-86300047D01*
X111300047Y-86139139D01*
X111430568Y-85952734D01*
X111526739Y-85746496D01*
X111585635Y-85526692D01*
X111605468Y-85300000D01*
X111585635Y-85073308D01*
X111526739Y-84853504D01*
X111430568Y-84647266D01*
X111300047Y-84460861D01*
X111300045Y-84460858D01*
X111139141Y-84299954D01*
X110952734Y-84169432D01*
X110952732Y-84169431D01*
X110746497Y-84073261D01*
X110746488Y-84073258D01*
X110526697Y-84014366D01*
X110526693Y-84014365D01*
X110526692Y-84014365D01*
X110526691Y-84014364D01*
X110526686Y-84014364D01*
X110300002Y-83994532D01*
X110299998Y-83994532D01*
X110073313Y-84014364D01*
X110073302Y-84014366D01*
X109853502Y-84073261D01*
X109853500Y-84073262D01*
X109852068Y-84073930D01*
X109833062Y-84080962D01*
X109206717Y-84256031D01*
X109136853Y-84255119D01*
X109085656Y-84224289D01*
X103586819Y-78725451D01*
X103553334Y-78664128D01*
X103550500Y-78637770D01*
X103550500Y-77726079D01*
X103521659Y-77581092D01*
X103521658Y-77581091D01*
X103521658Y-77581087D01*
X103521656Y-77581082D01*
X103465086Y-77444508D01*
X103446397Y-77416538D01*
X103425520Y-77349861D01*
X103425500Y-77347648D01*
X103425500Y-76438393D01*
X103422882Y-76425231D01*
X103420500Y-76401042D01*
X103420500Y-76148594D01*
X103440185Y-76081555D01*
X103492989Y-76035800D01*
X103562147Y-76025856D01*
X103584759Y-76031312D01*
X103675019Y-76062298D01*
X103903951Y-76100500D01*
X103903952Y-76100500D01*
X104136048Y-76100500D01*
X104136049Y-76100500D01*
X104364981Y-76062298D01*
X104584503Y-75986936D01*
X104788626Y-75876470D01*
X104789170Y-75876047D01*
X104850129Y-75828600D01*
X104971784Y-75733913D01*
X105128979Y-75563153D01*
X105186191Y-75475582D01*
X105239337Y-75430226D01*
X105308568Y-75420802D01*
X105371904Y-75450304D01*
X105393809Y-75475583D01*
X105451016Y-75563147D01*
X105451019Y-75563151D01*
X105451021Y-75563153D01*
X105608216Y-75733913D01*
X105608219Y-75733915D01*
X105608222Y-75733918D01*
X105791365Y-75876464D01*
X105791371Y-75876468D01*
X105791374Y-75876470D01*
X105958860Y-75967109D01*
X105994652Y-75986479D01*
X105995497Y-75986936D01*
X106104917Y-76024500D01*
X106215015Y-76062297D01*
X106215017Y-76062297D01*
X106215019Y-76062298D01*
X106443951Y-76100500D01*
X106443952Y-76100500D01*
X106676048Y-76100500D01*
X106676049Y-76100500D01*
X106904981Y-76062298D01*
X107124503Y-75986936D01*
X107328626Y-75876470D01*
X107329170Y-75876047D01*
X107390129Y-75828600D01*
X107511784Y-75733913D01*
X107668979Y-75563153D01*
X107726191Y-75475582D01*
X107779337Y-75430226D01*
X107848568Y-75420802D01*
X107911904Y-75450304D01*
X107933809Y-75475583D01*
X107991016Y-75563147D01*
X107991019Y-75563151D01*
X107991021Y-75563153D01*
X108148216Y-75733913D01*
X108148219Y-75733915D01*
X108148222Y-75733918D01*
X108331365Y-75876464D01*
X108331371Y-75876468D01*
X108331374Y-75876470D01*
X108498860Y-75967109D01*
X108534652Y-75986479D01*
X108535497Y-75986936D01*
X108644917Y-76024500D01*
X108755015Y-76062297D01*
X108755017Y-76062297D01*
X108755019Y-76062298D01*
X108983951Y-76100500D01*
X108983952Y-76100500D01*
X109216048Y-76100500D01*
X109216049Y-76100500D01*
X109444981Y-76062298D01*
X109664503Y-75986936D01*
X109868626Y-75876470D01*
X109869170Y-75876047D01*
X109930129Y-75828600D01*
X110051784Y-75733913D01*
X110208979Y-75563153D01*
X110266191Y-75475582D01*
X110319337Y-75430226D01*
X110388568Y-75420802D01*
X110451904Y-75450304D01*
X110473809Y-75475583D01*
X110531016Y-75563147D01*
X110531019Y-75563151D01*
X110531021Y-75563153D01*
X110688216Y-75733913D01*
X110688219Y-75733915D01*
X110688222Y-75733918D01*
X110871365Y-75876464D01*
X110871371Y-75876468D01*
X110871374Y-75876470D01*
X111038860Y-75967109D01*
X111074652Y-75986479D01*
X111075497Y-75986936D01*
X111184917Y-76024500D01*
X111295015Y-76062297D01*
X111295017Y-76062297D01*
X111295019Y-76062298D01*
X111523951Y-76100500D01*
X111523952Y-76100500D01*
X111756048Y-76100500D01*
X111756049Y-76100500D01*
X111984981Y-76062298D01*
X112204503Y-75986936D01*
X112408626Y-75876470D01*
X112409170Y-75876047D01*
X112470129Y-75828600D01*
X112591784Y-75733913D01*
X112748979Y-75563153D01*
X112806191Y-75475582D01*
X112859337Y-75430226D01*
X112928568Y-75420802D01*
X112991904Y-75450304D01*
X113013809Y-75475583D01*
X113071016Y-75563147D01*
X113071019Y-75563151D01*
X113071021Y-75563153D01*
X113228216Y-75733913D01*
X113228219Y-75733915D01*
X113228222Y-75733918D01*
X113411365Y-75876464D01*
X113411371Y-75876468D01*
X113411374Y-75876470D01*
X113578860Y-75967109D01*
X113614652Y-75986479D01*
X113615497Y-75986936D01*
X113724917Y-76024500D01*
X113835015Y-76062297D01*
X113835017Y-76062297D01*
X113835019Y-76062298D01*
X114063951Y-76100500D01*
X114063952Y-76100500D01*
X114296048Y-76100500D01*
X114296049Y-76100500D01*
X114524981Y-76062298D01*
X114744503Y-75986936D01*
X114948626Y-75876470D01*
X114949170Y-75876047D01*
X115010129Y-75828600D01*
X115131784Y-75733913D01*
X115288979Y-75563153D01*
X115415924Y-75368849D01*
X115509157Y-75156300D01*
X115566134Y-74931305D01*
X115566135Y-74931297D01*
X115585300Y-74700006D01*
X115585300Y-74699993D01*
X115566135Y-74468702D01*
X115566133Y-74468691D01*
X115509157Y-74243699D01*
X115415924Y-74031151D01*
X115288983Y-73836853D01*
X115288982Y-73836852D01*
X115288979Y-73836847D01*
X115139387Y-73674346D01*
X115108467Y-73611695D01*
X115116327Y-73542269D01*
X115160474Y-73488114D01*
X115165505Y-73484839D01*
X115298656Y-73402712D01*
X115422712Y-73278656D01*
X115514814Y-73129334D01*
X115569999Y-72962797D01*
X115580500Y-72860009D01*
X115580499Y-71459992D01*
X115578421Y-71439654D01*
X115569999Y-71357203D01*
X115569998Y-71357200D01*
X115550001Y-71296854D01*
X115514814Y-71190666D01*
X115514812Y-71190662D01*
X115513984Y-71188886D01*
X115509802Y-71181233D01*
X115138254Y-70407007D01*
X115067707Y-70260002D01*
X115055500Y-70206353D01*
X115055500Y-69093768D01*
X115055499Y-69093766D01*
X115021856Y-68924633D01*
X115021855Y-68924626D01*
X115011654Y-68899998D01*
X114955861Y-68765301D01*
X114955854Y-68765288D01*
X114860046Y-68621902D01*
X114860045Y-68621901D01*
X114738099Y-68499955D01*
X113519230Y-67281086D01*
X112258102Y-66019957D01*
X112258098Y-66019954D01*
X112114711Y-65924145D01*
X112114698Y-65924138D01*
X111955378Y-65858146D01*
X111955366Y-65858143D01*
X111786232Y-65824500D01*
X111786229Y-65824500D01*
X87904657Y-65824500D01*
X87871067Y-65819864D01*
X86666975Y-65481019D01*
X86648167Y-65474040D01*
X86646496Y-65473261D01*
X86646497Y-65473261D01*
X86426697Y-65414366D01*
X86426693Y-65414365D01*
X86426692Y-65414365D01*
X86426691Y-65414364D01*
X86426686Y-65414364D01*
X86200002Y-65394532D01*
X86199998Y-65394532D01*
X85973313Y-65414364D01*
X85973302Y-65414366D01*
X85753511Y-65473258D01*
X85753502Y-65473261D01*
X85547267Y-65569431D01*
X85547265Y-65569432D01*
X85360858Y-65699954D01*
X85199954Y-65860858D01*
X85069432Y-66047265D01*
X85069431Y-66047267D01*
X84973261Y-66253502D01*
X84973258Y-66253511D01*
X84914366Y-66473302D01*
X84914364Y-66473313D01*
X84894532Y-66699998D01*
X69500500Y-66699998D01*
X69500500Y-64077306D01*
X69520185Y-64010267D01*
X69572989Y-63964512D01*
X69642147Y-63954568D01*
X69705703Y-63983593D01*
X69727599Y-64008411D01*
X69770524Y-64072653D01*
X69770729Y-64072960D01*
X69965241Y-64294758D01*
X70187044Y-64489274D01*
X70312735Y-64573258D01*
X70432335Y-64653172D01*
X70696923Y-64783652D01*
X70976278Y-64878481D01*
X71265620Y-64936034D01*
X71293888Y-64937886D01*
X71559993Y-64955329D01*
X71560000Y-64955329D01*
X71560007Y-64955329D01*
X71795675Y-64939881D01*
X71854380Y-64936034D01*
X72143722Y-64878481D01*
X72423077Y-64783652D01*
X72687665Y-64653172D01*
X72932957Y-64489273D01*
X73154758Y-64294758D01*
X73349273Y-64072957D01*
X73513172Y-63827665D01*
X73627425Y-63595981D01*
X73674730Y-63544562D01*
X73742325Y-63526880D01*
X73808749Y-63548550D01*
X73852914Y-63602691D01*
X73856568Y-63612506D01*
X73895499Y-63732321D01*
X74029461Y-64017003D01*
X74029464Y-64017009D01*
X74198051Y-64282661D01*
X74198054Y-64282665D01*
X74398606Y-64525090D01*
X74398608Y-64525092D01*
X74398610Y-64525094D01*
X74564172Y-64680567D01*
X74627968Y-64740476D01*
X74627978Y-64740484D01*
X74882504Y-64925408D01*
X74882509Y-64925410D01*
X74882516Y-64925416D01*
X75158234Y-65076994D01*
X75158239Y-65076996D01*
X75158241Y-65076997D01*
X75158242Y-65076998D01*
X75450771Y-65192818D01*
X75450774Y-65192819D01*
X75755523Y-65271065D01*
X75755527Y-65271066D01*
X75805587Y-65277390D01*
X76067670Y-65310499D01*
X76067679Y-65310499D01*
X76067682Y-65310500D01*
X76067684Y-65310500D01*
X76382316Y-65310500D01*
X76382318Y-65310500D01*
X76382321Y-65310499D01*
X76382329Y-65310499D01*
X76570637Y-65286710D01*
X76694473Y-65271066D01*
X76999225Y-65192819D01*
X76999228Y-65192818D01*
X77291757Y-65076998D01*
X77291758Y-65076997D01*
X77291756Y-65076997D01*
X77291766Y-65076994D01*
X77567484Y-64925416D01*
X77822030Y-64740478D01*
X78051390Y-64525094D01*
X78251947Y-64282663D01*
X78420537Y-64017007D01*
X78554503Y-63732315D01*
X78613742Y-63549998D01*
X125444532Y-63549998D01*
X125444532Y-63550001D01*
X125464364Y-63776686D01*
X125464366Y-63776697D01*
X125523258Y-63996488D01*
X125523261Y-63996497D01*
X125619431Y-64202732D01*
X125619432Y-64202734D01*
X125749954Y-64389141D01*
X125910858Y-64550045D01*
X125910861Y-64550047D01*
X126097266Y-64680568D01*
X126185226Y-64721584D01*
X126212543Y-64734322D01*
X126226718Y-64742094D01*
X126246218Y-64754505D01*
X127404696Y-65277391D01*
X127441363Y-65302730D01*
X127613181Y-65474548D01*
X127646666Y-65535871D01*
X127649500Y-65562229D01*
X127649500Y-67171761D01*
X127641489Y-67215607D01*
X127192068Y-68404484D01*
X127192045Y-68404547D01*
X127184876Y-68426472D01*
X127179405Y-68440325D01*
X127173261Y-68453502D01*
X127114366Y-68673302D01*
X127114364Y-68673313D01*
X127094532Y-68899998D01*
X127094532Y-68900001D01*
X127114364Y-69126686D01*
X127114366Y-69126697D01*
X127173258Y-69346488D01*
X127173261Y-69346497D01*
X127269431Y-69552732D01*
X127269432Y-69552734D01*
X127399954Y-69739141D01*
X127560858Y-69900045D01*
X127560861Y-69900047D01*
X127747266Y-70030568D01*
X127953504Y-70126739D01*
X128173308Y-70185635D01*
X128335230Y-70199801D01*
X128399998Y-70205468D01*
X128400000Y-70205468D01*
X128400002Y-70205468D01*
X128463631Y-70199901D01*
X128626692Y-70185635D01*
X128846496Y-70126739D01*
X129052734Y-70030568D01*
X129239139Y-69900047D01*
X129400047Y-69739139D01*
X129425957Y-69702135D01*
X133799500Y-69702135D01*
X133799500Y-71497870D01*
X133799501Y-71497876D01*
X133805908Y-71557483D01*
X133856202Y-71692328D01*
X133856206Y-71692335D01*
X133942452Y-71807544D01*
X133942453Y-71807544D01*
X133942454Y-71807546D01*
X133984105Y-71838726D01*
X134042603Y-71882518D01*
X134084473Y-71938452D01*
X134089457Y-72008143D01*
X134064658Y-72059819D01*
X133944534Y-72208161D01*
X133856212Y-72381504D01*
X133805858Y-72569425D01*
X133799500Y-72650216D01*
X133799500Y-73629783D01*
X133805858Y-73710574D01*
X133805858Y-73710577D01*
X133805859Y-73710578D01*
X133856212Y-73898496D01*
X133944535Y-74071840D01*
X134066968Y-74223032D01*
X134161893Y-74299901D01*
X134178852Y-74313634D01*
X134218563Y-74371121D01*
X134220891Y-74440952D01*
X134185095Y-74500956D01*
X134178852Y-74506366D01*
X134066968Y-74596968D01*
X133944534Y-74748161D01*
X133856212Y-74921504D01*
X133805858Y-75109425D01*
X133799500Y-75190216D01*
X133799500Y-76169783D01*
X133805858Y-76250574D01*
X133805858Y-76250577D01*
X133805859Y-76250578D01*
X133856212Y-76438496D01*
X133944535Y-76611840D01*
X134066968Y-76763032D01*
X134176100Y-76851405D01*
X134178852Y-76853634D01*
X134218563Y-76911121D01*
X134220891Y-76980952D01*
X134185095Y-77040956D01*
X134178852Y-77046366D01*
X134066968Y-77136968D01*
X133944534Y-77288161D01*
X133856212Y-77461504D01*
X133805858Y-77649425D01*
X133799500Y-77730216D01*
X133799500Y-78709783D01*
X133805858Y-78790574D01*
X133805858Y-78790577D01*
X133805859Y-78790578D01*
X133856212Y-78978496D01*
X133944535Y-79151840D01*
X134066968Y-79303032D01*
X134218160Y-79425465D01*
X134391504Y-79513788D01*
X134579422Y-79564141D01*
X134660222Y-79570500D01*
X134660230Y-79570500D01*
X135739770Y-79570500D01*
X135739778Y-79570500D01*
X135820578Y-79564141D01*
X136008496Y-79513788D01*
X136181840Y-79425465D01*
X136333032Y-79303032D01*
X136373635Y-79252891D01*
X136431121Y-79213181D01*
X136500952Y-79210853D01*
X136560956Y-79246648D01*
X136566356Y-79252881D01*
X136606968Y-79303032D01*
X136758160Y-79425465D01*
X136931504Y-79513788D01*
X137119422Y-79564141D01*
X137200222Y-79570500D01*
X137200230Y-79570500D01*
X138279770Y-79570500D01*
X138279778Y-79570500D01*
X138360578Y-79564141D01*
X138548496Y-79513788D01*
X138721840Y-79425465D01*
X138873032Y-79303032D01*
X138995465Y-79151840D01*
X139083788Y-78978496D01*
X139134141Y-78790578D01*
X139140500Y-78709778D01*
X139140500Y-77730222D01*
X139134141Y-77649422D01*
X139083788Y-77461504D01*
X138995465Y-77288160D01*
X138924074Y-77199999D01*
X140119464Y-77199999D01*
X140119464Y-77200000D01*
X140139564Y-77416918D01*
X140139564Y-77416920D01*
X140139565Y-77416923D01*
X140186272Y-77581082D01*
X140199184Y-77626462D01*
X140296288Y-77821472D01*
X140377747Y-77929341D01*
X140402439Y-77994702D01*
X140387874Y-78063037D01*
X140353105Y-78103334D01*
X140267452Y-78167455D01*
X140181206Y-78282664D01*
X140181202Y-78282671D01*
X140130908Y-78417517D01*
X140124501Y-78477116D01*
X140124501Y-78477123D01*
X140124500Y-78477135D01*
X140124500Y-79922870D01*
X140124501Y-79922876D01*
X140130908Y-79982483D01*
X140181202Y-80117328D01*
X140181206Y-80117335D01*
X140267452Y-80232544D01*
X140267455Y-80232547D01*
X140382664Y-80318793D01*
X140382671Y-80318797D01*
X140517517Y-80369091D01*
X140517516Y-80369091D01*
X140524444Y-80369835D01*
X140577127Y-80375500D01*
X142022872Y-80375499D01*
X142082483Y-80369091D01*
X142217331Y-80318796D01*
X142332546Y-80232546D01*
X142418796Y-80117331D01*
X142469091Y-79982483D01*
X142475500Y-79922873D01*
X142475499Y-78477128D01*
X142469091Y-78417517D01*
X142418796Y-78282669D01*
X142418795Y-78282668D01*
X142418793Y-78282664D01*
X142332547Y-78167455D01*
X142332544Y-78167452D01*
X142246895Y-78103335D01*
X142205024Y-78047402D01*
X142200040Y-77977710D01*
X142222251Y-77929344D01*
X142303712Y-77821472D01*
X142400817Y-77626459D01*
X142460435Y-77416923D01*
X142480536Y-77200000D01*
X142460435Y-76983077D01*
X142400817Y-76773541D01*
X142303712Y-76578528D01*
X142172427Y-76404678D01*
X142168438Y-76401042D01*
X142011433Y-76257913D01*
X142011423Y-76257906D01*
X141826213Y-76143229D01*
X141826207Y-76143226D01*
X141715917Y-76100500D01*
X141623069Y-76064530D01*
X141408926Y-76024500D01*
X141191074Y-76024500D01*
X140976931Y-76064530D01*
X140932985Y-76081555D01*
X140773792Y-76143226D01*
X140773786Y-76143229D01*
X140588576Y-76257906D01*
X140588566Y-76257913D01*
X140427574Y-76404676D01*
X140296288Y-76578527D01*
X140199184Y-76773537D01*
X140139564Y-76983081D01*
X140119464Y-77199999D01*
X138924074Y-77199999D01*
X138873032Y-77136968D01*
X138761145Y-77046364D01*
X138721436Y-76988879D01*
X138719108Y-76919048D01*
X138754903Y-76859044D01*
X138761133Y-76853646D01*
X138873032Y-76763032D01*
X138995465Y-76611840D01*
X139083788Y-76438496D01*
X139134141Y-76250578D01*
X139140500Y-76169778D01*
X139140500Y-75190222D01*
X139134141Y-75109422D01*
X139083788Y-74921504D01*
X138995465Y-74748160D01*
X138873032Y-74596968D01*
X138761145Y-74506364D01*
X138721436Y-74448879D01*
X138719108Y-74379048D01*
X138754903Y-74319044D01*
X138761133Y-74313646D01*
X138873032Y-74223032D01*
X138995465Y-74071840D01*
X139083788Y-73898496D01*
X139134141Y-73710578D01*
X139140500Y-73629778D01*
X139140500Y-72650222D01*
X139134141Y-72569422D01*
X139083788Y-72381504D01*
X138995465Y-72208160D01*
X138873032Y-72056968D01*
X138760747Y-71966041D01*
X138721038Y-71908557D01*
X138718710Y-71838726D01*
X138754505Y-71778722D01*
X138760749Y-71773312D01*
X138872675Y-71682675D01*
X138995042Y-71531567D01*
X139083317Y-71358315D01*
X139133644Y-71170497D01*
X139139999Y-71089743D01*
X139140000Y-71089730D01*
X139140000Y-70850000D01*
X138173012Y-70850000D01*
X138205925Y-70792993D01*
X138240000Y-70665826D01*
X138240000Y-70534174D01*
X138205925Y-70407007D01*
X138173012Y-70350000D01*
X139140000Y-70350000D01*
X139140000Y-70110269D01*
X139139999Y-70110256D01*
X139133644Y-70029502D01*
X139083317Y-69841684D01*
X138995042Y-69668432D01*
X138872675Y-69517324D01*
X138721567Y-69394957D01*
X138548315Y-69306682D01*
X138360497Y-69256355D01*
X138279743Y-69250000D01*
X137990000Y-69250000D01*
X137990000Y-70166988D01*
X137932993Y-70134075D01*
X137805826Y-70100000D01*
X137674174Y-70100000D01*
X137547007Y-70134075D01*
X137490000Y-70166988D01*
X137490000Y-69250000D01*
X137200256Y-69250000D01*
X137119502Y-69256355D01*
X136931684Y-69306682D01*
X136758432Y-69394957D01*
X136672377Y-69464643D01*
X136607889Y-69491534D01*
X136539101Y-69479291D01*
X136495076Y-69442588D01*
X136457546Y-69392454D01*
X136434709Y-69375358D01*
X136342335Y-69306206D01*
X136342328Y-69306202D01*
X136207482Y-69255908D01*
X136207483Y-69255908D01*
X136147883Y-69249501D01*
X136147881Y-69249500D01*
X136147873Y-69249500D01*
X136147864Y-69249500D01*
X134252129Y-69249500D01*
X134252123Y-69249501D01*
X134192516Y-69255908D01*
X134057671Y-69306202D01*
X134057664Y-69306206D01*
X133942455Y-69392452D01*
X133942452Y-69392455D01*
X133856206Y-69507664D01*
X133856202Y-69507671D01*
X133805908Y-69642517D01*
X133799501Y-69702116D01*
X133799500Y-69702135D01*
X129425957Y-69702135D01*
X129530568Y-69552734D01*
X129626739Y-69346496D01*
X129685635Y-69126692D01*
X129705468Y-68900000D01*
X129685635Y-68673308D01*
X129639186Y-68499956D01*
X129626740Y-68453507D01*
X129620593Y-68440325D01*
X129617352Y-68433374D01*
X129608684Y-68407855D01*
X129607942Y-68404513D01*
X129607940Y-68404510D01*
X129607940Y-68404506D01*
X129158511Y-67215608D01*
X129150500Y-67171762D01*
X129150500Y-65126079D01*
X129121659Y-64981092D01*
X129121658Y-64981091D01*
X129121658Y-64981087D01*
X129102997Y-64936035D01*
X129065087Y-64844511D01*
X129065080Y-64844498D01*
X128982952Y-64721585D01*
X128930798Y-64669431D01*
X128878416Y-64617049D01*
X128502730Y-64241363D01*
X128477390Y-64204695D01*
X128476504Y-64202732D01*
X127954505Y-63046218D01*
X127933736Y-63005271D01*
X127933733Y-63005267D01*
X127930618Y-63000337D01*
X127930905Y-63000155D01*
X127920839Y-62983626D01*
X127880568Y-62897266D01*
X127750047Y-62710861D01*
X127750045Y-62710858D01*
X127589141Y-62549954D01*
X127402734Y-62419432D01*
X127402732Y-62419431D01*
X127196497Y-62323261D01*
X127196488Y-62323258D01*
X126976697Y-62264366D01*
X126976693Y-62264365D01*
X126976692Y-62264365D01*
X126976691Y-62264364D01*
X126976686Y-62264364D01*
X126750002Y-62244532D01*
X126749998Y-62244532D01*
X126523313Y-62264364D01*
X126523302Y-62264366D01*
X126303511Y-62323258D01*
X126303502Y-62323261D01*
X126097267Y-62419431D01*
X126097265Y-62419432D01*
X125910858Y-62549954D01*
X125749954Y-62710858D01*
X125619432Y-62897265D01*
X125619431Y-62897267D01*
X125523261Y-63103502D01*
X125523258Y-63103511D01*
X125464366Y-63323302D01*
X125464364Y-63323313D01*
X125444532Y-63549998D01*
X78613742Y-63549998D01*
X78651731Y-63433079D01*
X78710688Y-63124015D01*
X78711978Y-63103511D01*
X78730444Y-62810005D01*
X78730444Y-62809994D01*
X78710689Y-62495995D01*
X78710688Y-62495988D01*
X78710688Y-62495985D01*
X78651731Y-62186921D01*
X78554503Y-61887685D01*
X78420537Y-61602993D01*
X78251947Y-61337337D01*
X78243432Y-61327044D01*
X78051393Y-61094909D01*
X78051391Y-61094907D01*
X77822031Y-60879523D01*
X77822021Y-60879515D01*
X77567495Y-60694591D01*
X77567488Y-60694586D01*
X77567484Y-60694584D01*
X77291766Y-60543006D01*
X77291763Y-60543004D01*
X77291758Y-60543002D01*
X77291757Y-60543001D01*
X76999228Y-60427181D01*
X76999225Y-60427180D01*
X76694476Y-60348934D01*
X76694463Y-60348932D01*
X76382329Y-60309500D01*
X76382318Y-60309500D01*
X76067682Y-60309500D01*
X76067670Y-60309500D01*
X75755536Y-60348932D01*
X75755523Y-60348934D01*
X75450774Y-60427180D01*
X75450771Y-60427181D01*
X75158242Y-60543001D01*
X75158241Y-60543002D01*
X74882516Y-60694584D01*
X74882504Y-60694591D01*
X74627978Y-60879515D01*
X74627968Y-60879523D01*
X74398608Y-61094907D01*
X74398606Y-61094909D01*
X74198054Y-61337334D01*
X74198051Y-61337338D01*
X74029464Y-61602990D01*
X74029461Y-61602996D01*
X73895499Y-61887678D01*
X73894064Y-61891304D01*
X73892724Y-61890773D01*
X73856616Y-61943511D01*
X73792241Y-61970670D01*
X73723402Y-61958714D01*
X73671955Y-61911438D01*
X73660765Y-61887338D01*
X73643652Y-61836923D01*
X73513172Y-61572336D01*
X73512915Y-61571952D01*
X73408005Y-61414942D01*
X73349273Y-61327043D01*
X73210570Y-61168883D01*
X73154758Y-61105241D01*
X72932955Y-60910725D01*
X72687667Y-60746829D01*
X72687660Y-60746825D01*
X72423080Y-60616349D01*
X72143730Y-60521521D01*
X72143724Y-60521519D01*
X72143722Y-60521519D01*
X71854380Y-60463966D01*
X71854373Y-60463965D01*
X71854363Y-60463964D01*
X71560007Y-60444671D01*
X71559993Y-60444671D01*
X71265636Y-60463964D01*
X71265624Y-60463965D01*
X71265620Y-60463966D01*
X71265612Y-60463967D01*
X71265609Y-60463968D01*
X70976283Y-60521518D01*
X70976269Y-60521521D01*
X70696919Y-60616349D01*
X70432334Y-60746828D01*
X70187041Y-60910728D01*
X69965241Y-61105241D01*
X69770728Y-61327041D01*
X69727602Y-61391584D01*
X69673990Y-61436389D01*
X69604665Y-61445096D01*
X69541638Y-61414942D01*
X69504918Y-61355499D01*
X69500500Y-61322693D01*
X69500500Y-60124500D01*
X69520185Y-60057461D01*
X69572989Y-60011706D01*
X69624500Y-60000500D01*
X143375500Y-60000500D01*
X143442539Y-60020185D01*
G37*
%TD.AperFunction*%
%TD*%
%TA.AperFunction,Conductor*%
%TO.N,/RX_{ESP}*%
G36*
X93852775Y-98895179D02*
G01*
X95095822Y-99456236D01*
X95101953Y-99462763D01*
X95101824Y-99471365D01*
X94802562Y-100196212D01*
X94796237Y-100202551D01*
X94796212Y-100202562D01*
X94071365Y-100501824D01*
X94062410Y-100501813D01*
X94056236Y-100495822D01*
X93495179Y-99252775D01*
X93494899Y-99243825D01*
X93497568Y-99239691D01*
X93839690Y-98897569D01*
X93847962Y-98894143D01*
X93852775Y-98895179D01*
G37*
%TD.AperFunction*%
%TD*%
%TA.AperFunction,Conductor*%
%TO.N,/RX_{ESP}*%
G36*
X76573351Y-90389890D02*
G01*
X76574780Y-90391106D01*
X76916187Y-90732513D01*
X76919345Y-90738294D01*
X77143215Y-91765165D01*
X77141630Y-91773978D01*
X77136266Y-91778464D01*
X76366526Y-92097706D01*
X76357571Y-92097710D01*
X76353761Y-92095162D01*
X75765983Y-91505999D01*
X75762566Y-91497722D01*
X75764776Y-91490893D01*
X76557018Y-90392534D01*
X76564637Y-90387829D01*
X76573351Y-90389890D01*
G37*
%TD.AperFunction*%
%TD*%
%TA.AperFunction,Conductor*%
%TO.N,+3V3*%
G36*
X117638465Y-121497824D02*
G01*
X117644180Y-121502905D01*
X118292200Y-122658475D01*
X118293258Y-122667367D01*
X118290268Y-122672471D01*
X117772471Y-123190268D01*
X117764198Y-123193695D01*
X117758475Y-123192200D01*
X116602905Y-122544180D01*
X116597365Y-122537144D01*
X116597812Y-122529512D01*
X116897438Y-121803785D01*
X116903762Y-121797448D01*
X116903764Y-121797446D01*
X117629512Y-121497813D01*
X117638465Y-121497824D01*
G37*
%TD.AperFunction*%
%TD*%
%TA.AperFunction,Conductor*%
%TO.N,+3V3*%
G36*
X120592754Y-122864765D02*
G01*
X120597835Y-122870480D01*
X120899134Y-123595510D01*
X120899144Y-123604463D01*
X120899135Y-123604485D01*
X120899134Y-123604490D01*
X120597835Y-124329519D01*
X120591496Y-124335844D01*
X120583862Y-124336292D01*
X119308531Y-123977400D01*
X119301495Y-123971860D01*
X119300000Y-123966137D01*
X119300000Y-123233862D01*
X119303427Y-123225589D01*
X119308530Y-123222599D01*
X120583863Y-122863707D01*
X120592754Y-122864765D01*
G37*
%TD.AperFunction*%
%TD*%
%TA.AperFunction,Conductor*%
%TO.N,+3V3*%
G36*
X114555911Y-70363427D02*
G01*
X114558186Y-70366638D01*
X115057060Y-71406183D01*
X115057550Y-71415124D01*
X115054077Y-71420170D01*
X114187565Y-72154588D01*
X114179038Y-72157323D01*
X114172435Y-72154588D01*
X113305922Y-71420170D01*
X113301827Y-71412207D01*
X113302939Y-71406183D01*
X113801814Y-70366638D01*
X113808483Y-70360662D01*
X113812362Y-70360000D01*
X114547638Y-70360000D01*
X114555911Y-70363427D01*
G37*
%TD.AperFunction*%
%TD*%
%TA.AperFunction,Conductor*%
%TO.N,+3V3*%
G36*
X87791469Y-66322599D02*
G01*
X87798505Y-66328139D01*
X87800000Y-66333862D01*
X87800000Y-67066137D01*
X87796573Y-67074410D01*
X87791469Y-67077400D01*
X86516137Y-67436292D01*
X86507245Y-67435234D01*
X86502164Y-67429519D01*
X86355835Y-67077400D01*
X86200864Y-66704487D01*
X86200854Y-66695538D01*
X86502164Y-65970479D01*
X86508503Y-65964155D01*
X86516136Y-65963707D01*
X87791469Y-66322599D01*
G37*
%TD.AperFunction*%
%TD*%
%TA.AperFunction,Conductor*%
%TO.N,/JTK_{L}*%
G36*
X102560310Y-121997570D02*
G01*
X102902429Y-122339689D01*
X102905856Y-122347962D01*
X102904820Y-122352775D01*
X102343763Y-123595822D01*
X102337236Y-123601953D01*
X102328634Y-123601824D01*
X101603787Y-123302562D01*
X101597448Y-123296237D01*
X101597437Y-123296212D01*
X101298175Y-122571365D01*
X101298186Y-122562410D01*
X101304177Y-122556236D01*
X101765618Y-122347962D01*
X102547224Y-121995178D01*
X102556174Y-121994899D01*
X102560310Y-121997570D01*
G37*
%TD.AperFunction*%
%TD*%
%TA.AperFunction,Conductor*%
%TO.N,/JTK_{L}*%
G36*
X112804122Y-111102717D02*
G01*
X112804139Y-111102734D01*
X113358364Y-111658346D01*
X113361781Y-111666624D01*
X113359282Y-111673836D01*
X112560659Y-112690666D01*
X112552854Y-112695055D01*
X112544231Y-112692640D01*
X112543185Y-112691712D01*
X112201643Y-112350170D01*
X112198362Y-112343740D01*
X112002158Y-111113530D01*
X112004239Y-111104820D01*
X112011869Y-111100133D01*
X112013690Y-111099987D01*
X112795846Y-111099297D01*
X112804122Y-111102717D01*
G37*
%TD.AperFunction*%
%TD*%
%TA.AperFunction,Conductor*%
%TO.N,/~{RST_{LCD}}*%
G36*
X115128646Y-81701801D02*
G01*
X115134970Y-81708139D01*
X115135099Y-81716741D01*
X114652859Y-82992437D01*
X114646728Y-82998964D01*
X114641915Y-83000000D01*
X114158085Y-83000000D01*
X114149812Y-82996573D01*
X114147141Y-82992437D01*
X113664900Y-81716739D01*
X113665180Y-81707791D01*
X113671352Y-81701801D01*
X114395512Y-81400864D01*
X114404461Y-81400854D01*
X115128646Y-81701801D01*
G37*
%TD.AperFunction*%
%TD*%
%TA.AperFunction,Conductor*%
%TO.N,/~{RST_{LCD}}*%
G36*
X110960310Y-90297570D02*
G01*
X111302429Y-90639689D01*
X111305856Y-90647962D01*
X111304820Y-90652775D01*
X110743763Y-91895822D01*
X110737236Y-91901953D01*
X110728634Y-91901824D01*
X110003787Y-91602562D01*
X109997448Y-91596237D01*
X109997437Y-91596212D01*
X109698175Y-90871365D01*
X109698186Y-90862410D01*
X109704177Y-90856236D01*
X110165618Y-90647962D01*
X110947224Y-90295178D01*
X110956174Y-90294899D01*
X110960310Y-90297570D01*
G37*
%TD.AperFunction*%
%TD*%
%TA.AperFunction,Conductor*%
%TO.N,/I2C_SDA*%
G36*
X109992758Y-84564759D02*
G01*
X109997824Y-84570471D01*
X110298845Y-85296219D01*
X110298850Y-85305174D01*
X110298842Y-85305192D01*
X109999148Y-86026360D01*
X109992809Y-86032685D01*
X109983854Y-86032674D01*
X109982147Y-86031794D01*
X109577100Y-85778864D01*
X108652859Y-85201726D01*
X108647658Y-85194438D01*
X108649133Y-85185606D01*
X108650780Y-85183534D01*
X108991766Y-84842548D01*
X108996884Y-84839556D01*
X109983869Y-84563686D01*
X109992758Y-84564759D01*
G37*
%TD.AperFunction*%
%TD*%
%TA.AperFunction,Conductor*%
%TO.N,/I2C_SDA*%
G36*
X102308984Y-71820327D02*
G01*
X102315310Y-71826666D01*
X102315551Y-71827302D01*
X102838781Y-73337480D01*
X102838252Y-73346419D01*
X102835999Y-73349583D01*
X102669583Y-73515999D01*
X102661310Y-73519426D01*
X102657480Y-73518781D01*
X101147302Y-72995551D01*
X101140606Y-72989605D01*
X101140077Y-72980666D01*
X101140307Y-72980057D01*
X101477438Y-72163783D01*
X101483761Y-72157447D01*
X102300032Y-71820318D01*
X102308984Y-71820327D01*
G37*
%TD.AperFunction*%
%TD*%
%TA.AperFunction,Conductor*%
%TO.N,/I2C_SDA*%
G36*
X128650188Y-67303427D02*
G01*
X128652859Y-67307563D01*
X129135099Y-68583258D01*
X129134819Y-68592208D01*
X129128645Y-68598199D01*
X128404490Y-68899134D01*
X128395536Y-68899144D01*
X127671353Y-68598198D01*
X127665029Y-68591860D01*
X127664900Y-68583260D01*
X128147141Y-67307562D01*
X128153272Y-67301036D01*
X128158085Y-67300000D01*
X128641915Y-67300000D01*
X128650188Y-67303427D01*
G37*
%TD.AperFunction*%
%TD*%
%TA.AperFunction,Conductor*%
%TO.N,/I2C_SDA*%
G36*
X127487589Y-63248186D02*
G01*
X127493763Y-63254177D01*
X128054820Y-64497224D01*
X128055100Y-64506174D01*
X128052429Y-64510310D01*
X127710310Y-64852429D01*
X127702037Y-64855856D01*
X127697224Y-64854820D01*
X126454177Y-64293763D01*
X126448046Y-64287236D01*
X126448174Y-64278635D01*
X126747438Y-63553785D01*
X126753762Y-63547448D01*
X126753764Y-63547446D01*
X127478635Y-63248175D01*
X127487589Y-63248186D01*
G37*
%TD.AperFunction*%
%TD*%
%TA.AperFunction,Conductor*%
%TO.N,/JTK_{SEL}*%
G36*
X101837589Y-109398186D02*
G01*
X101843763Y-109404177D01*
X102404820Y-110647224D01*
X102405100Y-110656174D01*
X102402429Y-110660310D01*
X102060310Y-111002429D01*
X102052037Y-111005856D01*
X102047224Y-111004820D01*
X100804177Y-110443763D01*
X100798046Y-110437236D01*
X100798174Y-110428635D01*
X101097438Y-109703785D01*
X101103762Y-109697448D01*
X101103764Y-109697446D01*
X101828635Y-109398175D01*
X101837589Y-109398186D01*
G37*
%TD.AperFunction*%
%TD*%
%TA.AperFunction,Conductor*%
%TO.N,/JTK_{SEL}*%
G36*
X108670875Y-110897980D02*
G01*
X109171211Y-111104946D01*
X109396510Y-111198143D01*
X109402845Y-111204472D01*
X109402853Y-111204490D01*
X109701061Y-111926787D01*
X109701050Y-111935742D01*
X109694711Y-111942067D01*
X109693274Y-111942553D01*
X108187520Y-112346053D01*
X108178642Y-112344885D01*
X108173191Y-112337780D01*
X108172792Y-112334752D01*
X108172792Y-111852814D01*
X108174071Y-111847494D01*
X108655985Y-110903471D01*
X108662798Y-110897663D01*
X108670875Y-110897980D01*
G37*
%TD.AperFunction*%
%TD*%
%TA.AperFunction,Conductor*%
%TO.N,/JTK_{F}*%
G36*
X109992208Y-124565180D02*
G01*
X109998199Y-124571354D01*
X110299134Y-125295510D01*
X110299144Y-125304463D01*
X110299135Y-125304485D01*
X110299134Y-125304490D01*
X109998199Y-126028645D01*
X109991860Y-126034970D01*
X109983258Y-126035099D01*
X108707563Y-125552858D01*
X108701036Y-125546727D01*
X108700000Y-125541914D01*
X108700000Y-125058085D01*
X108703427Y-125049812D01*
X108707563Y-125047141D01*
X109983260Y-124564900D01*
X109992208Y-124565180D01*
G37*
%TD.AperFunction*%
%TD*%
%TA.AperFunction,Conductor*%
%TO.N,/JTK_{F}*%
G36*
X103802775Y-108895179D02*
G01*
X105045822Y-109456236D01*
X105051953Y-109462763D01*
X105051824Y-109471365D01*
X104752562Y-110196212D01*
X104746237Y-110202551D01*
X104746212Y-110202562D01*
X104021365Y-110501824D01*
X104012410Y-110501813D01*
X104006236Y-110495822D01*
X103445179Y-109252775D01*
X103444899Y-109243825D01*
X103447568Y-109239691D01*
X103789690Y-108897569D01*
X103797962Y-108894143D01*
X103802775Y-108895179D01*
G37*
%TD.AperFunction*%
%TD*%
%TA.AperFunction,Conductor*%
%TO.N,/I2C_SCL*%
G36*
X119649910Y-88363373D02*
G01*
X119652707Y-88367860D01*
X120085553Y-89633472D01*
X120084988Y-89642409D01*
X120078973Y-89648062D01*
X119354490Y-89949134D01*
X119345536Y-89949144D01*
X119345510Y-89949134D01*
X118621740Y-89648359D01*
X118615415Y-89642020D01*
X118615426Y-89633065D01*
X118615429Y-89633055D01*
X119146989Y-88367115D01*
X119153352Y-88360815D01*
X119157777Y-88359946D01*
X119641637Y-88359946D01*
X119649910Y-88363373D01*
G37*
%TD.AperFunction*%
%TD*%
%TA.AperFunction,Conductor*%
%TO.N,/I2C_SCL*%
G36*
X120371364Y-65498174D02*
G01*
X121096212Y-65797437D01*
X121102551Y-65803762D01*
X121102562Y-65803787D01*
X121401824Y-66528634D01*
X121401813Y-66537589D01*
X121395822Y-66543763D01*
X120152775Y-67104820D01*
X120143825Y-67105100D01*
X120139689Y-67102429D01*
X119797570Y-66760310D01*
X119794143Y-66752037D01*
X119795179Y-66747224D01*
X120221005Y-65803787D01*
X120356236Y-65504176D01*
X120362763Y-65498046D01*
X120371364Y-65498174D01*
G37*
%TD.AperFunction*%
%TD*%
%TA.AperFunction,Conductor*%
%TO.N,/AO2*%
G36*
X95451147Y-127347908D02*
G01*
X95458438Y-127353106D01*
X95460218Y-127359309D01*
X95460218Y-127843079D01*
X95456791Y-127851352D01*
X95454152Y-127853333D01*
X94217579Y-128532822D01*
X94208679Y-128533803D01*
X94201691Y-128528202D01*
X94201141Y-128527058D01*
X93921163Y-127853333D01*
X93900864Y-127804487D01*
X93900854Y-127795538D01*
X94202352Y-127070026D01*
X94208690Y-127063703D01*
X94215781Y-127063117D01*
X95451147Y-127347908D01*
G37*
%TD.AperFunction*%
%TD*%
%TA.AperFunction,Conductor*%
%TO.N,/AO2*%
G36*
X113404122Y-125702717D02*
G01*
X113404139Y-125702734D01*
X113647089Y-125946292D01*
X113957104Y-126257082D01*
X113960521Y-126265360D01*
X113957084Y-126273628D01*
X113956766Y-126273934D01*
X112935943Y-127218229D01*
X112927543Y-127221331D01*
X112919725Y-127217913D01*
X112577663Y-126875851D01*
X112574236Y-126867578D01*
X112574239Y-126867320D01*
X112587706Y-126257082D01*
X112599747Y-125711429D01*
X112603355Y-125703235D01*
X112611431Y-125699989D01*
X113395846Y-125699297D01*
X113404122Y-125702717D01*
G37*
%TD.AperFunction*%
%TD*%
M02*
