M48
; DRILL file {KiCad 8.0.9-8.0.9-0~ubuntu22.04.1} date 2025-03-11T13:18:20+0100
; FORMAT={-:-/ absolute / inch / decimal}
; #@! TF.CreationDate,2025-03-11T13:18:20+01:00
; #@! TF.GenerationSoftware,Kicad,Pcbnew,8.0.9-8.0.9-0~ubuntu22.04.1
; #@! TF.FileFunction,Plated,1,2,PTH
FMAT,2
INCH
; #@! TA.AperFunction,Plated,PTH,ViaDrill
T1C0.0315
; #@! TA.AperFunction,Plated,PTH,ComponentDrill
T2C0.0315
; #@! TA.AperFunction,Plated,PTH,ComponentDrill
T3C0.0394
; #@! TA.AperFunction,Plated,PTH,ComponentDrill
T4C0.0433
; #@! TA.AperFunction,Plated,PTH,ComponentDrill
T5C0.0512
; #@! TA.AperFunction,Plated,PTH,ComponentDrill
T6C0.0630
; #@! TA.AperFunction,Plated,PTH,ComponentDrill
T7C0.0984
; #@! TA.AperFunction,Plated,PTH,ComponentDrill
T8C0.1181
%
G90
G05
T1
X3.3504Y-3.7835
X3.6969Y-5.0315
X3.7323Y-3.9449
X4.0Y-4.3386
X4.0Y-4.8543
X4.0079Y-4.7126
X4.124Y-4.3386
X4.3071Y-4.378
X4.3307Y-3.6063
X4.3425Y-2.7362
X4.3425Y-3.3583
X4.3425Y-4.9331
X4.4409Y-4.374
X4.4646Y-4.9488
X4.5039Y-3.2047
X4.5276Y-4.5709
X4.5276Y-4.6969
X4.6024Y-4.7953
X4.6988Y-3.5413
X4.7244Y-3.6969
X4.7598Y-4.8661
X4.7677Y-2.5906
X4.8307Y-3.8937
X4.9902Y-2.502
X5.0551Y-2.7126
X5.1693Y-3.2047
X5.2795Y-2.6457
T2
X2.8504Y-4.0472
X2.8543Y-4.2047
X4.5335Y-3.815
X4.5335Y-3.8701
X4.5827Y-4.3071
X4.5866Y-4.4252
X5.0Y-3.5787
X5.0Y-3.7205
X5.0Y-3.878
X5.563Y-3.0394
X5.563Y-3.1181
T3
X2.9301Y-5.3661
X3.0301Y-5.3661
X3.0339Y-3.5906
X3.0339Y-3.6906
X3.0339Y-3.7906
X3.0339Y-3.8906
X3.1339Y-3.5906
X3.1339Y-3.6906
X3.1339Y-3.7906
X3.1339Y-3.8906
X3.7283Y-5.3126
X3.8268Y-5.1157
X3.8953Y-2.8409
X3.8953Y-2.9409
X3.9252Y-5.3126
X3.9953Y-2.8409
X3.9953Y-2.9409
X4.0953Y-2.8409
X4.0953Y-2.9409
X4.1953Y-2.8409
X4.1953Y-2.9409
X4.2953Y-2.8409
X4.2953Y-2.9409
X4.3953Y-2.8409
X4.3953Y-2.9409
X4.4953Y-2.8409
X4.4953Y-2.9409
X4.5669Y-5.2929
X4.6654Y-5.0961
X4.7213Y-4.2165
X4.7638Y-5.2929
X4.8213Y-4.2165
X4.9213Y-4.2165
X5.3228Y-2.7795
X5.3228Y-2.8795
X5.3228Y-2.9795
X5.3228Y-3.0795
X5.3833Y-5.3661
X5.4228Y-2.7795
X5.4228Y-2.8795
X5.4228Y-2.9795
X5.4228Y-3.0795
X5.4833Y-5.3661
T4
X3.2222Y-4.9761
X3.3207Y-4.9761
X3.4191Y-4.9761
X3.6644Y-4.534
X3.6644Y-4.6324
X3.6644Y-4.7308
X5.2323Y-3.7677
X5.2323Y-3.9449
X5.4882Y-3.7677
X5.4882Y-3.9449
T5
X2.9171Y-4.5044
X2.9171Y-4.7603
X3.0943Y-4.5044
X3.0943Y-4.7603
T6
X3.1238Y-4.3834
X3.1238Y-4.8814
X3.5175Y-4.3834
X3.5175Y-4.8814
T7
X3.001Y-2.4728
X3.001Y-3.3783
X5.4026Y-2.4728
X5.4026Y-3.3783
T8
X2.8173Y-2.4685
X3.1323Y-4.122
X4.1953Y-5.3031
X5.2583Y-4.122
X5.5732Y-2.4685
M30
